; NON-PLATED HOLES START AT T1
; THROUGH (PLATED) HOLES START AT T100
M48
INCH
T1C0.044000
T2C0.125984
T100C0.052972
T101C0.053000
T102C0.035000
T103C0.027559
T104C0.030000
%
T1
X002384Y006153
X002384Y030105
X005336Y004185
X003368Y010169
X002384Y002217
X003368Y014105
X005336Y028137
X002384Y022105
X003368Y018169
X002384Y018169
X002384Y026169
X003368Y002217
X003368Y026169
X005336Y012137
X005336Y020137
X003368Y030105
X002384Y014105
X003368Y006153
X002384Y010169
X003368Y022105
T2
X001336Y001153
X031336Y001153
X001336Y033153
X031336Y033153
T100
X003368Y012137
X003368Y020137
X003368Y028137
X005336Y019153
X005336Y027153
X005336Y003201
X003368Y004185
X005336Y011153
T101
X005336Y030105
X005336Y026169
X005336Y021121
X005336Y005169
X005336Y014105
X005336Y013121
X005336Y029121
X005336Y010169
X005336Y022105
X005336Y006153
X005336Y002217
X005336Y018169
T102
X009336Y012153
X009336Y016153
X010336Y009153
X010336Y001153
X007336Y007153
X007336Y011153
X010336Y025153
X007336Y019153
X010336Y029153
X009336Y032153
X009336Y024153
X009336Y004153
X009336Y008153
X007336Y023153
X009336Y020153
X010336Y021153
X010336Y017153
X007336Y031153
X010336Y013153
X007336Y015153
X009336Y028153
X007336Y003153
X010336Y005153
X007336Y027153
T103
X027336Y020153
X016336Y012153
X015336Y012153
X015336Y017153
X026336Y017153
X026336Y022153
X027336Y019153
X026336Y012153
X026336Y011153
X015336Y022153
X027336Y017153
X026336Y016153
X016336Y016153
X027336Y022153
X027336Y024153
X027336Y021153
X016336Y011153
X027336Y025153
X026336Y021153
X026336Y015153
X027336Y015153
X015336Y025153
X027336Y018153
X015336Y011153
X026336Y019153
X027336Y023153
X015336Y020153
X016336Y025153
X015336Y023153
X026336Y018153
X016336Y024153
X016336Y019153
X015336Y013153
X016336Y022153
X016336Y013153
X016336Y014153
X016336Y021153
X015336Y019153
X016336Y017153
X026336Y024153
X026336Y014153
X015336Y021153
X026336Y020153
X015336Y018153
X016336Y018153
X015336Y016153
X027336Y014153
X026336Y023153
X026336Y025153
X027336Y013153
X015336Y014153
X026336Y013153
X027336Y011153
X015336Y015153
X027336Y016153
X027336Y012153
X016336Y023153
X016336Y020153
X016336Y015153
X015336Y024153
T104
X007336Y001153
X007336Y025153
X007336Y002153
X007336Y009153
X007336Y026153
X007336Y018153
X007336Y010153
X007336Y017153
T00
M30
