G04 MADE WITH FRITZING*
G04 WWW.FRITZING.ORG*
G04 DOUBLE SIDED*
G04 HOLES PLATED*
G04 CONTOUR ON CENTER OF CONTOUR VECTOR*
%ASAXBY*%
%FSLAX23Y23*%
%MOIN*%
%OFA0B0*%
%SFA1.0B1.0*%
%ADD10C,0.135984*%
%ADD11C,0.097695*%
%ADD12C,0.097722*%
%ADD13C,0.054000*%
%ADD14C,0.080000*%
%ADD15C,0.085000*%
%ADD16C,0.077559*%
%LNMASK0*%
G90*
G70*
G54D10*
X1625Y3307D03*
X125Y3307D03*
G54D11*
X328Y2005D03*
G54D12*
X525Y2202D03*
X525Y2104D03*
G54D11*
X525Y1907D03*
G54D12*
X525Y1808D03*
G54D13*
X230Y2202D03*
X230Y1808D03*
X328Y1808D03*
X525Y2005D03*
X328Y2202D03*
G54D11*
X328Y1205D03*
G54D12*
X525Y1402D03*
X525Y1304D03*
G54D11*
X525Y1107D03*
G54D12*
X525Y1008D03*
G54D13*
X230Y1402D03*
X230Y1008D03*
X328Y1008D03*
X525Y1205D03*
X328Y1402D03*
G54D11*
X328Y2805D03*
G54D12*
X525Y3002D03*
X525Y2904D03*
G54D11*
X525Y2707D03*
G54D12*
X525Y2608D03*
G54D13*
X230Y3002D03*
X230Y2608D03*
X328Y2608D03*
X525Y2805D03*
X328Y3002D03*
G54D14*
X725Y1707D03*
X725Y1807D03*
X725Y907D03*
X725Y1007D03*
X725Y2507D03*
X725Y2607D03*
G54D15*
X725Y2307D03*
X725Y1907D03*
X725Y1507D03*
X725Y1107D03*
X725Y3107D03*
X725Y2707D03*
X925Y2407D03*
X925Y2007D03*
X925Y1607D03*
X925Y1207D03*
X925Y3207D03*
X925Y2807D03*
X1025Y1707D03*
X1025Y2107D03*
X1025Y907D03*
X1025Y1307D03*
X1025Y2507D03*
X1025Y2907D03*
G54D16*
X1525Y1907D03*
X1525Y1807D03*
X1525Y1707D03*
X1525Y1607D03*
X1525Y1507D03*
X1525Y1407D03*
G54D11*
X328Y410D03*
G54D12*
X525Y607D03*
X525Y508D03*
G54D11*
X525Y312D03*
G54D12*
X525Y213D03*
G54D13*
X230Y607D03*
X230Y213D03*
X328Y213D03*
X525Y410D03*
X328Y607D03*
G54D15*
X725Y707D03*
X725Y307D03*
G54D14*
X725Y107D03*
X725Y207D03*
G54D15*
X925Y807D03*
X925Y407D03*
X1025Y107D03*
X1025Y507D03*
G54D10*
X125Y107D03*
X1625Y107D03*
G04 End of Mask0*
M02*