G04 MADE WITH FRITZING*
G04 WWW.FRITZING.ORG*
G04 DOUBLE SIDED*
G04 HOLES PLATED*
G04 CONTOUR ON CENTER OF CONTOUR VECTOR*
%ASAXBY*%
%FSLAX23Y23*%
%MOIN*%
%OFA0B0*%
%SFA1.0B1.0*%
%ADD10C,0.087695*%
%ADD11C,0.087722*%
%ADD12C,0.070000*%
%ADD13C,0.075000*%
%ADD14C,0.067559*%
%ADD15C,0.024000*%
%LNCOPPER0*%
G90*
G70*
G54D10*
X328Y2005D03*
G54D11*
X525Y2202D03*
X525Y2104D03*
G54D10*
X525Y1907D03*
G54D11*
X525Y1808D03*
G54D10*
X328Y1205D03*
G54D11*
X525Y1402D03*
X525Y1304D03*
G54D10*
X525Y1107D03*
G54D11*
X525Y1008D03*
G54D10*
X328Y2805D03*
G54D11*
X525Y3002D03*
X525Y2904D03*
G54D10*
X525Y2707D03*
G54D11*
X525Y2608D03*
G54D12*
X725Y1707D03*
X725Y1807D03*
X725Y907D03*
X725Y1007D03*
X725Y2507D03*
X725Y2607D03*
G54D13*
X725Y2307D03*
X725Y1907D03*
X725Y1507D03*
X725Y1107D03*
X725Y3107D03*
X725Y2707D03*
X925Y2407D03*
X925Y2007D03*
X925Y1607D03*
X925Y1207D03*
X925Y3207D03*
X925Y2807D03*
X1025Y1707D03*
X1025Y2107D03*
X1025Y907D03*
X1025Y1307D03*
X1025Y2507D03*
X1025Y2907D03*
G54D14*
X1525Y1907D03*
X1525Y1807D03*
X1525Y1707D03*
X1525Y1607D03*
X1525Y1507D03*
X1525Y1407D03*
G54D10*
X328Y410D03*
G54D11*
X525Y607D03*
X525Y508D03*
G54D10*
X525Y312D03*
G54D11*
X525Y213D03*
G54D13*
X725Y707D03*
X725Y307D03*
G54D12*
X725Y107D03*
X725Y207D03*
G54D13*
X925Y807D03*
X925Y407D03*
X1025Y107D03*
X1025Y507D03*
G54D15*
X1325Y3107D02*
X743Y3107D01*
D02*
X1325Y1806D02*
X1325Y3107D01*
D02*
X1511Y1807D02*
X1325Y1806D01*
D02*
X1224Y2307D02*
X1224Y1708D01*
D02*
X1224Y1708D02*
X1511Y1707D01*
D02*
X743Y2307D02*
X1224Y2307D01*
D02*
X1224Y1607D02*
X1224Y1507D01*
D02*
X1224Y1507D02*
X743Y1507D01*
D02*
X1511Y1607D02*
X1224Y1607D01*
D02*
X1325Y706D02*
X743Y707D01*
D02*
X1325Y1507D02*
X1325Y706D01*
D02*
X1511Y1507D02*
X1325Y1507D01*
D02*
X708Y2707D02*
X552Y2707D01*
D02*
X910Y2799D02*
X741Y2715D01*
D02*
X938Y419D02*
X1013Y495D01*
D02*
X938Y1219D02*
X1013Y1295D01*
D02*
X938Y2019D02*
X1013Y2095D01*
D02*
X938Y2819D02*
X1013Y2895D01*
D02*
X708Y1907D02*
X552Y1907D01*
D02*
X725Y1889D02*
X725Y1822D01*
D02*
X910Y1999D02*
X741Y1915D01*
D02*
X725Y2689D02*
X725Y2622D01*
D02*
X337Y2830D02*
X426Y3106D01*
D02*
X426Y3106D02*
X708Y3107D01*
D02*
X426Y2308D02*
X337Y2030D01*
D02*
X708Y2307D02*
X426Y2308D01*
D02*
X426Y1506D02*
X337Y1230D01*
D02*
X708Y1507D02*
X426Y1506D01*
D02*
X708Y1107D02*
X552Y1107D01*
D02*
X725Y1022D02*
X725Y1089D01*
D02*
X910Y1199D02*
X741Y1115D01*
D02*
X708Y707D02*
X425Y707D01*
D02*
X425Y707D02*
X337Y435D01*
D02*
X725Y289D02*
X725Y222D01*
D02*
X741Y315D02*
X910Y399D01*
G04 End of Copper0*
M02*