; NON-PLATED HOLES START AT T1
; THROUGH (PLATED) HOLES START AT T100
M48
INCH
T1C0.044000
T2C0.125984
T100C0.053000
T101C0.027559
T102C0.030000
T103C0.052972
T104C0.035000
%
T1
X003284Y018084
X005252Y012052
X002300Y014020
X003284Y010084
X002300Y006068
X003284Y026084
X002300Y022020
X003284Y002132
X002300Y018084
X005252Y004100
X002300Y002132
X003284Y030020
X003284Y006068
X005252Y028052
X003284Y022020
X002300Y026084
X002300Y030020
X003284Y014020
X005252Y020052
X002300Y010084
T2
X001252Y001068
X001252Y033068
X016252Y033068
X016252Y001068
T100
X005252Y013036
X005252Y026084
X005252Y014020
X005252Y029036
X005252Y006068
X005252Y010084
X005252Y030020
X005252Y018084
X005252Y005084
X005252Y002132
X005252Y022020
X005252Y021036
T101
X015252Y018068
X015252Y019068
X015252Y014068
X015252Y017068
X015252Y015068
X015252Y016068
T102
X007252Y010068
X007252Y018068
X007252Y025068
X007252Y002068
X007252Y001068
X007252Y009068
X007252Y017068
X007252Y026068
T103
X005252Y003116
X003284Y028052
X003284Y012052
X003284Y020052
X003284Y004100
X005252Y019068
X005252Y011068
X005252Y027068
T104
X007252Y031068
X007252Y015068
X010252Y025068
X010252Y005068
X010252Y021068
X010252Y013068
X009252Y008068
X007252Y003068
X009252Y004068
X009252Y020068
X007252Y011068
X007252Y007068
X007252Y019068
X007252Y027068
X010252Y001068
X009252Y024068
X009252Y012068
X009252Y016068
X007252Y023068
X009252Y032068
X010252Y029068
X010252Y017068
X009252Y028068
X010252Y009068
T00
M30
