G04 MADE WITH FRITZING*
G04 WWW.FRITZING.ORG*
G04 DOUBLE SIDED*
G04 HOLES PLATED*
G04 CONTOUR ON CENTER OF CONTOUR VECTOR*
%ASAXBY*%
%FSLAX23Y23*%
%MOIN*%
%OFA0B0*%
%SFA1.0B1.0*%
%ADD10C,0.087695*%
%ADD11C,0.087722*%
%ADD12C,0.070000*%
%ADD13C,0.075000*%
%ADD14C,0.067559*%
%ADD15C,0.024000*%
%LNCOPPER1*%
G90*
G70*
G54D10*
X328Y2005D03*
G54D11*
X525Y2202D03*
X525Y2104D03*
G54D10*
X525Y1907D03*
G54D11*
X525Y1808D03*
G54D10*
X328Y1205D03*
G54D11*
X525Y1402D03*
X525Y1304D03*
G54D10*
X525Y1107D03*
G54D11*
X525Y1008D03*
G54D10*
X328Y2805D03*
G54D11*
X525Y3002D03*
X525Y2904D03*
G54D10*
X525Y2707D03*
G54D11*
X525Y2608D03*
G54D12*
X725Y1707D03*
X725Y1807D03*
X725Y907D03*
X725Y1007D03*
X725Y2507D03*
X725Y2607D03*
G54D13*
X725Y2307D03*
X725Y1907D03*
X725Y1507D03*
X725Y1107D03*
X725Y3107D03*
X725Y2707D03*
X925Y2407D03*
X925Y2007D03*
X925Y1607D03*
X925Y1207D03*
X925Y3207D03*
X925Y2807D03*
X1025Y1707D03*
X1025Y2107D03*
X1025Y907D03*
X1025Y1307D03*
X1025Y2507D03*
X1025Y2907D03*
G54D14*
X1525Y1907D03*
X1525Y1807D03*
X1525Y1707D03*
X1525Y1607D03*
X1525Y1507D03*
X1525Y1407D03*
G54D10*
X328Y410D03*
G54D11*
X525Y607D03*
X525Y508D03*
G54D10*
X525Y312D03*
G54D11*
X525Y213D03*
G54D13*
X725Y707D03*
X725Y307D03*
G54D12*
X725Y107D03*
X725Y207D03*
G54D13*
X925Y807D03*
X925Y407D03*
X1025Y107D03*
X1025Y507D03*
G54D15*
X1425Y3207D02*
X943Y3207D01*
D02*
X1524Y1921D02*
X1425Y3207D01*
D02*
X1008Y2507D02*
X740Y2507D01*
D02*
X1008Y1707D02*
X740Y1707D01*
D02*
X1008Y907D02*
X740Y907D01*
D02*
X1008Y107D02*
X740Y107D01*
D02*
X1129Y108D02*
X1043Y107D01*
D02*
X1125Y907D02*
X1129Y108D01*
D02*
X1043Y907D02*
X1125Y907D01*
D02*
X1125Y907D02*
X1043Y907D01*
D02*
X1125Y1707D02*
X1125Y907D01*
D02*
X1043Y1707D02*
X1125Y1707D01*
D02*
X1125Y1707D02*
X1125Y2507D01*
D02*
X1125Y2507D02*
X1043Y2507D01*
D02*
X1043Y1707D02*
X1125Y1707D01*
D02*
X1426Y108D02*
X1524Y1393D01*
D02*
X1129Y108D02*
X1426Y108D01*
D02*
X124Y1607D02*
X124Y807D01*
D02*
X124Y807D02*
X908Y807D01*
D02*
X908Y1607D02*
X124Y1607D01*
D02*
X124Y2408D02*
X908Y2407D01*
D02*
X908Y1607D02*
X124Y1607D01*
D02*
X124Y1607D02*
X124Y2408D01*
D02*
X124Y3208D02*
X908Y3207D01*
D02*
X908Y2407D02*
X124Y2408D01*
D02*
X124Y2408D02*
X124Y3208D01*
D02*
X1426Y3208D02*
X1524Y1921D01*
D02*
X124Y1607D02*
X124Y3208D01*
D02*
X908Y1607D02*
X124Y1607D01*
D02*
X124Y3208D02*
X1426Y3208D01*
G04 End of Copper1*
M02*