G04 MADE WITH FRITZING*
G04 WWW.FRITZING.ORG*
G04 DOUBLE SIDED*
G04 HOLES PLATED*
G04 CONTOUR ON CENTER OF CONTOUR VECTOR*
%ASAXBY*%
%FSLAX23Y23*%
%MOIN*%
%OFA0B0*%
%SFA1.0B1.0*%
%ADD10C,0.006944*%
%ADD11C,0.010000*%
%ADD12C,0.005000*%
%ADD13R,0.001000X0.001000*%
%LNSILK1*%
G90*
G70*
G54D10*
X500Y729D02*
X500Y257D01*
D02*
X67Y729D02*
X67Y670D01*
D02*
X67Y316D02*
X67Y257D01*
D02*
X28Y670D02*
X28Y611D01*
D02*
X28Y375D02*
X28Y316D01*
D02*
X28Y316D02*
X67Y316D01*
D02*
X28Y670D02*
X67Y670D01*
D02*
X67Y729D02*
X343Y729D01*
D02*
X500Y729D02*
X461Y729D01*
D02*
X67Y729D02*
X67Y257D01*
D02*
X67Y257D02*
X343Y257D01*
D02*
X500Y257D02*
X461Y257D01*
G54D11*
D02*
X638Y683D02*
X638Y483D01*
D02*
X638Y483D02*
X572Y483D01*
D02*
X572Y483D02*
X572Y683D01*
D02*
X572Y683D02*
X638Y683D01*
D02*
X838Y683D02*
X838Y483D01*
D02*
X838Y483D02*
X772Y483D01*
D02*
X772Y483D02*
X772Y683D01*
D02*
X772Y683D02*
X838Y683D01*
D02*
X872Y202D02*
X872Y402D01*
D02*
X872Y402D02*
X938Y402D01*
D02*
X938Y402D02*
X938Y202D01*
D02*
X938Y202D02*
X872Y202D01*
D02*
X1050Y643D02*
X1050Y343D01*
D02*
X1050Y343D02*
X1150Y343D01*
D02*
X1150Y343D02*
X1150Y643D01*
D02*
X1150Y643D02*
X1050Y643D01*
G54D12*
D02*
X1050Y608D02*
X1085Y643D01*
G54D13*
X1Y999D02*
X1309Y999D01*
X1Y998D02*
X1309Y998D01*
X1Y997D02*
X1309Y997D01*
X1Y996D02*
X1309Y996D01*
X1Y995D02*
X1309Y995D01*
X1Y994D02*
X1309Y994D01*
X1Y993D02*
X1309Y993D01*
X1Y992D02*
X1309Y992D01*
X1Y991D02*
X8Y991D01*
X1302Y991D02*
X1309Y991D01*
X1Y990D02*
X8Y990D01*
X1302Y990D02*
X1309Y990D01*
X1Y989D02*
X8Y989D01*
X1302Y989D02*
X1309Y989D01*
X1Y988D02*
X8Y988D01*
X1302Y988D02*
X1309Y988D01*
X1Y987D02*
X8Y987D01*
X1302Y987D02*
X1309Y987D01*
X1Y986D02*
X8Y986D01*
X1302Y986D02*
X1309Y986D01*
X1Y985D02*
X8Y985D01*
X1302Y985D02*
X1309Y985D01*
X1Y984D02*
X8Y984D01*
X1302Y984D02*
X1309Y984D01*
X1Y983D02*
X8Y983D01*
X1302Y983D02*
X1309Y983D01*
X1Y982D02*
X8Y982D01*
X1302Y982D02*
X1309Y982D01*
X1Y981D02*
X8Y981D01*
X1302Y981D02*
X1309Y981D01*
X1Y980D02*
X8Y980D01*
X1302Y980D02*
X1309Y980D01*
X1Y979D02*
X8Y979D01*
X1302Y979D02*
X1309Y979D01*
X1Y978D02*
X8Y978D01*
X1302Y978D02*
X1309Y978D01*
X1Y977D02*
X8Y977D01*
X1302Y977D02*
X1309Y977D01*
X1Y976D02*
X8Y976D01*
X1302Y976D02*
X1309Y976D01*
X1Y975D02*
X8Y975D01*
X1302Y975D02*
X1309Y975D01*
X1Y974D02*
X8Y974D01*
X1302Y974D02*
X1309Y974D01*
X1Y973D02*
X8Y973D01*
X1302Y973D02*
X1309Y973D01*
X1Y972D02*
X8Y972D01*
X1302Y972D02*
X1309Y972D01*
X1Y971D02*
X8Y971D01*
X1302Y971D02*
X1309Y971D01*
X1Y970D02*
X8Y970D01*
X1302Y970D02*
X1309Y970D01*
X1Y969D02*
X8Y969D01*
X1302Y969D02*
X1309Y969D01*
X1Y968D02*
X8Y968D01*
X1302Y968D02*
X1309Y968D01*
X1Y967D02*
X8Y967D01*
X1302Y967D02*
X1309Y967D01*
X1Y966D02*
X8Y966D01*
X1302Y966D02*
X1309Y966D01*
X1Y965D02*
X8Y965D01*
X1302Y965D02*
X1309Y965D01*
X1Y964D02*
X8Y964D01*
X1302Y964D02*
X1309Y964D01*
X1Y963D02*
X8Y963D01*
X1302Y963D02*
X1309Y963D01*
X1Y962D02*
X8Y962D01*
X1302Y962D02*
X1309Y962D01*
X1Y961D02*
X8Y961D01*
X1302Y961D02*
X1309Y961D01*
X1Y960D02*
X8Y960D01*
X1302Y960D02*
X1309Y960D01*
X1Y959D02*
X8Y959D01*
X1302Y959D02*
X1309Y959D01*
X1Y958D02*
X8Y958D01*
X1302Y958D02*
X1309Y958D01*
X1Y957D02*
X8Y957D01*
X1302Y957D02*
X1309Y957D01*
X1Y956D02*
X8Y956D01*
X1302Y956D02*
X1309Y956D01*
X1Y955D02*
X8Y955D01*
X1302Y955D02*
X1309Y955D01*
X1Y954D02*
X8Y954D01*
X1302Y954D02*
X1309Y954D01*
X1Y953D02*
X8Y953D01*
X1302Y953D02*
X1309Y953D01*
X1Y952D02*
X8Y952D01*
X1302Y952D02*
X1309Y952D01*
X1Y951D02*
X8Y951D01*
X1302Y951D02*
X1309Y951D01*
X1Y950D02*
X8Y950D01*
X1302Y950D02*
X1309Y950D01*
X1Y949D02*
X8Y949D01*
X1302Y949D02*
X1309Y949D01*
X1Y948D02*
X8Y948D01*
X1302Y948D02*
X1309Y948D01*
X1Y947D02*
X8Y947D01*
X1302Y947D02*
X1309Y947D01*
X1Y946D02*
X8Y946D01*
X1302Y946D02*
X1309Y946D01*
X1Y945D02*
X8Y945D01*
X1302Y945D02*
X1309Y945D01*
X1Y944D02*
X8Y944D01*
X1302Y944D02*
X1309Y944D01*
X1Y943D02*
X8Y943D01*
X1302Y943D02*
X1309Y943D01*
X1Y942D02*
X8Y942D01*
X1302Y942D02*
X1309Y942D01*
X1Y941D02*
X8Y941D01*
X1302Y941D02*
X1309Y941D01*
X1Y940D02*
X8Y940D01*
X1302Y940D02*
X1309Y940D01*
X1Y939D02*
X8Y939D01*
X1302Y939D02*
X1309Y939D01*
X1Y938D02*
X8Y938D01*
X1302Y938D02*
X1309Y938D01*
X1Y937D02*
X8Y937D01*
X356Y937D02*
X376Y937D01*
X403Y937D02*
X420Y937D01*
X444Y937D02*
X463Y937D01*
X487Y937D02*
X507Y937D01*
X1302Y937D02*
X1309Y937D01*
X1Y936D02*
X8Y936D01*
X354Y936D02*
X379Y936D01*
X400Y936D02*
X423Y936D01*
X441Y936D02*
X466Y936D01*
X485Y936D02*
X510Y936D01*
X584Y936D02*
X587Y936D01*
X637Y936D02*
X640Y936D01*
X659Y936D02*
X662Y936D01*
X683Y936D02*
X686Y936D01*
X1302Y936D02*
X1309Y936D01*
X1Y935D02*
X8Y935D01*
X353Y935D02*
X381Y935D01*
X398Y935D02*
X424Y935D01*
X441Y935D02*
X468Y935D01*
X484Y935D02*
X511Y935D01*
X583Y935D02*
X588Y935D01*
X636Y935D02*
X641Y935D01*
X658Y935D02*
X663Y935D01*
X683Y935D02*
X687Y935D01*
X1302Y935D02*
X1309Y935D01*
X1Y934D02*
X8Y934D01*
X312Y934D02*
X323Y934D01*
X353Y934D02*
X381Y934D01*
X398Y934D02*
X425Y934D01*
X440Y934D02*
X468Y934D01*
X484Y934D02*
X512Y934D01*
X583Y934D02*
X588Y934D01*
X636Y934D02*
X641Y934D01*
X658Y934D02*
X663Y934D01*
X682Y934D02*
X687Y934D01*
X1302Y934D02*
X1309Y934D01*
X1Y933D02*
X8Y933D01*
X309Y933D02*
X326Y933D01*
X353Y933D02*
X382Y933D01*
X397Y933D02*
X425Y933D01*
X441Y933D02*
X469Y933D01*
X484Y933D02*
X513Y933D01*
X583Y933D02*
X589Y933D01*
X636Y933D02*
X641Y933D01*
X658Y933D02*
X663Y933D01*
X682Y933D02*
X687Y933D01*
X1302Y933D02*
X1309Y933D01*
X1Y932D02*
X8Y932D01*
X307Y932D02*
X328Y932D01*
X354Y932D02*
X382Y932D01*
X397Y932D02*
X426Y932D01*
X441Y932D02*
X469Y932D01*
X485Y932D02*
X513Y932D01*
X582Y932D02*
X589Y932D01*
X636Y932D02*
X641Y932D01*
X658Y932D02*
X663Y932D01*
X682Y932D02*
X687Y932D01*
X1302Y932D02*
X1309Y932D01*
X1Y931D02*
X8Y931D01*
X305Y931D02*
X313Y931D01*
X323Y931D02*
X330Y931D01*
X356Y931D02*
X382Y931D01*
X397Y931D02*
X426Y931D01*
X443Y931D02*
X469Y931D01*
X486Y931D02*
X513Y931D01*
X582Y931D02*
X589Y931D01*
X636Y931D02*
X641Y931D01*
X658Y931D02*
X663Y931D01*
X682Y931D02*
X687Y931D01*
X1302Y931D02*
X1309Y931D01*
X1Y930D02*
X8Y930D01*
X303Y930D02*
X309Y930D01*
X326Y930D02*
X332Y930D01*
X377Y930D02*
X382Y930D01*
X397Y930D02*
X402Y930D01*
X421Y930D02*
X426Y930D01*
X464Y930D02*
X469Y930D01*
X508Y930D02*
X513Y930D01*
X582Y930D02*
X589Y930D01*
X636Y930D02*
X641Y930D01*
X658Y930D02*
X663Y930D01*
X682Y930D02*
X687Y930D01*
X1302Y930D02*
X1309Y930D01*
X1Y929D02*
X8Y929D01*
X302Y929D02*
X307Y929D01*
X328Y929D02*
X333Y929D01*
X377Y929D02*
X382Y929D01*
X397Y929D02*
X402Y929D01*
X421Y929D02*
X426Y929D01*
X464Y929D02*
X469Y929D01*
X508Y929D02*
X513Y929D01*
X581Y929D02*
X590Y929D01*
X636Y929D02*
X641Y929D01*
X658Y929D02*
X663Y929D01*
X682Y929D02*
X687Y929D01*
X1302Y929D02*
X1309Y929D01*
X1Y928D02*
X8Y928D01*
X301Y928D02*
X305Y928D01*
X330Y928D02*
X334Y928D01*
X377Y928D02*
X382Y928D01*
X397Y928D02*
X402Y928D01*
X421Y928D02*
X426Y928D01*
X464Y928D02*
X469Y928D01*
X508Y928D02*
X513Y928D01*
X581Y928D02*
X590Y928D01*
X636Y928D02*
X641Y928D01*
X658Y928D02*
X663Y928D01*
X682Y928D02*
X687Y928D01*
X1302Y928D02*
X1309Y928D01*
X1Y927D02*
X8Y927D01*
X300Y927D02*
X304Y927D01*
X331Y927D02*
X335Y927D01*
X377Y927D02*
X382Y927D01*
X397Y927D02*
X402Y927D01*
X421Y927D02*
X426Y927D01*
X464Y927D02*
X469Y927D01*
X508Y927D02*
X513Y927D01*
X581Y927D02*
X590Y927D01*
X636Y927D02*
X641Y927D01*
X658Y927D02*
X663Y927D01*
X682Y927D02*
X687Y927D01*
X1302Y927D02*
X1309Y927D01*
X1Y926D02*
X8Y926D01*
X299Y926D02*
X303Y926D01*
X332Y926D02*
X336Y926D01*
X377Y926D02*
X382Y926D01*
X397Y926D02*
X402Y926D01*
X421Y926D02*
X426Y926D01*
X464Y926D02*
X469Y926D01*
X508Y926D02*
X513Y926D01*
X581Y926D02*
X591Y926D01*
X636Y926D02*
X641Y926D01*
X658Y926D02*
X663Y926D01*
X682Y926D02*
X687Y926D01*
X1302Y926D02*
X1309Y926D01*
X1Y925D02*
X8Y925D01*
X298Y925D02*
X302Y925D01*
X334Y925D02*
X337Y925D01*
X377Y925D02*
X382Y925D01*
X397Y925D02*
X402Y925D01*
X421Y925D02*
X426Y925D01*
X464Y925D02*
X469Y925D01*
X508Y925D02*
X513Y925D01*
X580Y925D02*
X591Y925D01*
X636Y925D02*
X641Y925D01*
X658Y925D02*
X663Y925D01*
X682Y925D02*
X687Y925D01*
X1302Y925D02*
X1309Y925D01*
X1Y924D02*
X8Y924D01*
X297Y924D02*
X301Y924D01*
X335Y924D02*
X338Y924D01*
X377Y924D02*
X382Y924D01*
X397Y924D02*
X402Y924D01*
X421Y924D02*
X426Y924D01*
X464Y924D02*
X469Y924D01*
X508Y924D02*
X513Y924D01*
X580Y924D02*
X591Y924D01*
X636Y924D02*
X641Y924D01*
X658Y924D02*
X663Y924D01*
X682Y924D02*
X687Y924D01*
X1302Y924D02*
X1309Y924D01*
X1Y923D02*
X8Y923D01*
X297Y923D02*
X300Y923D01*
X315Y923D02*
X322Y923D01*
X335Y923D02*
X339Y923D01*
X377Y923D02*
X382Y923D01*
X397Y923D02*
X402Y923D01*
X421Y923D02*
X426Y923D01*
X464Y923D02*
X469Y923D01*
X508Y923D02*
X513Y923D01*
X580Y923D02*
X592Y923D01*
X636Y923D02*
X641Y923D01*
X658Y923D02*
X663Y923D01*
X682Y923D02*
X687Y923D01*
X1302Y923D02*
X1309Y923D01*
X1Y922D02*
X8Y922D01*
X296Y922D02*
X299Y922D01*
X312Y922D02*
X325Y922D01*
X336Y922D02*
X339Y922D01*
X377Y922D02*
X382Y922D01*
X397Y922D02*
X402Y922D01*
X421Y922D02*
X426Y922D01*
X464Y922D02*
X469Y922D01*
X508Y922D02*
X513Y922D01*
X579Y922D02*
X592Y922D01*
X636Y922D02*
X641Y922D01*
X658Y922D02*
X663Y922D01*
X682Y922D02*
X687Y922D01*
X1302Y922D02*
X1309Y922D01*
X1Y921D02*
X8Y921D01*
X296Y921D02*
X298Y921D01*
X311Y921D02*
X327Y921D01*
X337Y921D02*
X340Y921D01*
X377Y921D02*
X382Y921D01*
X397Y921D02*
X402Y921D01*
X421Y921D02*
X426Y921D01*
X464Y921D02*
X469Y921D01*
X508Y921D02*
X513Y921D01*
X579Y921D02*
X585Y921D01*
X587Y921D02*
X592Y921D01*
X636Y921D02*
X641Y921D01*
X658Y921D02*
X663Y921D01*
X682Y921D02*
X687Y921D01*
X1302Y921D02*
X1309Y921D01*
X1Y920D02*
X8Y920D01*
X295Y920D02*
X298Y920D01*
X310Y920D02*
X327Y920D01*
X337Y920D02*
X340Y920D01*
X377Y920D02*
X382Y920D01*
X397Y920D02*
X402Y920D01*
X421Y920D02*
X426Y920D01*
X464Y920D02*
X469Y920D01*
X508Y920D02*
X513Y920D01*
X579Y920D02*
X584Y920D01*
X587Y920D02*
X592Y920D01*
X636Y920D02*
X641Y920D01*
X658Y920D02*
X663Y920D01*
X682Y920D02*
X687Y920D01*
X1302Y920D02*
X1309Y920D01*
X1Y919D02*
X8Y919D01*
X294Y919D02*
X297Y919D01*
X309Y919D02*
X316Y919D01*
X321Y919D02*
X327Y919D01*
X338Y919D02*
X341Y919D01*
X377Y919D02*
X382Y919D01*
X397Y919D02*
X402Y919D01*
X421Y919D02*
X426Y919D01*
X464Y919D02*
X469Y919D01*
X508Y919D02*
X513Y919D01*
X579Y919D02*
X584Y919D01*
X587Y919D02*
X593Y919D01*
X636Y919D02*
X641Y919D01*
X658Y919D02*
X663Y919D01*
X682Y919D02*
X687Y919D01*
X1302Y919D02*
X1309Y919D01*
X1Y918D02*
X8Y918D01*
X294Y918D02*
X297Y918D01*
X308Y918D02*
X314Y918D01*
X324Y918D02*
X327Y918D01*
X339Y918D02*
X341Y918D01*
X377Y918D02*
X382Y918D01*
X397Y918D02*
X402Y918D01*
X421Y918D02*
X426Y918D01*
X464Y918D02*
X469Y918D01*
X507Y918D02*
X513Y918D01*
X578Y918D02*
X584Y918D01*
X588Y918D02*
X593Y918D01*
X636Y918D02*
X641Y918D01*
X658Y918D02*
X663Y918D01*
X682Y918D02*
X687Y918D01*
X1302Y918D02*
X1309Y918D01*
X1Y917D02*
X8Y917D01*
X294Y917D02*
X296Y917D01*
X307Y917D02*
X313Y917D01*
X326Y917D02*
X327Y917D01*
X339Y917D02*
X342Y917D01*
X377Y917D02*
X382Y917D01*
X397Y917D02*
X402Y917D01*
X421Y917D02*
X426Y917D01*
X464Y917D02*
X469Y917D01*
X506Y917D02*
X513Y917D01*
X578Y917D02*
X583Y917D01*
X588Y917D02*
X593Y917D01*
X636Y917D02*
X641Y917D01*
X658Y917D02*
X663Y917D01*
X682Y917D02*
X687Y917D01*
X1302Y917D02*
X1309Y917D01*
X1Y916D02*
X8Y916D01*
X293Y916D02*
X296Y916D01*
X307Y916D02*
X312Y916D01*
X339Y916D02*
X342Y916D01*
X357Y916D02*
X382Y916D01*
X397Y916D02*
X402Y916D01*
X421Y916D02*
X426Y916D01*
X444Y916D02*
X469Y916D01*
X491Y916D02*
X512Y916D01*
X578Y916D02*
X583Y916D01*
X588Y916D02*
X594Y916D01*
X636Y916D02*
X641Y916D01*
X658Y916D02*
X687Y916D01*
X1302Y916D02*
X1309Y916D01*
X1Y915D02*
X8Y915D01*
X293Y915D02*
X296Y915D01*
X307Y915D02*
X311Y915D01*
X339Y915D02*
X342Y915D01*
X356Y915D02*
X382Y915D01*
X397Y915D02*
X402Y915D01*
X421Y915D02*
X426Y915D01*
X443Y915D02*
X469Y915D01*
X490Y915D02*
X512Y915D01*
X577Y915D02*
X583Y915D01*
X588Y915D02*
X594Y915D01*
X636Y915D02*
X641Y915D01*
X658Y915D02*
X687Y915D01*
X1302Y915D02*
X1309Y915D01*
X1Y914D02*
X8Y914D01*
X293Y914D02*
X296Y914D01*
X306Y914D02*
X311Y914D01*
X340Y914D02*
X342Y914D01*
X355Y914D02*
X382Y914D01*
X397Y914D02*
X402Y914D01*
X421Y914D02*
X426Y914D01*
X442Y914D02*
X469Y914D01*
X490Y914D02*
X511Y914D01*
X577Y914D02*
X582Y914D01*
X589Y914D02*
X594Y914D01*
X636Y914D02*
X641Y914D01*
X658Y914D02*
X687Y914D01*
X1302Y914D02*
X1309Y914D01*
X1Y913D02*
X8Y913D01*
X293Y913D02*
X295Y913D01*
X306Y913D02*
X311Y913D01*
X340Y913D02*
X342Y913D01*
X354Y913D02*
X381Y913D01*
X397Y913D02*
X402Y913D01*
X421Y913D02*
X426Y913D01*
X441Y913D02*
X468Y913D01*
X490Y913D02*
X511Y913D01*
X577Y913D02*
X582Y913D01*
X589Y913D02*
X594Y913D01*
X636Y913D02*
X641Y913D01*
X658Y913D02*
X687Y913D01*
X1302Y913D02*
X1309Y913D01*
X1Y912D02*
X8Y912D01*
X293Y912D02*
X295Y912D01*
X306Y912D02*
X310Y912D01*
X340Y912D02*
X343Y912D01*
X353Y912D02*
X380Y912D01*
X397Y912D02*
X402Y912D01*
X421Y912D02*
X426Y912D01*
X441Y912D02*
X467Y912D01*
X490Y912D02*
X512Y912D01*
X576Y912D02*
X582Y912D01*
X589Y912D02*
X595Y912D01*
X636Y912D02*
X641Y912D01*
X658Y912D02*
X687Y912D01*
X1302Y912D02*
X1309Y912D01*
X1Y911D02*
X8Y911D01*
X293Y911D02*
X295Y911D01*
X306Y911D02*
X310Y911D01*
X340Y911D02*
X343Y911D01*
X353Y911D02*
X379Y911D01*
X397Y911D02*
X402Y911D01*
X421Y911D02*
X426Y911D01*
X440Y911D02*
X466Y911D01*
X491Y911D02*
X512Y911D01*
X576Y911D02*
X582Y911D01*
X590Y911D02*
X595Y911D01*
X619Y911D02*
X621Y911D01*
X636Y911D02*
X641Y911D01*
X658Y911D02*
X687Y911D01*
X1302Y911D02*
X1309Y911D01*
X1Y910D02*
X8Y910D01*
X293Y910D02*
X295Y910D01*
X306Y910D02*
X310Y910D01*
X340Y910D02*
X343Y910D01*
X353Y910D02*
X358Y910D01*
X397Y910D02*
X402Y910D01*
X421Y910D02*
X426Y910D01*
X440Y910D02*
X446Y910D01*
X506Y910D02*
X513Y910D01*
X576Y910D02*
X581Y910D01*
X590Y910D02*
X595Y910D01*
X618Y910D02*
X622Y910D01*
X636Y910D02*
X641Y910D01*
X658Y910D02*
X663Y910D01*
X682Y910D02*
X687Y910D01*
X1302Y910D02*
X1309Y910D01*
X1Y909D02*
X8Y909D01*
X293Y909D02*
X295Y909D01*
X306Y909D02*
X310Y909D01*
X340Y909D02*
X343Y909D01*
X353Y909D02*
X358Y909D01*
X397Y909D02*
X402Y909D01*
X421Y909D02*
X426Y909D01*
X440Y909D02*
X445Y909D01*
X507Y909D02*
X513Y909D01*
X576Y909D02*
X581Y909D01*
X590Y909D02*
X596Y909D01*
X618Y909D02*
X623Y909D01*
X636Y909D02*
X641Y909D01*
X658Y909D02*
X663Y909D01*
X682Y909D02*
X687Y909D01*
X1302Y909D02*
X1309Y909D01*
X1Y908D02*
X8Y908D01*
X293Y908D02*
X295Y908D01*
X306Y908D02*
X310Y908D01*
X340Y908D02*
X343Y908D01*
X353Y908D02*
X358Y908D01*
X397Y908D02*
X402Y908D01*
X421Y908D02*
X426Y908D01*
X440Y908D02*
X445Y908D01*
X508Y908D02*
X513Y908D01*
X575Y908D02*
X581Y908D01*
X591Y908D02*
X596Y908D01*
X618Y908D02*
X623Y908D01*
X636Y908D02*
X641Y908D01*
X658Y908D02*
X663Y908D01*
X682Y908D02*
X687Y908D01*
X1302Y908D02*
X1309Y908D01*
X1Y907D02*
X8Y907D01*
X293Y907D02*
X295Y907D01*
X306Y907D02*
X310Y907D01*
X340Y907D02*
X343Y907D01*
X353Y907D02*
X358Y907D01*
X397Y907D02*
X402Y907D01*
X421Y907D02*
X426Y907D01*
X440Y907D02*
X445Y907D01*
X508Y907D02*
X513Y907D01*
X575Y907D02*
X580Y907D01*
X591Y907D02*
X596Y907D01*
X618Y907D02*
X623Y907D01*
X636Y907D02*
X641Y907D01*
X658Y907D02*
X663Y907D01*
X682Y907D02*
X687Y907D01*
X1302Y907D02*
X1309Y907D01*
X1Y906D02*
X8Y906D01*
X293Y906D02*
X295Y906D01*
X306Y906D02*
X311Y906D01*
X340Y906D02*
X343Y906D01*
X353Y906D02*
X358Y906D01*
X397Y906D02*
X402Y906D01*
X421Y906D02*
X426Y906D01*
X440Y906D02*
X445Y906D01*
X508Y906D02*
X513Y906D01*
X575Y906D02*
X596Y906D01*
X618Y906D02*
X623Y906D01*
X636Y906D02*
X641Y906D01*
X658Y906D02*
X663Y906D01*
X682Y906D02*
X687Y906D01*
X1302Y906D02*
X1309Y906D01*
X1Y905D02*
X8Y905D01*
X293Y905D02*
X295Y905D01*
X306Y905D02*
X311Y905D01*
X340Y905D02*
X342Y905D01*
X353Y905D02*
X358Y905D01*
X397Y905D02*
X402Y905D01*
X421Y905D02*
X426Y905D01*
X440Y905D02*
X445Y905D01*
X508Y905D02*
X513Y905D01*
X574Y905D02*
X597Y905D01*
X618Y905D02*
X623Y905D01*
X636Y905D02*
X641Y905D01*
X658Y905D02*
X663Y905D01*
X682Y905D02*
X687Y905D01*
X1302Y905D02*
X1309Y905D01*
X1Y904D02*
X8Y904D01*
X293Y904D02*
X296Y904D01*
X306Y904D02*
X311Y904D01*
X340Y904D02*
X342Y904D01*
X353Y904D02*
X358Y904D01*
X397Y904D02*
X402Y904D01*
X421Y904D02*
X426Y904D01*
X440Y904D02*
X445Y904D01*
X508Y904D02*
X513Y904D01*
X574Y904D02*
X597Y904D01*
X618Y904D02*
X623Y904D01*
X636Y904D02*
X641Y904D01*
X658Y904D02*
X663Y904D01*
X682Y904D02*
X687Y904D01*
X1302Y904D02*
X1309Y904D01*
X1Y903D02*
X8Y903D01*
X293Y903D02*
X296Y903D01*
X307Y903D02*
X312Y903D01*
X339Y903D02*
X342Y903D01*
X353Y903D02*
X358Y903D01*
X397Y903D02*
X402Y903D01*
X421Y903D02*
X426Y903D01*
X440Y903D02*
X445Y903D01*
X508Y903D02*
X513Y903D01*
X574Y903D02*
X597Y903D01*
X618Y903D02*
X623Y903D01*
X636Y903D02*
X641Y903D01*
X658Y903D02*
X663Y903D01*
X682Y903D02*
X687Y903D01*
X1302Y903D02*
X1309Y903D01*
X1Y902D02*
X8Y902D01*
X294Y902D02*
X296Y902D01*
X307Y902D02*
X312Y902D01*
X326Y902D02*
X327Y902D01*
X339Y902D02*
X342Y902D01*
X353Y902D02*
X358Y902D01*
X397Y902D02*
X402Y902D01*
X421Y902D02*
X426Y902D01*
X440Y902D02*
X445Y902D01*
X508Y902D02*
X513Y902D01*
X574Y902D02*
X598Y902D01*
X618Y902D02*
X623Y902D01*
X636Y902D02*
X641Y902D01*
X658Y902D02*
X663Y902D01*
X682Y902D02*
X687Y902D01*
X1302Y902D02*
X1309Y902D01*
X1Y901D02*
X8Y901D01*
X294Y901D02*
X297Y901D01*
X308Y901D02*
X313Y901D01*
X325Y901D02*
X327Y901D01*
X339Y901D02*
X341Y901D01*
X353Y901D02*
X358Y901D01*
X397Y901D02*
X402Y901D01*
X421Y901D02*
X426Y901D01*
X440Y901D02*
X445Y901D01*
X508Y901D02*
X513Y901D01*
X573Y901D02*
X598Y901D01*
X618Y901D02*
X623Y901D01*
X636Y901D02*
X641Y901D01*
X658Y901D02*
X663Y901D01*
X682Y901D02*
X687Y901D01*
X1302Y901D02*
X1309Y901D01*
X1Y900D02*
X8Y900D01*
X294Y900D02*
X297Y900D01*
X308Y900D02*
X315Y900D01*
X322Y900D02*
X327Y900D01*
X338Y900D02*
X341Y900D01*
X353Y900D02*
X358Y900D01*
X397Y900D02*
X402Y900D01*
X421Y900D02*
X426Y900D01*
X440Y900D02*
X445Y900D01*
X508Y900D02*
X513Y900D01*
X573Y900D02*
X579Y900D01*
X593Y900D02*
X598Y900D01*
X618Y900D02*
X623Y900D01*
X636Y900D02*
X641Y900D01*
X658Y900D02*
X663Y900D01*
X682Y900D02*
X687Y900D01*
X1302Y900D02*
X1309Y900D01*
X1Y899D02*
X8Y899D01*
X295Y899D02*
X297Y899D01*
X309Y899D02*
X327Y899D01*
X338Y899D02*
X341Y899D01*
X353Y899D02*
X358Y899D01*
X397Y899D02*
X402Y899D01*
X421Y899D02*
X426Y899D01*
X440Y899D02*
X445Y899D01*
X508Y899D02*
X513Y899D01*
X573Y899D02*
X578Y899D01*
X593Y899D02*
X598Y899D01*
X618Y899D02*
X623Y899D01*
X636Y899D02*
X641Y899D01*
X658Y899D02*
X663Y899D01*
X682Y899D02*
X687Y899D01*
X1302Y899D02*
X1309Y899D01*
X1Y898D02*
X8Y898D01*
X295Y898D02*
X298Y898D01*
X310Y898D02*
X327Y898D01*
X337Y898D02*
X340Y898D01*
X353Y898D02*
X358Y898D01*
X397Y898D02*
X402Y898D01*
X421Y898D02*
X426Y898D01*
X440Y898D02*
X445Y898D01*
X508Y898D02*
X513Y898D01*
X572Y898D02*
X578Y898D01*
X593Y898D02*
X599Y898D01*
X618Y898D02*
X623Y898D01*
X635Y898D02*
X641Y898D01*
X658Y898D02*
X663Y898D01*
X682Y898D02*
X687Y898D01*
X1302Y898D02*
X1309Y898D01*
X1Y897D02*
X8Y897D01*
X296Y897D02*
X299Y897D01*
X312Y897D02*
X326Y897D01*
X337Y897D02*
X340Y897D01*
X353Y897D02*
X358Y897D01*
X397Y897D02*
X402Y897D01*
X421Y897D02*
X426Y897D01*
X440Y897D02*
X445Y897D01*
X508Y897D02*
X513Y897D01*
X572Y897D02*
X577Y897D01*
X594Y897D02*
X599Y897D01*
X618Y897D02*
X624Y897D01*
X635Y897D02*
X641Y897D01*
X658Y897D02*
X663Y897D01*
X682Y897D02*
X687Y897D01*
X1302Y897D02*
X1309Y897D01*
X1Y896D02*
X8Y896D01*
X296Y896D02*
X299Y896D01*
X314Y896D02*
X323Y896D01*
X336Y896D02*
X339Y896D01*
X353Y896D02*
X359Y896D01*
X397Y896D02*
X402Y896D01*
X420Y896D02*
X426Y896D01*
X440Y896D02*
X446Y896D01*
X508Y896D02*
X513Y896D01*
X572Y896D02*
X577Y896D01*
X594Y896D02*
X599Y896D01*
X618Y896D02*
X625Y896D01*
X633Y896D02*
X640Y896D01*
X658Y896D02*
X663Y896D01*
X682Y896D02*
X687Y896D01*
X1302Y896D02*
X1309Y896D01*
X1Y895D02*
X8Y895D01*
X297Y895D02*
X300Y895D01*
X335Y895D02*
X338Y895D01*
X353Y895D02*
X381Y895D01*
X397Y895D02*
X426Y895D01*
X440Y895D02*
X468Y895D01*
X485Y895D02*
X513Y895D01*
X572Y895D02*
X577Y895D01*
X594Y895D02*
X600Y895D01*
X619Y895D02*
X640Y895D01*
X658Y895D02*
X663Y895D01*
X682Y895D02*
X687Y895D01*
X1302Y895D02*
X1309Y895D01*
X1Y894D02*
X8Y894D01*
X298Y894D02*
X301Y894D01*
X334Y894D02*
X338Y894D01*
X353Y894D02*
X382Y894D01*
X397Y894D02*
X426Y894D01*
X440Y894D02*
X469Y894D01*
X484Y894D02*
X513Y894D01*
X571Y894D02*
X577Y894D01*
X595Y894D02*
X600Y894D01*
X619Y894D02*
X639Y894D01*
X658Y894D02*
X663Y894D01*
X682Y894D02*
X687Y894D01*
X1302Y894D02*
X1309Y894D01*
X1Y893D02*
X8Y893D01*
X298Y893D02*
X302Y893D01*
X333Y893D02*
X337Y893D01*
X353Y893D02*
X382Y893D01*
X398Y893D02*
X425Y893D01*
X440Y893D02*
X469Y893D01*
X484Y893D02*
X512Y893D01*
X571Y893D02*
X576Y893D01*
X595Y893D02*
X600Y893D01*
X620Y893D02*
X639Y893D01*
X658Y893D02*
X663Y893D01*
X682Y893D02*
X687Y893D01*
X1302Y893D02*
X1309Y893D01*
X1Y892D02*
X8Y892D01*
X299Y892D02*
X303Y892D01*
X332Y892D02*
X336Y892D01*
X353Y892D02*
X382Y892D01*
X398Y892D02*
X424Y892D01*
X440Y892D02*
X469Y892D01*
X484Y892D02*
X511Y892D01*
X571Y892D02*
X576Y892D01*
X595Y892D02*
X600Y892D01*
X621Y892D02*
X638Y892D01*
X658Y892D02*
X663Y892D01*
X682Y892D02*
X687Y892D01*
X1302Y892D02*
X1309Y892D01*
X1Y891D02*
X8Y891D01*
X300Y891D02*
X304Y891D01*
X331Y891D02*
X335Y891D01*
X353Y891D02*
X382Y891D01*
X399Y891D02*
X423Y891D01*
X440Y891D02*
X469Y891D01*
X485Y891D02*
X510Y891D01*
X572Y891D02*
X575Y891D01*
X596Y891D02*
X600Y891D01*
X622Y891D02*
X636Y891D01*
X659Y891D02*
X663Y891D01*
X683Y891D02*
X687Y891D01*
X1302Y891D02*
X1309Y891D01*
X1Y890D02*
X8Y890D01*
X301Y890D02*
X306Y890D01*
X329Y890D02*
X334Y890D01*
X353Y890D02*
X380Y890D01*
X401Y890D02*
X421Y890D01*
X441Y890D02*
X467Y890D01*
X486Y890D02*
X508Y890D01*
X573Y890D02*
X574Y890D01*
X597Y890D02*
X598Y890D01*
X625Y890D02*
X634Y890D01*
X660Y890D02*
X661Y890D01*
X684Y890D02*
X685Y890D01*
X1302Y890D02*
X1309Y890D01*
X1Y889D02*
X8Y889D01*
X303Y889D02*
X308Y889D01*
X328Y889D02*
X333Y889D01*
X1302Y889D02*
X1309Y889D01*
X1Y888D02*
X8Y888D01*
X304Y888D02*
X310Y888D01*
X325Y888D02*
X332Y888D01*
X1302Y888D02*
X1309Y888D01*
X1Y887D02*
X8Y887D01*
X305Y887D02*
X314Y887D01*
X321Y887D02*
X330Y887D01*
X1302Y887D02*
X1309Y887D01*
X1Y886D02*
X8Y886D01*
X307Y886D02*
X328Y886D01*
X1302Y886D02*
X1309Y886D01*
X1Y885D02*
X8Y885D01*
X310Y885D02*
X326Y885D01*
X1302Y885D02*
X1309Y885D01*
X1Y884D02*
X8Y884D01*
X313Y884D02*
X322Y884D01*
X1302Y884D02*
X1309Y884D01*
X1Y883D02*
X8Y883D01*
X1302Y883D02*
X1309Y883D01*
X1Y882D02*
X8Y882D01*
X1302Y882D02*
X1309Y882D01*
X1Y881D02*
X8Y881D01*
X1302Y881D02*
X1309Y881D01*
X1Y880D02*
X8Y880D01*
X1302Y880D02*
X1309Y880D01*
X1Y879D02*
X8Y879D01*
X1302Y879D02*
X1309Y879D01*
X1Y878D02*
X8Y878D01*
X1302Y878D02*
X1309Y878D01*
X1Y877D02*
X8Y877D01*
X1302Y877D02*
X1309Y877D01*
X1Y876D02*
X8Y876D01*
X1302Y876D02*
X1309Y876D01*
X1Y875D02*
X8Y875D01*
X1302Y875D02*
X1309Y875D01*
X1Y874D02*
X8Y874D01*
X1302Y874D02*
X1309Y874D01*
X1Y873D02*
X8Y873D01*
X1302Y873D02*
X1309Y873D01*
X1Y872D02*
X8Y872D01*
X1302Y872D02*
X1309Y872D01*
X1Y871D02*
X8Y871D01*
X1302Y871D02*
X1309Y871D01*
X1Y870D02*
X8Y870D01*
X1302Y870D02*
X1309Y870D01*
X1Y869D02*
X8Y869D01*
X1302Y869D02*
X1309Y869D01*
X1Y868D02*
X8Y868D01*
X1302Y868D02*
X1309Y868D01*
X1Y867D02*
X8Y867D01*
X1302Y867D02*
X1309Y867D01*
X1Y866D02*
X8Y866D01*
X1302Y866D02*
X1309Y866D01*
X1Y865D02*
X8Y865D01*
X1302Y865D02*
X1309Y865D01*
X1Y864D02*
X8Y864D01*
X1302Y864D02*
X1309Y864D01*
X1Y863D02*
X8Y863D01*
X1302Y863D02*
X1309Y863D01*
X1Y862D02*
X8Y862D01*
X1302Y862D02*
X1309Y862D01*
X1Y861D02*
X8Y861D01*
X1302Y861D02*
X1309Y861D01*
X1Y860D02*
X8Y860D01*
X1302Y860D02*
X1309Y860D01*
X1Y859D02*
X8Y859D01*
X1302Y859D02*
X1309Y859D01*
X1Y858D02*
X8Y858D01*
X1302Y858D02*
X1309Y858D01*
X1Y857D02*
X8Y857D01*
X1302Y857D02*
X1309Y857D01*
X1Y856D02*
X8Y856D01*
X1302Y856D02*
X1309Y856D01*
X1Y855D02*
X8Y855D01*
X1302Y855D02*
X1309Y855D01*
X1Y854D02*
X8Y854D01*
X1302Y854D02*
X1309Y854D01*
X1Y853D02*
X8Y853D01*
X1302Y853D02*
X1309Y853D01*
X1Y852D02*
X8Y852D01*
X1302Y852D02*
X1309Y852D01*
X1Y851D02*
X8Y851D01*
X1302Y851D02*
X1309Y851D01*
X1Y850D02*
X8Y850D01*
X1302Y850D02*
X1309Y850D01*
X1Y849D02*
X8Y849D01*
X1302Y849D02*
X1309Y849D01*
X1Y848D02*
X8Y848D01*
X1302Y848D02*
X1309Y848D01*
X1Y847D02*
X8Y847D01*
X1302Y847D02*
X1309Y847D01*
X1Y846D02*
X8Y846D01*
X1302Y846D02*
X1309Y846D01*
X1Y845D02*
X8Y845D01*
X1302Y845D02*
X1309Y845D01*
X1Y844D02*
X8Y844D01*
X862Y844D02*
X878Y844D01*
X908Y844D02*
X930Y844D01*
X949Y844D02*
X952Y844D01*
X1302Y844D02*
X1309Y844D01*
X1Y843D02*
X8Y843D01*
X861Y843D02*
X878Y843D01*
X906Y843D02*
X931Y843D01*
X948Y843D02*
X952Y843D01*
X1302Y843D02*
X1309Y843D01*
X1Y842D02*
X8Y842D01*
X861Y842D02*
X878Y842D01*
X905Y842D02*
X932Y842D01*
X948Y842D02*
X953Y842D01*
X1302Y842D02*
X1309Y842D01*
X1Y841D02*
X8Y841D01*
X861Y841D02*
X878Y841D01*
X905Y841D02*
X933Y841D01*
X948Y841D02*
X953Y841D01*
X1302Y841D02*
X1309Y841D01*
X1Y840D02*
X8Y840D01*
X861Y840D02*
X878Y840D01*
X904Y840D02*
X933Y840D01*
X948Y840D02*
X953Y840D01*
X1302Y840D02*
X1309Y840D01*
X1Y839D02*
X8Y839D01*
X862Y839D02*
X878Y839D01*
X904Y839D02*
X933Y839D01*
X948Y839D02*
X953Y839D01*
X1302Y839D02*
X1309Y839D01*
X1Y838D02*
X8Y838D01*
X872Y838D02*
X878Y838D01*
X904Y838D02*
X909Y838D01*
X928Y838D02*
X933Y838D01*
X948Y838D02*
X953Y838D01*
X1302Y838D02*
X1309Y838D01*
X1Y837D02*
X8Y837D01*
X872Y837D02*
X878Y837D01*
X904Y837D02*
X909Y837D01*
X928Y837D02*
X933Y837D01*
X948Y837D02*
X953Y837D01*
X1302Y837D02*
X1309Y837D01*
X1Y836D02*
X8Y836D01*
X872Y836D02*
X878Y836D01*
X904Y836D02*
X909Y836D01*
X928Y836D02*
X933Y836D01*
X948Y836D02*
X953Y836D01*
X1302Y836D02*
X1309Y836D01*
X1Y835D02*
X8Y835D01*
X872Y835D02*
X878Y835D01*
X904Y835D02*
X909Y835D01*
X928Y835D02*
X933Y835D01*
X948Y835D02*
X953Y835D01*
X1302Y835D02*
X1309Y835D01*
X1Y834D02*
X8Y834D01*
X872Y834D02*
X878Y834D01*
X904Y834D02*
X909Y834D01*
X928Y834D02*
X933Y834D01*
X948Y834D02*
X953Y834D01*
X1302Y834D02*
X1309Y834D01*
X1Y833D02*
X8Y833D01*
X872Y833D02*
X878Y833D01*
X904Y833D02*
X909Y833D01*
X928Y833D02*
X933Y833D01*
X948Y833D02*
X953Y833D01*
X1302Y833D02*
X1309Y833D01*
X1Y832D02*
X8Y832D01*
X872Y832D02*
X878Y832D01*
X904Y832D02*
X909Y832D01*
X928Y832D02*
X933Y832D01*
X948Y832D02*
X953Y832D01*
X1302Y832D02*
X1309Y832D01*
X1Y831D02*
X8Y831D01*
X872Y831D02*
X878Y831D01*
X904Y831D02*
X909Y831D01*
X928Y831D02*
X933Y831D01*
X948Y831D02*
X953Y831D01*
X970Y831D02*
X973Y831D01*
X1302Y831D02*
X1309Y831D01*
X1Y830D02*
X8Y830D01*
X872Y830D02*
X878Y830D01*
X904Y830D02*
X909Y830D01*
X928Y830D02*
X933Y830D01*
X948Y830D02*
X953Y830D01*
X968Y830D02*
X973Y830D01*
X1302Y830D02*
X1309Y830D01*
X1Y829D02*
X8Y829D01*
X872Y829D02*
X878Y829D01*
X904Y829D02*
X909Y829D01*
X928Y829D02*
X933Y829D01*
X948Y829D02*
X953Y829D01*
X967Y829D02*
X974Y829D01*
X1302Y829D02*
X1309Y829D01*
X1Y828D02*
X8Y828D01*
X872Y828D02*
X878Y828D01*
X904Y828D02*
X909Y828D01*
X928Y828D02*
X933Y828D01*
X948Y828D02*
X953Y828D01*
X966Y828D02*
X974Y828D01*
X1302Y828D02*
X1309Y828D01*
X1Y827D02*
X8Y827D01*
X872Y827D02*
X878Y827D01*
X904Y827D02*
X909Y827D01*
X928Y827D02*
X933Y827D01*
X948Y827D02*
X953Y827D01*
X965Y827D02*
X973Y827D01*
X1302Y827D02*
X1309Y827D01*
X1Y826D02*
X8Y826D01*
X872Y826D02*
X878Y826D01*
X904Y826D02*
X909Y826D01*
X928Y826D02*
X933Y826D01*
X948Y826D02*
X953Y826D01*
X964Y826D02*
X972Y826D01*
X1302Y826D02*
X1309Y826D01*
X1Y825D02*
X8Y825D01*
X872Y825D02*
X878Y825D01*
X904Y825D02*
X909Y825D01*
X928Y825D02*
X933Y825D01*
X948Y825D02*
X953Y825D01*
X963Y825D02*
X971Y825D01*
X1302Y825D02*
X1309Y825D01*
X1Y824D02*
X8Y824D01*
X872Y824D02*
X878Y824D01*
X904Y824D02*
X909Y824D01*
X928Y824D02*
X933Y824D01*
X948Y824D02*
X953Y824D01*
X961Y824D02*
X970Y824D01*
X1302Y824D02*
X1309Y824D01*
X1Y823D02*
X8Y823D01*
X872Y823D02*
X878Y823D01*
X904Y823D02*
X909Y823D01*
X928Y823D02*
X933Y823D01*
X948Y823D02*
X953Y823D01*
X960Y823D02*
X969Y823D01*
X1302Y823D02*
X1309Y823D01*
X1Y822D02*
X8Y822D01*
X872Y822D02*
X878Y822D01*
X904Y822D02*
X909Y822D01*
X928Y822D02*
X933Y822D01*
X948Y822D02*
X953Y822D01*
X959Y822D02*
X967Y822D01*
X1302Y822D02*
X1309Y822D01*
X1Y821D02*
X8Y821D01*
X872Y821D02*
X878Y821D01*
X904Y821D02*
X909Y821D01*
X928Y821D02*
X933Y821D01*
X948Y821D02*
X953Y821D01*
X958Y821D02*
X966Y821D01*
X1302Y821D02*
X1309Y821D01*
X1Y820D02*
X8Y820D01*
X872Y820D02*
X878Y820D01*
X904Y820D02*
X909Y820D01*
X928Y820D02*
X933Y820D01*
X948Y820D02*
X953Y820D01*
X957Y820D02*
X965Y820D01*
X1302Y820D02*
X1309Y820D01*
X1Y819D02*
X8Y819D01*
X872Y819D02*
X878Y819D01*
X904Y819D02*
X909Y819D01*
X928Y819D02*
X933Y819D01*
X948Y819D02*
X953Y819D01*
X956Y819D02*
X964Y819D01*
X1302Y819D02*
X1309Y819D01*
X1Y818D02*
X8Y818D01*
X872Y818D02*
X878Y818D01*
X885Y818D02*
X889Y818D01*
X904Y818D02*
X909Y818D01*
X928Y818D02*
X933Y818D01*
X948Y818D02*
X963Y818D01*
X1302Y818D02*
X1309Y818D01*
X1Y817D02*
X8Y817D01*
X872Y817D02*
X878Y817D01*
X885Y817D02*
X889Y817D01*
X904Y817D02*
X909Y817D01*
X928Y817D02*
X933Y817D01*
X948Y817D02*
X962Y817D01*
X1302Y817D02*
X1309Y817D01*
X1Y816D02*
X8Y816D01*
X872Y816D02*
X878Y816D01*
X885Y816D02*
X890Y816D01*
X904Y816D02*
X909Y816D01*
X928Y816D02*
X933Y816D01*
X948Y816D02*
X961Y816D01*
X1302Y816D02*
X1309Y816D01*
X1Y815D02*
X8Y815D01*
X872Y815D02*
X878Y815D01*
X885Y815D02*
X890Y815D01*
X904Y815D02*
X909Y815D01*
X928Y815D02*
X933Y815D01*
X948Y815D02*
X961Y815D01*
X1302Y815D02*
X1309Y815D01*
X1Y814D02*
X8Y814D01*
X872Y814D02*
X878Y814D01*
X885Y814D02*
X890Y814D01*
X904Y814D02*
X909Y814D01*
X928Y814D02*
X933Y814D01*
X948Y814D02*
X963Y814D01*
X1302Y814D02*
X1309Y814D01*
X1Y813D02*
X8Y813D01*
X872Y813D02*
X878Y813D01*
X885Y813D02*
X890Y813D01*
X904Y813D02*
X909Y813D01*
X928Y813D02*
X933Y813D01*
X948Y813D02*
X964Y813D01*
X1302Y813D02*
X1309Y813D01*
X1Y812D02*
X8Y812D01*
X872Y812D02*
X878Y812D01*
X885Y812D02*
X890Y812D01*
X904Y812D02*
X909Y812D01*
X928Y812D02*
X933Y812D01*
X948Y812D02*
X965Y812D01*
X1302Y812D02*
X1309Y812D01*
X1Y811D02*
X8Y811D01*
X872Y811D02*
X878Y811D01*
X885Y811D02*
X890Y811D01*
X904Y811D02*
X909Y811D01*
X928Y811D02*
X933Y811D01*
X948Y811D02*
X955Y811D01*
X958Y811D02*
X966Y811D01*
X1302Y811D02*
X1309Y811D01*
X1Y810D02*
X8Y810D01*
X872Y810D02*
X878Y810D01*
X885Y810D02*
X890Y810D01*
X904Y810D02*
X909Y810D01*
X928Y810D02*
X933Y810D01*
X948Y810D02*
X953Y810D01*
X959Y810D02*
X967Y810D01*
X1302Y810D02*
X1309Y810D01*
X1Y809D02*
X8Y809D01*
X872Y809D02*
X878Y809D01*
X885Y809D02*
X890Y809D01*
X904Y809D02*
X909Y809D01*
X928Y809D02*
X933Y809D01*
X948Y809D02*
X953Y809D01*
X960Y809D02*
X968Y809D01*
X1302Y809D02*
X1309Y809D01*
X1Y808D02*
X8Y808D01*
X872Y808D02*
X878Y808D01*
X885Y808D02*
X890Y808D01*
X904Y808D02*
X909Y808D01*
X928Y808D02*
X933Y808D01*
X948Y808D02*
X953Y808D01*
X961Y808D02*
X970Y808D01*
X1302Y808D02*
X1309Y808D01*
X1Y807D02*
X8Y807D01*
X872Y807D02*
X878Y807D01*
X885Y807D02*
X890Y807D01*
X904Y807D02*
X909Y807D01*
X928Y807D02*
X933Y807D01*
X948Y807D02*
X953Y807D01*
X962Y807D02*
X971Y807D01*
X1302Y807D02*
X1309Y807D01*
X1Y806D02*
X8Y806D01*
X872Y806D02*
X878Y806D01*
X885Y806D02*
X890Y806D01*
X904Y806D02*
X909Y806D01*
X928Y806D02*
X933Y806D01*
X948Y806D02*
X953Y806D01*
X964Y806D02*
X972Y806D01*
X1302Y806D02*
X1309Y806D01*
X1Y805D02*
X8Y805D01*
X872Y805D02*
X878Y805D01*
X885Y805D02*
X890Y805D01*
X904Y805D02*
X909Y805D01*
X928Y805D02*
X933Y805D01*
X948Y805D02*
X953Y805D01*
X965Y805D02*
X973Y805D01*
X1302Y805D02*
X1309Y805D01*
X1Y804D02*
X8Y804D01*
X872Y804D02*
X878Y804D01*
X884Y804D02*
X890Y804D01*
X904Y804D02*
X909Y804D01*
X928Y804D02*
X933Y804D01*
X948Y804D02*
X953Y804D01*
X966Y804D02*
X974Y804D01*
X1302Y804D02*
X1309Y804D01*
X1Y803D02*
X8Y803D01*
X862Y803D02*
X890Y803D01*
X904Y803D02*
X933Y803D01*
X948Y803D02*
X953Y803D01*
X967Y803D02*
X975Y803D01*
X1302Y803D02*
X1309Y803D01*
X1Y802D02*
X8Y802D01*
X861Y802D02*
X890Y802D01*
X904Y802D02*
X933Y802D01*
X948Y802D02*
X953Y802D01*
X968Y802D02*
X976Y802D01*
X1302Y802D02*
X1309Y802D01*
X1Y801D02*
X8Y801D01*
X861Y801D02*
X890Y801D01*
X905Y801D02*
X933Y801D01*
X948Y801D02*
X953Y801D01*
X969Y801D02*
X977Y801D01*
X1302Y801D02*
X1309Y801D01*
X1Y800D02*
X8Y800D01*
X861Y800D02*
X890Y800D01*
X905Y800D02*
X932Y800D01*
X948Y800D02*
X953Y800D01*
X971Y800D02*
X977Y800D01*
X1302Y800D02*
X1309Y800D01*
X1Y799D02*
X8Y799D01*
X861Y799D02*
X889Y799D01*
X906Y799D02*
X931Y799D01*
X948Y799D02*
X952Y799D01*
X972Y799D02*
X976Y799D01*
X1302Y799D02*
X1309Y799D01*
X1Y798D02*
X8Y798D01*
X862Y798D02*
X888Y798D01*
X908Y798D02*
X930Y798D01*
X949Y798D02*
X951Y798D01*
X973Y798D02*
X975Y798D01*
X1302Y798D02*
X1309Y798D01*
X1Y797D02*
X8Y797D01*
X1302Y797D02*
X1309Y797D01*
X1Y796D02*
X8Y796D01*
X1302Y796D02*
X1309Y796D01*
X1Y795D02*
X8Y795D01*
X1302Y795D02*
X1309Y795D01*
X1Y794D02*
X8Y794D01*
X1302Y794D02*
X1309Y794D01*
X1Y793D02*
X8Y793D01*
X1302Y793D02*
X1309Y793D01*
X1Y792D02*
X8Y792D01*
X1302Y792D02*
X1309Y792D01*
X1Y791D02*
X8Y791D01*
X1302Y791D02*
X1309Y791D01*
X1Y790D02*
X8Y790D01*
X1302Y790D02*
X1309Y790D01*
X1Y789D02*
X8Y789D01*
X1302Y789D02*
X1309Y789D01*
X1Y788D02*
X8Y788D01*
X1302Y788D02*
X1309Y788D01*
X1Y787D02*
X8Y787D01*
X1302Y787D02*
X1309Y787D01*
X1Y786D02*
X8Y786D01*
X1302Y786D02*
X1309Y786D01*
X1Y785D02*
X8Y785D01*
X1302Y785D02*
X1309Y785D01*
X1Y784D02*
X8Y784D01*
X1302Y784D02*
X1309Y784D01*
X1Y783D02*
X8Y783D01*
X1302Y783D02*
X1309Y783D01*
X1Y782D02*
X8Y782D01*
X1302Y782D02*
X1309Y782D01*
X1Y781D02*
X8Y781D01*
X1302Y781D02*
X1309Y781D01*
X1Y780D02*
X8Y780D01*
X1302Y780D02*
X1309Y780D01*
X1Y779D02*
X8Y779D01*
X1302Y779D02*
X1309Y779D01*
X1Y778D02*
X8Y778D01*
X1302Y778D02*
X1309Y778D01*
X1Y777D02*
X8Y777D01*
X1302Y777D02*
X1309Y777D01*
X1Y776D02*
X8Y776D01*
X1302Y776D02*
X1309Y776D01*
X1Y775D02*
X8Y775D01*
X1302Y775D02*
X1309Y775D01*
X1Y774D02*
X8Y774D01*
X1302Y774D02*
X1309Y774D01*
X1Y773D02*
X8Y773D01*
X1302Y773D02*
X1309Y773D01*
X1Y772D02*
X8Y772D01*
X1302Y772D02*
X1309Y772D01*
X1Y771D02*
X8Y771D01*
X1302Y771D02*
X1309Y771D01*
X1Y770D02*
X8Y770D01*
X1302Y770D02*
X1309Y770D01*
X1Y769D02*
X8Y769D01*
X1302Y769D02*
X1309Y769D01*
X1Y768D02*
X8Y768D01*
X1302Y768D02*
X1309Y768D01*
X1Y767D02*
X8Y767D01*
X1302Y767D02*
X1309Y767D01*
X1Y766D02*
X8Y766D01*
X1302Y766D02*
X1309Y766D01*
X1Y765D02*
X8Y765D01*
X1302Y765D02*
X1309Y765D01*
X1Y764D02*
X8Y764D01*
X1302Y764D02*
X1309Y764D01*
X1Y763D02*
X8Y763D01*
X1302Y763D02*
X1309Y763D01*
X1Y762D02*
X8Y762D01*
X1302Y762D02*
X1309Y762D01*
X1Y761D02*
X8Y761D01*
X1302Y761D02*
X1309Y761D01*
X1Y760D02*
X8Y760D01*
X1302Y760D02*
X1309Y760D01*
X1Y759D02*
X8Y759D01*
X1302Y759D02*
X1309Y759D01*
X1Y758D02*
X8Y758D01*
X1302Y758D02*
X1309Y758D01*
X1Y757D02*
X8Y757D01*
X1302Y757D02*
X1309Y757D01*
X1Y756D02*
X8Y756D01*
X1302Y756D02*
X1309Y756D01*
X1Y755D02*
X8Y755D01*
X1302Y755D02*
X1309Y755D01*
X1Y754D02*
X8Y754D01*
X1302Y754D02*
X1309Y754D01*
X1Y753D02*
X8Y753D01*
X1302Y753D02*
X1309Y753D01*
X1Y752D02*
X8Y752D01*
X1302Y752D02*
X1309Y752D01*
X1Y751D02*
X8Y751D01*
X610Y751D02*
X610Y751D01*
X800Y751D02*
X800Y751D01*
X1302Y751D02*
X1309Y751D01*
X1Y750D02*
X8Y750D01*
X601Y750D02*
X610Y750D01*
X800Y750D02*
X809Y750D01*
X1302Y750D02*
X1309Y750D01*
X1Y749D02*
X8Y749D01*
X601Y749D02*
X610Y749D01*
X800Y749D02*
X809Y749D01*
X1302Y749D02*
X1309Y749D01*
X1Y748D02*
X8Y748D01*
X601Y748D02*
X610Y748D01*
X800Y748D02*
X809Y748D01*
X1302Y748D02*
X1309Y748D01*
X1Y747D02*
X8Y747D01*
X601Y747D02*
X610Y747D01*
X800Y747D02*
X809Y747D01*
X1302Y747D02*
X1309Y747D01*
X1Y746D02*
X8Y746D01*
X601Y746D02*
X610Y746D01*
X800Y746D02*
X809Y746D01*
X1302Y746D02*
X1309Y746D01*
X1Y745D02*
X8Y745D01*
X601Y745D02*
X610Y745D01*
X800Y745D02*
X809Y745D01*
X1302Y745D02*
X1309Y745D01*
X1Y744D02*
X8Y744D01*
X601Y744D02*
X610Y744D01*
X800Y744D02*
X809Y744D01*
X1302Y744D02*
X1309Y744D01*
X1Y743D02*
X8Y743D01*
X601Y743D02*
X610Y743D01*
X800Y743D02*
X809Y743D01*
X1302Y743D02*
X1309Y743D01*
X1Y742D02*
X8Y742D01*
X601Y742D02*
X610Y742D01*
X800Y742D02*
X809Y742D01*
X1302Y742D02*
X1309Y742D01*
X1Y741D02*
X8Y741D01*
X601Y741D02*
X610Y741D01*
X800Y741D02*
X809Y741D01*
X1302Y741D02*
X1309Y741D01*
X1Y740D02*
X8Y740D01*
X601Y740D02*
X610Y740D01*
X800Y740D02*
X809Y740D01*
X1302Y740D02*
X1309Y740D01*
X1Y739D02*
X8Y739D01*
X601Y739D02*
X610Y739D01*
X800Y739D02*
X809Y739D01*
X1302Y739D02*
X1309Y739D01*
X1Y738D02*
X8Y738D01*
X601Y738D02*
X610Y738D01*
X800Y738D02*
X809Y738D01*
X1302Y738D02*
X1309Y738D01*
X1Y737D02*
X8Y737D01*
X601Y737D02*
X610Y737D01*
X800Y737D02*
X809Y737D01*
X1302Y737D02*
X1309Y737D01*
X1Y736D02*
X8Y736D01*
X601Y736D02*
X610Y736D01*
X800Y736D02*
X809Y736D01*
X1302Y736D02*
X1309Y736D01*
X1Y735D02*
X8Y735D01*
X601Y735D02*
X610Y735D01*
X800Y735D02*
X809Y735D01*
X1302Y735D02*
X1309Y735D01*
X1Y734D02*
X8Y734D01*
X601Y734D02*
X610Y734D01*
X800Y734D02*
X809Y734D01*
X1302Y734D02*
X1309Y734D01*
X1Y733D02*
X8Y733D01*
X601Y733D02*
X610Y733D01*
X800Y733D02*
X809Y733D01*
X1302Y733D02*
X1309Y733D01*
X1Y732D02*
X8Y732D01*
X601Y732D02*
X610Y732D01*
X800Y732D02*
X809Y732D01*
X1302Y732D02*
X1309Y732D01*
X1Y731D02*
X8Y731D01*
X601Y731D02*
X610Y731D01*
X800Y731D02*
X809Y731D01*
X1302Y731D02*
X1309Y731D01*
X1Y730D02*
X8Y730D01*
X601Y730D02*
X610Y730D01*
X800Y730D02*
X809Y730D01*
X1302Y730D02*
X1309Y730D01*
X1Y729D02*
X8Y729D01*
X601Y729D02*
X610Y729D01*
X800Y729D02*
X809Y729D01*
X1302Y729D02*
X1309Y729D01*
X1Y728D02*
X8Y728D01*
X601Y728D02*
X610Y728D01*
X800Y728D02*
X809Y728D01*
X1302Y728D02*
X1309Y728D01*
X1Y727D02*
X8Y727D01*
X601Y727D02*
X610Y727D01*
X800Y727D02*
X809Y727D01*
X1302Y727D02*
X1309Y727D01*
X1Y726D02*
X8Y726D01*
X601Y726D02*
X610Y726D01*
X800Y726D02*
X809Y726D01*
X1302Y726D02*
X1309Y726D01*
X1Y725D02*
X8Y725D01*
X601Y725D02*
X610Y725D01*
X800Y725D02*
X809Y725D01*
X1302Y725D02*
X1309Y725D01*
X1Y724D02*
X8Y724D01*
X601Y724D02*
X610Y724D01*
X800Y724D02*
X809Y724D01*
X1302Y724D02*
X1309Y724D01*
X1Y723D02*
X8Y723D01*
X601Y723D02*
X610Y723D01*
X800Y723D02*
X809Y723D01*
X1302Y723D02*
X1309Y723D01*
X1Y722D02*
X8Y722D01*
X601Y722D02*
X610Y722D01*
X651Y722D02*
X704Y722D01*
X800Y722D02*
X809Y722D01*
X1302Y722D02*
X1309Y722D01*
X1Y721D02*
X8Y721D01*
X601Y721D02*
X610Y721D01*
X651Y721D02*
X704Y721D01*
X800Y721D02*
X809Y721D01*
X1302Y721D02*
X1309Y721D01*
X1Y720D02*
X8Y720D01*
X601Y720D02*
X610Y720D01*
X651Y720D02*
X704Y720D01*
X800Y720D02*
X809Y720D01*
X1302Y720D02*
X1309Y720D01*
X1Y719D02*
X8Y719D01*
X601Y719D02*
X610Y719D01*
X651Y719D02*
X704Y719D01*
X800Y719D02*
X809Y719D01*
X1302Y719D02*
X1309Y719D01*
X1Y718D02*
X8Y718D01*
X601Y718D02*
X610Y718D01*
X651Y718D02*
X704Y718D01*
X800Y718D02*
X809Y718D01*
X1302Y718D02*
X1309Y718D01*
X1Y717D02*
X8Y717D01*
X601Y717D02*
X610Y717D01*
X651Y717D02*
X704Y717D01*
X800Y717D02*
X809Y717D01*
X1302Y717D02*
X1309Y717D01*
X1Y716D02*
X8Y716D01*
X601Y716D02*
X610Y716D01*
X651Y716D02*
X704Y716D01*
X800Y716D02*
X809Y716D01*
X1302Y716D02*
X1309Y716D01*
X1Y715D02*
X8Y715D01*
X601Y715D02*
X610Y715D01*
X651Y715D02*
X657Y715D01*
X674Y715D02*
X680Y715D01*
X698Y715D02*
X704Y715D01*
X800Y715D02*
X809Y715D01*
X1302Y715D02*
X1309Y715D01*
X1Y714D02*
X8Y714D01*
X601Y714D02*
X610Y714D01*
X651Y714D02*
X657Y714D01*
X674Y714D02*
X680Y714D01*
X698Y714D02*
X704Y714D01*
X800Y714D02*
X809Y714D01*
X1302Y714D02*
X1309Y714D01*
X1Y713D02*
X8Y713D01*
X601Y713D02*
X610Y713D01*
X651Y713D02*
X657Y713D01*
X674Y713D02*
X680Y713D01*
X698Y713D02*
X704Y713D01*
X800Y713D02*
X809Y713D01*
X1302Y713D02*
X1309Y713D01*
X1Y712D02*
X8Y712D01*
X601Y712D02*
X610Y712D01*
X651Y712D02*
X657Y712D01*
X674Y712D02*
X680Y712D01*
X698Y712D02*
X704Y712D01*
X800Y712D02*
X809Y712D01*
X1302Y712D02*
X1309Y712D01*
X1Y711D02*
X8Y711D01*
X601Y711D02*
X610Y711D01*
X651Y711D02*
X657Y711D01*
X674Y711D02*
X680Y711D01*
X698Y711D02*
X704Y711D01*
X800Y711D02*
X809Y711D01*
X1302Y711D02*
X1309Y711D01*
X1Y710D02*
X8Y710D01*
X601Y710D02*
X610Y710D01*
X651Y710D02*
X657Y710D01*
X674Y710D02*
X680Y710D01*
X698Y710D02*
X704Y710D01*
X800Y710D02*
X809Y710D01*
X1302Y710D02*
X1309Y710D01*
X1Y709D02*
X8Y709D01*
X601Y709D02*
X610Y709D01*
X651Y709D02*
X657Y709D01*
X674Y709D02*
X680Y709D01*
X698Y709D02*
X704Y709D01*
X800Y709D02*
X809Y709D01*
X1302Y709D02*
X1309Y709D01*
X1Y708D02*
X8Y708D01*
X601Y708D02*
X610Y708D01*
X651Y708D02*
X657Y708D01*
X674Y708D02*
X680Y708D01*
X698Y708D02*
X704Y708D01*
X800Y708D02*
X809Y708D01*
X1302Y708D02*
X1309Y708D01*
X1Y707D02*
X8Y707D01*
X601Y707D02*
X610Y707D01*
X651Y707D02*
X657Y707D01*
X674Y707D02*
X680Y707D01*
X698Y707D02*
X704Y707D01*
X800Y707D02*
X809Y707D01*
X1302Y707D02*
X1309Y707D01*
X1Y706D02*
X8Y706D01*
X601Y706D02*
X610Y706D01*
X651Y706D02*
X657Y706D01*
X674Y706D02*
X680Y706D01*
X698Y706D02*
X704Y706D01*
X800Y706D02*
X809Y706D01*
X1302Y706D02*
X1309Y706D01*
X1Y705D02*
X8Y705D01*
X601Y705D02*
X610Y705D01*
X651Y705D02*
X657Y705D01*
X674Y705D02*
X680Y705D01*
X698Y705D02*
X704Y705D01*
X800Y705D02*
X809Y705D01*
X1302Y705D02*
X1309Y705D01*
X1Y704D02*
X8Y704D01*
X601Y704D02*
X610Y704D01*
X651Y704D02*
X657Y704D01*
X674Y704D02*
X680Y704D01*
X698Y704D02*
X704Y704D01*
X800Y704D02*
X809Y704D01*
X1302Y704D02*
X1309Y704D01*
X1Y703D02*
X8Y703D01*
X601Y703D02*
X610Y703D01*
X651Y703D02*
X657Y703D01*
X674Y703D02*
X680Y703D01*
X698Y703D02*
X704Y703D01*
X800Y703D02*
X809Y703D01*
X1302Y703D02*
X1309Y703D01*
X1Y702D02*
X8Y702D01*
X601Y702D02*
X610Y702D01*
X651Y702D02*
X657Y702D01*
X674Y702D02*
X680Y702D01*
X698Y702D02*
X704Y702D01*
X800Y702D02*
X809Y702D01*
X1302Y702D02*
X1309Y702D01*
X1Y701D02*
X8Y701D01*
X601Y701D02*
X610Y701D01*
X651Y701D02*
X657Y701D01*
X674Y701D02*
X681Y701D01*
X698Y701D02*
X704Y701D01*
X800Y701D02*
X809Y701D01*
X1302Y701D02*
X1309Y701D01*
X1Y700D02*
X8Y700D01*
X601Y700D02*
X610Y700D01*
X651Y700D02*
X657Y700D01*
X674Y700D02*
X681Y700D01*
X698Y700D02*
X704Y700D01*
X800Y700D02*
X809Y700D01*
X1302Y700D02*
X1309Y700D01*
X1Y699D02*
X8Y699D01*
X601Y699D02*
X610Y699D01*
X651Y699D02*
X658Y699D01*
X674Y699D02*
X681Y699D01*
X697Y699D02*
X704Y699D01*
X800Y699D02*
X809Y699D01*
X1302Y699D02*
X1309Y699D01*
X1Y698D02*
X8Y698D01*
X601Y698D02*
X610Y698D01*
X652Y698D02*
X658Y698D01*
X673Y698D02*
X682Y698D01*
X697Y698D02*
X703Y698D01*
X800Y698D02*
X809Y698D01*
X1302Y698D02*
X1309Y698D01*
X1Y697D02*
X8Y697D01*
X601Y697D02*
X610Y697D01*
X652Y697D02*
X659Y697D01*
X672Y697D02*
X683Y697D01*
X696Y697D02*
X703Y697D01*
X800Y697D02*
X809Y697D01*
X1302Y697D02*
X1309Y697D01*
X1Y696D02*
X8Y696D01*
X601Y696D02*
X610Y696D01*
X652Y696D02*
X661Y696D01*
X671Y696D02*
X684Y696D01*
X694Y696D02*
X702Y696D01*
X800Y696D02*
X809Y696D01*
X1302Y696D02*
X1309Y696D01*
X1Y695D02*
X8Y695D01*
X601Y695D02*
X610Y695D01*
X653Y695D02*
X702Y695D01*
X800Y695D02*
X809Y695D01*
X1302Y695D02*
X1309Y695D01*
X1Y694D02*
X8Y694D01*
X601Y694D02*
X610Y694D01*
X654Y694D02*
X701Y694D01*
X800Y694D02*
X809Y694D01*
X1302Y694D02*
X1309Y694D01*
X1Y693D02*
X8Y693D01*
X601Y693D02*
X610Y693D01*
X654Y693D02*
X700Y693D01*
X800Y693D02*
X809Y693D01*
X1302Y693D02*
X1309Y693D01*
X1Y692D02*
X8Y692D01*
X601Y692D02*
X610Y692D01*
X655Y692D02*
X676Y692D01*
X679Y692D02*
X699Y692D01*
X800Y692D02*
X809Y692D01*
X1302Y692D02*
X1309Y692D01*
X1Y691D02*
X8Y691D01*
X601Y691D02*
X610Y691D01*
X657Y691D02*
X675Y691D01*
X680Y691D02*
X698Y691D01*
X800Y691D02*
X809Y691D01*
X1302Y691D02*
X1309Y691D01*
X1Y690D02*
X8Y690D01*
X601Y690D02*
X610Y690D01*
X658Y690D02*
X673Y690D01*
X682Y690D02*
X697Y690D01*
X800Y690D02*
X809Y690D01*
X1302Y690D02*
X1309Y690D01*
X1Y689D02*
X8Y689D01*
X601Y689D02*
X610Y689D01*
X660Y689D02*
X671Y689D01*
X684Y689D02*
X695Y689D01*
X800Y689D02*
X809Y689D01*
X1302Y689D02*
X1309Y689D01*
X1Y688D02*
X8Y688D01*
X601Y688D02*
X610Y688D01*
X800Y688D02*
X809Y688D01*
X858Y688D02*
X885Y688D01*
X910Y688D02*
X928Y688D01*
X1302Y688D02*
X1309Y688D01*
X1Y687D02*
X8Y687D01*
X601Y687D02*
X610Y687D01*
X800Y687D02*
X809Y687D01*
X858Y687D02*
X887Y687D01*
X909Y687D02*
X928Y687D01*
X1302Y687D02*
X1309Y687D01*
X1Y686D02*
X8Y686D01*
X601Y686D02*
X610Y686D01*
X800Y686D02*
X809Y686D01*
X858Y686D02*
X888Y686D01*
X909Y686D02*
X928Y686D01*
X1302Y686D02*
X1309Y686D01*
X1Y685D02*
X8Y685D01*
X601Y685D02*
X610Y685D01*
X800Y685D02*
X809Y685D01*
X858Y685D02*
X889Y685D01*
X909Y685D02*
X928Y685D01*
X1302Y685D02*
X1309Y685D01*
X1Y684D02*
X8Y684D01*
X601Y684D02*
X609Y684D01*
X800Y684D02*
X809Y684D01*
X858Y684D02*
X890Y684D01*
X909Y684D02*
X928Y684D01*
X1302Y684D02*
X1309Y684D01*
X1Y683D02*
X8Y683D01*
X858Y683D02*
X891Y683D01*
X909Y683D02*
X928Y683D01*
X1302Y683D02*
X1309Y683D01*
X1Y682D02*
X8Y682D01*
X858Y682D02*
X891Y682D01*
X910Y682D02*
X928Y682D01*
X1302Y682D02*
X1309Y682D01*
X1Y681D02*
X8Y681D01*
X858Y681D02*
X865Y681D01*
X884Y681D02*
X892Y681D01*
X922Y681D02*
X928Y681D01*
X1302Y681D02*
X1309Y681D01*
X1Y680D02*
X8Y680D01*
X858Y680D02*
X865Y680D01*
X885Y680D02*
X892Y680D01*
X922Y680D02*
X928Y680D01*
X1302Y680D02*
X1309Y680D01*
X1Y679D02*
X8Y679D01*
X858Y679D02*
X865Y679D01*
X886Y679D02*
X892Y679D01*
X922Y679D02*
X928Y679D01*
X1302Y679D02*
X1309Y679D01*
X1Y678D02*
X8Y678D01*
X858Y678D02*
X865Y678D01*
X886Y678D02*
X892Y678D01*
X922Y678D02*
X928Y678D01*
X1302Y678D02*
X1309Y678D01*
X1Y677D02*
X8Y677D01*
X858Y677D02*
X865Y677D01*
X886Y677D02*
X892Y677D01*
X922Y677D02*
X928Y677D01*
X1302Y677D02*
X1309Y677D01*
X1Y676D02*
X8Y676D01*
X858Y676D02*
X865Y676D01*
X886Y676D02*
X892Y676D01*
X922Y676D02*
X928Y676D01*
X1302Y676D02*
X1309Y676D01*
X1Y675D02*
X8Y675D01*
X858Y675D02*
X865Y675D01*
X886Y675D02*
X892Y675D01*
X922Y675D02*
X928Y675D01*
X1302Y675D02*
X1309Y675D01*
X1Y674D02*
X8Y674D01*
X858Y674D02*
X865Y674D01*
X886Y674D02*
X892Y674D01*
X922Y674D02*
X928Y674D01*
X1302Y674D02*
X1309Y674D01*
X1Y673D02*
X8Y673D01*
X858Y673D02*
X865Y673D01*
X886Y673D02*
X892Y673D01*
X922Y673D02*
X928Y673D01*
X1302Y673D02*
X1309Y673D01*
X1Y672D02*
X8Y672D01*
X664Y672D02*
X688Y672D01*
X858Y672D02*
X865Y672D01*
X885Y672D02*
X892Y672D01*
X922Y672D02*
X928Y672D01*
X1302Y672D02*
X1309Y672D01*
X1Y671D02*
X8Y671D01*
X657Y671D02*
X689Y671D01*
X858Y671D02*
X865Y671D01*
X883Y671D02*
X891Y671D01*
X922Y671D02*
X928Y671D01*
X1302Y671D02*
X1309Y671D01*
X1Y670D02*
X8Y670D01*
X655Y670D02*
X689Y670D01*
X858Y670D02*
X891Y670D01*
X922Y670D02*
X928Y670D01*
X1302Y670D02*
X1309Y670D01*
X1Y669D02*
X8Y669D01*
X654Y669D02*
X689Y669D01*
X858Y669D02*
X890Y669D01*
X922Y669D02*
X928Y669D01*
X1302Y669D02*
X1309Y669D01*
X1Y668D02*
X8Y668D01*
X653Y668D02*
X689Y668D01*
X858Y668D02*
X890Y668D01*
X922Y668D02*
X928Y668D01*
X1302Y668D02*
X1309Y668D01*
X1Y667D02*
X8Y667D01*
X652Y667D02*
X688Y667D01*
X858Y667D02*
X889Y667D01*
X922Y667D02*
X928Y667D01*
X1302Y667D02*
X1309Y667D01*
X1Y666D02*
X8Y666D01*
X652Y666D02*
X687Y666D01*
X858Y666D02*
X888Y666D01*
X922Y666D02*
X928Y666D01*
X1302Y666D02*
X1309Y666D01*
X1Y665D02*
X8Y665D01*
X651Y665D02*
X663Y665D01*
X858Y665D02*
X886Y665D01*
X922Y665D02*
X928Y665D01*
X1302Y665D02*
X1309Y665D01*
X1Y664D02*
X8Y664D01*
X651Y664D02*
X658Y664D01*
X858Y664D02*
X883Y664D01*
X922Y664D02*
X928Y664D01*
X1302Y664D02*
X1309Y664D01*
X1Y663D02*
X8Y663D01*
X651Y663D02*
X657Y663D01*
X858Y663D02*
X865Y663D01*
X871Y663D02*
X878Y663D01*
X922Y663D02*
X928Y663D01*
X1302Y663D02*
X1309Y663D01*
X1Y662D02*
X8Y662D01*
X651Y662D02*
X657Y662D01*
X858Y662D02*
X865Y662D01*
X871Y662D02*
X879Y662D01*
X922Y662D02*
X928Y662D01*
X1302Y662D02*
X1309Y662D01*
X1Y661D02*
X8Y661D01*
X651Y661D02*
X657Y661D01*
X858Y661D02*
X865Y661D01*
X872Y661D02*
X879Y661D01*
X922Y661D02*
X928Y661D01*
X1302Y661D02*
X1309Y661D01*
X1Y660D02*
X8Y660D01*
X651Y660D02*
X657Y660D01*
X858Y660D02*
X865Y660D01*
X873Y660D02*
X880Y660D01*
X922Y660D02*
X928Y660D01*
X1302Y660D02*
X1309Y660D01*
X1Y659D02*
X8Y659D01*
X651Y659D02*
X657Y659D01*
X858Y659D02*
X865Y659D01*
X873Y659D02*
X880Y659D01*
X922Y659D02*
X928Y659D01*
X939Y659D02*
X939Y659D01*
X1302Y659D02*
X1309Y659D01*
X1Y658D02*
X8Y658D01*
X651Y658D02*
X657Y658D01*
X858Y658D02*
X865Y658D01*
X874Y658D02*
X881Y658D01*
X922Y658D02*
X928Y658D01*
X937Y658D02*
X941Y658D01*
X1302Y658D02*
X1309Y658D01*
X1Y657D02*
X8Y657D01*
X651Y657D02*
X657Y657D01*
X858Y657D02*
X865Y657D01*
X874Y657D02*
X881Y657D01*
X922Y657D02*
X928Y657D01*
X936Y657D02*
X942Y657D01*
X1302Y657D02*
X1309Y657D01*
X1Y656D02*
X8Y656D01*
X651Y656D02*
X657Y656D01*
X858Y656D02*
X865Y656D01*
X875Y656D02*
X882Y656D01*
X922Y656D02*
X928Y656D01*
X936Y656D02*
X942Y656D01*
X1302Y656D02*
X1309Y656D01*
X1Y655D02*
X8Y655D01*
X651Y655D02*
X658Y655D01*
X858Y655D02*
X865Y655D01*
X875Y655D02*
X883Y655D01*
X922Y655D02*
X928Y655D01*
X936Y655D02*
X942Y655D01*
X1302Y655D02*
X1309Y655D01*
X1Y654D02*
X8Y654D01*
X652Y654D02*
X658Y654D01*
X858Y654D02*
X865Y654D01*
X876Y654D02*
X883Y654D01*
X922Y654D02*
X928Y654D01*
X936Y654D02*
X942Y654D01*
X1302Y654D02*
X1309Y654D01*
X1Y653D02*
X8Y653D01*
X652Y653D02*
X659Y653D01*
X858Y653D02*
X865Y653D01*
X877Y653D02*
X884Y653D01*
X922Y653D02*
X928Y653D01*
X936Y653D02*
X942Y653D01*
X1302Y653D02*
X1309Y653D01*
X1Y652D02*
X8Y652D01*
X652Y652D02*
X660Y652D01*
X858Y652D02*
X865Y652D01*
X877Y652D02*
X884Y652D01*
X922Y652D02*
X928Y652D01*
X936Y652D02*
X942Y652D01*
X1302Y652D02*
X1309Y652D01*
X1Y651D02*
X8Y651D01*
X653Y651D02*
X660Y651D01*
X858Y651D02*
X865Y651D01*
X878Y651D02*
X885Y651D01*
X922Y651D02*
X928Y651D01*
X936Y651D02*
X942Y651D01*
X1302Y651D02*
X1309Y651D01*
X1Y650D02*
X8Y650D01*
X654Y650D02*
X661Y650D01*
X858Y650D02*
X865Y650D01*
X878Y650D02*
X886Y650D01*
X922Y650D02*
X928Y650D01*
X936Y650D02*
X942Y650D01*
X1302Y650D02*
X1309Y650D01*
X1Y649D02*
X8Y649D01*
X654Y649D02*
X662Y649D01*
X858Y649D02*
X865Y649D01*
X879Y649D02*
X886Y649D01*
X922Y649D02*
X928Y649D01*
X936Y649D02*
X942Y649D01*
X1302Y649D02*
X1309Y649D01*
X1Y648D02*
X8Y648D01*
X655Y648D02*
X662Y648D01*
X858Y648D02*
X865Y648D01*
X880Y648D02*
X887Y648D01*
X922Y648D02*
X928Y648D01*
X936Y648D02*
X942Y648D01*
X1302Y648D02*
X1309Y648D01*
X1Y647D02*
X8Y647D01*
X656Y647D02*
X663Y647D01*
X858Y647D02*
X865Y647D01*
X880Y647D02*
X887Y647D01*
X922Y647D02*
X928Y647D01*
X936Y647D02*
X942Y647D01*
X1302Y647D02*
X1309Y647D01*
X1Y646D02*
X8Y646D01*
X656Y646D02*
X664Y646D01*
X858Y646D02*
X865Y646D01*
X881Y646D02*
X888Y646D01*
X922Y646D02*
X928Y646D01*
X936Y646D02*
X942Y646D01*
X1302Y646D02*
X1309Y646D01*
X1Y645D02*
X8Y645D01*
X653Y645D02*
X687Y645D01*
X858Y645D02*
X865Y645D01*
X881Y645D02*
X888Y645D01*
X922Y645D02*
X928Y645D01*
X936Y645D02*
X942Y645D01*
X1302Y645D02*
X1309Y645D01*
X1Y644D02*
X8Y644D01*
X652Y644D02*
X688Y644D01*
X858Y644D02*
X865Y644D01*
X882Y644D02*
X889Y644D01*
X922Y644D02*
X928Y644D01*
X936Y644D02*
X942Y644D01*
X1302Y644D02*
X1309Y644D01*
X1Y643D02*
X8Y643D01*
X651Y643D02*
X689Y643D01*
X858Y643D02*
X865Y643D01*
X882Y643D02*
X890Y643D01*
X922Y643D02*
X928Y643D01*
X936Y643D02*
X942Y643D01*
X1302Y643D02*
X1309Y643D01*
X1Y642D02*
X8Y642D01*
X651Y642D02*
X689Y642D01*
X858Y642D02*
X865Y642D01*
X883Y642D02*
X890Y642D01*
X922Y642D02*
X928Y642D01*
X936Y642D02*
X942Y642D01*
X1302Y642D02*
X1309Y642D01*
X1Y641D02*
X8Y641D01*
X651Y641D02*
X689Y641D01*
X858Y641D02*
X865Y641D01*
X884Y641D02*
X891Y641D01*
X910Y641D02*
X942Y641D01*
X1302Y641D02*
X1309Y641D01*
X1Y640D02*
X8Y640D01*
X651Y640D02*
X689Y640D01*
X858Y640D02*
X865Y640D01*
X884Y640D02*
X891Y640D01*
X909Y640D02*
X942Y640D01*
X1302Y640D02*
X1309Y640D01*
X1Y639D02*
X8Y639D01*
X652Y639D02*
X688Y639D01*
X858Y639D02*
X865Y639D01*
X885Y639D02*
X892Y639D01*
X909Y639D02*
X942Y639D01*
X1302Y639D02*
X1309Y639D01*
X1Y638D02*
X8Y638D01*
X859Y638D02*
X864Y638D01*
X885Y638D02*
X892Y638D01*
X909Y638D02*
X942Y638D01*
X1302Y638D02*
X1309Y638D01*
X1Y637D02*
X8Y637D01*
X859Y637D02*
X864Y637D01*
X886Y637D02*
X892Y637D01*
X909Y637D02*
X942Y637D01*
X1302Y637D02*
X1309Y637D01*
X1Y636D02*
X8Y636D01*
X859Y636D02*
X864Y636D01*
X887Y636D02*
X891Y636D01*
X909Y636D02*
X941Y636D01*
X1302Y636D02*
X1309Y636D01*
X1Y635D02*
X8Y635D01*
X860Y635D02*
X863Y635D01*
X888Y635D02*
X890Y635D01*
X910Y635D02*
X940Y635D01*
X1302Y635D02*
X1309Y635D01*
X1Y634D02*
X8Y634D01*
X1302Y634D02*
X1309Y634D01*
X1Y633D02*
X8Y633D01*
X1302Y633D02*
X1309Y633D01*
X1Y632D02*
X8Y632D01*
X1302Y632D02*
X1309Y632D01*
X1Y631D02*
X8Y631D01*
X1302Y631D02*
X1309Y631D01*
X1Y630D02*
X8Y630D01*
X1302Y630D02*
X1309Y630D01*
X1Y629D02*
X8Y629D01*
X1302Y629D02*
X1309Y629D01*
X1Y628D02*
X8Y628D01*
X1302Y628D02*
X1309Y628D01*
X1Y627D02*
X8Y627D01*
X1302Y627D02*
X1309Y627D01*
X1Y626D02*
X8Y626D01*
X1302Y626D02*
X1309Y626D01*
X1Y625D02*
X8Y625D01*
X1302Y625D02*
X1309Y625D01*
X1Y624D02*
X8Y624D01*
X1302Y624D02*
X1309Y624D01*
X1Y623D02*
X8Y623D01*
X1302Y623D02*
X1309Y623D01*
X1Y622D02*
X8Y622D01*
X652Y622D02*
X688Y622D01*
X1302Y622D02*
X1309Y622D01*
X1Y621D02*
X8Y621D01*
X651Y621D02*
X689Y621D01*
X1302Y621D02*
X1309Y621D01*
X1Y620D02*
X8Y620D01*
X651Y620D02*
X689Y620D01*
X1302Y620D02*
X1309Y620D01*
X1Y619D02*
X8Y619D01*
X651Y619D02*
X689Y619D01*
X1302Y619D02*
X1309Y619D01*
X1Y618D02*
X8Y618D01*
X651Y618D02*
X689Y618D01*
X1302Y618D02*
X1309Y618D01*
X1Y617D02*
X8Y617D01*
X652Y617D02*
X688Y617D01*
X1302Y617D02*
X1309Y617D01*
X1Y616D02*
X8Y616D01*
X653Y616D02*
X687Y616D01*
X1302Y616D02*
X1309Y616D01*
X1Y615D02*
X8Y615D01*
X674Y615D02*
X682Y615D01*
X1302Y615D02*
X1309Y615D01*
X1Y614D02*
X28Y614D01*
X675Y614D02*
X683Y614D01*
X1302Y614D02*
X1309Y614D01*
X1Y613D02*
X28Y613D01*
X676Y613D02*
X684Y613D01*
X1302Y613D02*
X1309Y613D01*
X1Y612D02*
X28Y612D01*
X677Y612D02*
X685Y612D01*
X1171Y612D02*
X1174Y612D01*
X1195Y612D02*
X1198Y612D01*
X1226Y612D02*
X1241Y612D01*
X1270Y612D02*
X1285Y612D01*
X1302Y612D02*
X1309Y612D01*
X1Y611D02*
X28Y611D01*
X677Y611D02*
X686Y611D01*
X1170Y611D02*
X1175Y611D01*
X1194Y611D02*
X1199Y611D01*
X1224Y611D02*
X1242Y611D01*
X1268Y611D02*
X1286Y611D01*
X1302Y611D02*
X1309Y611D01*
X1Y610D02*
X28Y610D01*
X678Y610D02*
X687Y610D01*
X1170Y610D02*
X1175Y610D01*
X1194Y610D02*
X1199Y610D01*
X1223Y610D02*
X1243Y610D01*
X1266Y610D02*
X1286Y610D01*
X1302Y610D02*
X1309Y610D01*
X1Y609D02*
X28Y609D01*
X679Y609D02*
X687Y609D01*
X1170Y609D02*
X1175Y609D01*
X1194Y609D02*
X1199Y609D01*
X1222Y609D02*
X1243Y609D01*
X1266Y609D02*
X1286Y609D01*
X1302Y609D02*
X1309Y609D01*
X1Y608D02*
X28Y608D01*
X680Y608D02*
X688Y608D01*
X1170Y608D02*
X1175Y608D01*
X1194Y608D02*
X1199Y608D01*
X1221Y608D02*
X1242Y608D01*
X1265Y608D02*
X1286Y608D01*
X1302Y608D02*
X1309Y608D01*
X1Y607D02*
X8Y607D01*
X681Y607D02*
X689Y607D01*
X1170Y607D02*
X1175Y607D01*
X1194Y607D02*
X1199Y607D01*
X1221Y607D02*
X1241Y607D01*
X1264Y607D02*
X1285Y607D01*
X1302Y607D02*
X1309Y607D01*
X1Y606D02*
X8Y606D01*
X682Y606D02*
X689Y606D01*
X1170Y606D02*
X1175Y606D01*
X1194Y606D02*
X1199Y606D01*
X1220Y606D02*
X1227Y606D01*
X1264Y606D02*
X1270Y606D01*
X1302Y606D02*
X1309Y606D01*
X1Y605D02*
X8Y605D01*
X683Y605D02*
X689Y605D01*
X1170Y605D02*
X1175Y605D01*
X1194Y605D02*
X1199Y605D01*
X1220Y605D02*
X1226Y605D01*
X1263Y605D02*
X1269Y605D01*
X1302Y605D02*
X1309Y605D01*
X1Y604D02*
X8Y604D01*
X683Y604D02*
X689Y604D01*
X1170Y604D02*
X1175Y604D01*
X1194Y604D02*
X1199Y604D01*
X1219Y604D02*
X1225Y604D01*
X1263Y604D02*
X1269Y604D01*
X1302Y604D02*
X1309Y604D01*
X1Y603D02*
X8Y603D01*
X683Y603D02*
X689Y603D01*
X1170Y603D02*
X1175Y603D01*
X1194Y603D02*
X1199Y603D01*
X1219Y603D02*
X1225Y603D01*
X1262Y603D02*
X1268Y603D01*
X1302Y603D02*
X1309Y603D01*
X1Y602D02*
X8Y602D01*
X683Y602D02*
X689Y602D01*
X1170Y602D02*
X1175Y602D01*
X1194Y602D02*
X1199Y602D01*
X1218Y602D02*
X1224Y602D01*
X1262Y602D02*
X1268Y602D01*
X1302Y602D02*
X1309Y602D01*
X1Y601D02*
X8Y601D01*
X683Y601D02*
X689Y601D01*
X1170Y601D02*
X1175Y601D01*
X1194Y601D02*
X1199Y601D01*
X1218Y601D02*
X1224Y601D01*
X1261Y601D02*
X1267Y601D01*
X1302Y601D02*
X1309Y601D01*
X1Y600D02*
X8Y600D01*
X683Y600D02*
X689Y600D01*
X1170Y600D02*
X1175Y600D01*
X1194Y600D02*
X1199Y600D01*
X1217Y600D02*
X1223Y600D01*
X1261Y600D02*
X1267Y600D01*
X1302Y600D02*
X1309Y600D01*
X1Y599D02*
X8Y599D01*
X683Y599D02*
X689Y599D01*
X1170Y599D02*
X1175Y599D01*
X1194Y599D02*
X1199Y599D01*
X1217Y599D02*
X1223Y599D01*
X1260Y599D02*
X1266Y599D01*
X1302Y599D02*
X1309Y599D01*
X1Y598D02*
X8Y598D01*
X683Y598D02*
X689Y598D01*
X1170Y598D02*
X1176Y598D01*
X1193Y598D02*
X1199Y598D01*
X1216Y598D02*
X1222Y598D01*
X1260Y598D02*
X1266Y598D01*
X1302Y598D02*
X1309Y598D01*
X1Y597D02*
X8Y597D01*
X683Y597D02*
X689Y597D01*
X1171Y597D02*
X1176Y597D01*
X1193Y597D02*
X1198Y597D01*
X1216Y597D02*
X1222Y597D01*
X1259Y597D02*
X1265Y597D01*
X1302Y597D02*
X1309Y597D01*
X1Y596D02*
X8Y596D01*
X682Y596D02*
X689Y596D01*
X1171Y596D02*
X1177Y596D01*
X1192Y596D02*
X1198Y596D01*
X1215Y596D02*
X1221Y596D01*
X1259Y596D02*
X1265Y596D01*
X1302Y596D02*
X1309Y596D01*
X1Y595D02*
X8Y595D01*
X677Y595D02*
X689Y595D01*
X1171Y595D02*
X1177Y595D01*
X1192Y595D02*
X1198Y595D01*
X1215Y595D02*
X1221Y595D01*
X1258Y595D02*
X1264Y595D01*
X1302Y595D02*
X1309Y595D01*
X1Y594D02*
X8Y594D01*
X675Y594D02*
X688Y594D01*
X1172Y594D02*
X1177Y594D01*
X1192Y594D02*
X1197Y594D01*
X1215Y594D02*
X1220Y594D01*
X1258Y594D02*
X1264Y594D01*
X1302Y594D02*
X1309Y594D01*
X1Y593D02*
X8Y593D01*
X675Y593D02*
X688Y593D01*
X1172Y593D02*
X1178Y593D01*
X1191Y593D02*
X1197Y593D01*
X1214Y593D02*
X1220Y593D01*
X1258Y593D02*
X1263Y593D01*
X1302Y593D02*
X1309Y593D01*
X1Y592D02*
X8Y592D01*
X675Y592D02*
X687Y592D01*
X1173Y592D02*
X1178Y592D01*
X1191Y592D02*
X1196Y592D01*
X1214Y592D02*
X1219Y592D01*
X1257Y592D02*
X1263Y592D01*
X1302Y592D02*
X1309Y592D01*
X1Y591D02*
X8Y591D01*
X675Y591D02*
X686Y591D01*
X1173Y591D02*
X1179Y591D01*
X1190Y591D02*
X1196Y591D01*
X1214Y591D02*
X1219Y591D01*
X1257Y591D02*
X1262Y591D01*
X1302Y591D02*
X1309Y591D01*
X1Y590D02*
X8Y590D01*
X675Y590D02*
X685Y590D01*
X1173Y590D02*
X1179Y590D01*
X1190Y590D02*
X1196Y590D01*
X1214Y590D02*
X1219Y590D01*
X1257Y590D02*
X1262Y590D01*
X1302Y590D02*
X1309Y590D01*
X1Y589D02*
X8Y589D01*
X676Y589D02*
X683Y589D01*
X1174Y589D02*
X1179Y589D01*
X1190Y589D02*
X1195Y589D01*
X1214Y589D02*
X1219Y589D01*
X1257Y589D02*
X1262Y589D01*
X1302Y589D02*
X1309Y589D01*
X1Y588D02*
X8Y588D01*
X1174Y588D02*
X1180Y588D01*
X1189Y588D02*
X1195Y588D01*
X1214Y588D02*
X1219Y588D01*
X1257Y588D02*
X1262Y588D01*
X1302Y588D02*
X1309Y588D01*
X1Y587D02*
X8Y587D01*
X1175Y587D02*
X1180Y587D01*
X1189Y587D02*
X1195Y587D01*
X1214Y587D02*
X1219Y587D01*
X1257Y587D02*
X1263Y587D01*
X1302Y587D02*
X1309Y587D01*
X1Y586D02*
X8Y586D01*
X1175Y586D02*
X1181Y586D01*
X1189Y586D02*
X1194Y586D01*
X1214Y586D02*
X1219Y586D01*
X1257Y586D02*
X1263Y586D01*
X1302Y586D02*
X1309Y586D01*
X1Y585D02*
X8Y585D01*
X1175Y585D02*
X1181Y585D01*
X1188Y585D02*
X1194Y585D01*
X1214Y585D02*
X1220Y585D01*
X1258Y585D02*
X1263Y585D01*
X1302Y585D02*
X1309Y585D01*
X1Y584D02*
X8Y584D01*
X1176Y584D02*
X1181Y584D01*
X1188Y584D02*
X1193Y584D01*
X1215Y584D02*
X1220Y584D01*
X1258Y584D02*
X1264Y584D01*
X1302Y584D02*
X1309Y584D01*
X1Y583D02*
X8Y583D01*
X1176Y583D02*
X1182Y583D01*
X1187Y583D02*
X1193Y583D01*
X1215Y583D02*
X1221Y583D01*
X1259Y583D02*
X1264Y583D01*
X1302Y583D02*
X1309Y583D01*
X1Y582D02*
X8Y582D01*
X1176Y582D02*
X1182Y582D01*
X1187Y582D02*
X1193Y582D01*
X1215Y582D02*
X1221Y582D01*
X1259Y582D02*
X1265Y582D01*
X1302Y582D02*
X1309Y582D01*
X1Y581D02*
X8Y581D01*
X1177Y581D02*
X1182Y581D01*
X1187Y581D02*
X1192Y581D01*
X1216Y581D02*
X1222Y581D01*
X1260Y581D02*
X1265Y581D01*
X1302Y581D02*
X1309Y581D01*
X1Y580D02*
X8Y580D01*
X1177Y580D02*
X1183Y580D01*
X1186Y580D02*
X1192Y580D01*
X1216Y580D02*
X1222Y580D01*
X1260Y580D02*
X1266Y580D01*
X1302Y580D02*
X1309Y580D01*
X1Y579D02*
X8Y579D01*
X1178Y579D02*
X1183Y579D01*
X1186Y579D02*
X1191Y579D01*
X1217Y579D02*
X1223Y579D01*
X1261Y579D02*
X1266Y579D01*
X1302Y579D02*
X1309Y579D01*
X1Y578D02*
X8Y578D01*
X1178Y578D02*
X1191Y578D01*
X1217Y578D02*
X1223Y578D01*
X1261Y578D02*
X1267Y578D01*
X1302Y578D02*
X1309Y578D01*
X1Y577D02*
X8Y577D01*
X1178Y577D02*
X1191Y577D01*
X1218Y577D02*
X1224Y577D01*
X1262Y577D02*
X1267Y577D01*
X1302Y577D02*
X1309Y577D01*
X1Y576D02*
X8Y576D01*
X1179Y576D02*
X1190Y576D01*
X1218Y576D02*
X1224Y576D01*
X1262Y576D02*
X1268Y576D01*
X1302Y576D02*
X1309Y576D01*
X1Y575D02*
X8Y575D01*
X1179Y575D02*
X1190Y575D01*
X1219Y575D02*
X1225Y575D01*
X1263Y575D02*
X1268Y575D01*
X1302Y575D02*
X1309Y575D01*
X1Y574D02*
X8Y574D01*
X1180Y574D02*
X1189Y574D01*
X1219Y574D02*
X1225Y574D01*
X1263Y574D02*
X1269Y574D01*
X1302Y574D02*
X1309Y574D01*
X1Y573D02*
X8Y573D01*
X1180Y573D02*
X1189Y573D01*
X1220Y573D02*
X1226Y573D01*
X1264Y573D02*
X1270Y573D01*
X1302Y573D02*
X1309Y573D01*
X1Y572D02*
X8Y572D01*
X659Y572D02*
X681Y572D01*
X1180Y572D02*
X1189Y572D01*
X1220Y572D02*
X1227Y572D01*
X1264Y572D02*
X1270Y572D01*
X1302Y572D02*
X1309Y572D01*
X1Y571D02*
X8Y571D01*
X658Y571D02*
X682Y571D01*
X1181Y571D02*
X1188Y571D01*
X1221Y571D02*
X1241Y571D01*
X1265Y571D02*
X1285Y571D01*
X1302Y571D02*
X1309Y571D01*
X1Y570D02*
X8Y570D01*
X656Y570D02*
X684Y570D01*
X1181Y570D02*
X1188Y570D01*
X1222Y570D02*
X1242Y570D01*
X1265Y570D02*
X1286Y570D01*
X1302Y570D02*
X1309Y570D01*
X1Y569D02*
X8Y569D01*
X655Y569D02*
X685Y569D01*
X1182Y569D02*
X1187Y569D01*
X1222Y569D02*
X1243Y569D01*
X1266Y569D02*
X1286Y569D01*
X1302Y569D02*
X1309Y569D01*
X1Y568D02*
X8Y568D01*
X654Y568D02*
X686Y568D01*
X1182Y568D02*
X1187Y568D01*
X1223Y568D02*
X1243Y568D01*
X1267Y568D02*
X1286Y568D01*
X1302Y568D02*
X1309Y568D01*
X1Y567D02*
X8Y567D01*
X654Y567D02*
X686Y567D01*
X1182Y567D02*
X1187Y567D01*
X1224Y567D02*
X1242Y567D01*
X1268Y567D02*
X1286Y567D01*
X1302Y567D02*
X1309Y567D01*
X1Y566D02*
X8Y566D01*
X653Y566D02*
X687Y566D01*
X1183Y566D02*
X1186Y566D01*
X1226Y566D02*
X1241Y566D01*
X1270Y566D02*
X1285Y566D01*
X1302Y566D02*
X1309Y566D01*
X1Y565D02*
X8Y565D01*
X652Y565D02*
X660Y565D01*
X680Y565D02*
X688Y565D01*
X1302Y565D02*
X1309Y565D01*
X1Y564D02*
X8Y564D01*
X652Y564D02*
X659Y564D01*
X681Y564D02*
X688Y564D01*
X1302Y564D02*
X1309Y564D01*
X1Y563D02*
X8Y563D01*
X651Y563D02*
X658Y563D01*
X682Y563D02*
X689Y563D01*
X1302Y563D02*
X1309Y563D01*
X1Y562D02*
X8Y562D01*
X651Y562D02*
X658Y562D01*
X683Y562D02*
X689Y562D01*
X1302Y562D02*
X1309Y562D01*
X1Y561D02*
X8Y561D01*
X651Y561D02*
X657Y561D01*
X683Y561D02*
X689Y561D01*
X1302Y561D02*
X1309Y561D01*
X1Y560D02*
X8Y560D01*
X651Y560D02*
X657Y560D01*
X683Y560D02*
X689Y560D01*
X1302Y560D02*
X1309Y560D01*
X1Y559D02*
X8Y559D01*
X651Y559D02*
X657Y559D01*
X683Y559D02*
X689Y559D01*
X1302Y559D02*
X1309Y559D01*
X1Y558D02*
X8Y558D01*
X651Y558D02*
X657Y558D01*
X683Y558D02*
X689Y558D01*
X1302Y558D02*
X1309Y558D01*
X1Y557D02*
X8Y557D01*
X651Y557D02*
X657Y557D01*
X683Y557D02*
X689Y557D01*
X1302Y557D02*
X1309Y557D01*
X1Y556D02*
X8Y556D01*
X651Y556D02*
X657Y556D01*
X683Y556D02*
X689Y556D01*
X1302Y556D02*
X1309Y556D01*
X1Y555D02*
X8Y555D01*
X651Y555D02*
X657Y555D01*
X683Y555D02*
X689Y555D01*
X1302Y555D02*
X1309Y555D01*
X1Y554D02*
X8Y554D01*
X651Y554D02*
X657Y554D01*
X683Y554D02*
X689Y554D01*
X1302Y554D02*
X1309Y554D01*
X1Y553D02*
X8Y553D01*
X651Y553D02*
X657Y553D01*
X683Y553D02*
X689Y553D01*
X1302Y553D02*
X1309Y553D01*
X1Y552D02*
X8Y552D01*
X651Y552D02*
X658Y552D01*
X682Y552D02*
X689Y552D01*
X1302Y552D02*
X1309Y552D01*
X1Y551D02*
X8Y551D01*
X652Y551D02*
X659Y551D01*
X681Y551D02*
X689Y551D01*
X1302Y551D02*
X1309Y551D01*
X1Y550D02*
X8Y550D01*
X652Y550D02*
X660Y550D01*
X680Y550D02*
X688Y550D01*
X1302Y550D02*
X1309Y550D01*
X1Y549D02*
X8Y549D01*
X653Y549D02*
X661Y549D01*
X679Y549D02*
X688Y549D01*
X1302Y549D02*
X1309Y549D01*
X1Y548D02*
X8Y548D01*
X653Y548D02*
X662Y548D01*
X679Y548D02*
X687Y548D01*
X1302Y548D02*
X1309Y548D01*
X1Y547D02*
X8Y547D01*
X654Y547D02*
X662Y547D01*
X678Y547D02*
X686Y547D01*
X1302Y547D02*
X1309Y547D01*
X1Y546D02*
X8Y546D01*
X655Y546D02*
X663Y546D01*
X677Y546D02*
X685Y546D01*
X1302Y546D02*
X1309Y546D01*
X1Y545D02*
X8Y545D01*
X653Y545D02*
X701Y545D01*
X1302Y545D02*
X1309Y545D01*
X1Y544D02*
X8Y544D01*
X652Y544D02*
X703Y544D01*
X1302Y544D02*
X1309Y544D01*
X1Y543D02*
X8Y543D01*
X651Y543D02*
X704Y543D01*
X1302Y543D02*
X1309Y543D01*
X1Y542D02*
X8Y542D01*
X651Y542D02*
X704Y542D01*
X1302Y542D02*
X1309Y542D01*
X1Y541D02*
X8Y541D01*
X651Y541D02*
X704Y541D01*
X1302Y541D02*
X1309Y541D01*
X1Y540D02*
X8Y540D01*
X651Y540D02*
X703Y540D01*
X1302Y540D02*
X1309Y540D01*
X1Y539D02*
X8Y539D01*
X652Y539D02*
X703Y539D01*
X1302Y539D02*
X1309Y539D01*
X1Y538D02*
X8Y538D01*
X1302Y538D02*
X1309Y538D01*
X1Y537D02*
X8Y537D01*
X1302Y537D02*
X1309Y537D01*
X1Y536D02*
X8Y536D01*
X1302Y536D02*
X1309Y536D01*
X1Y535D02*
X8Y535D01*
X1302Y535D02*
X1309Y535D01*
X1Y534D02*
X8Y534D01*
X1302Y534D02*
X1309Y534D01*
X1Y533D02*
X8Y533D01*
X1302Y533D02*
X1309Y533D01*
X1Y532D02*
X8Y532D01*
X1302Y532D02*
X1309Y532D01*
X1Y531D02*
X8Y531D01*
X1302Y531D02*
X1309Y531D01*
X1Y530D02*
X8Y530D01*
X1302Y530D02*
X1309Y530D01*
X1Y529D02*
X8Y529D01*
X1302Y529D02*
X1309Y529D01*
X1Y528D02*
X8Y528D01*
X1302Y528D02*
X1309Y528D01*
X1Y527D02*
X8Y527D01*
X1302Y527D02*
X1309Y527D01*
X1Y526D02*
X8Y526D01*
X1302Y526D02*
X1309Y526D01*
X1Y525D02*
X8Y525D01*
X1302Y525D02*
X1309Y525D01*
X1Y524D02*
X8Y524D01*
X1302Y524D02*
X1309Y524D01*
X1Y523D02*
X8Y523D01*
X1302Y523D02*
X1309Y523D01*
X1Y522D02*
X8Y522D01*
X659Y522D02*
X680Y522D01*
X1302Y522D02*
X1309Y522D01*
X1Y521D02*
X8Y521D01*
X658Y521D02*
X682Y521D01*
X1302Y521D02*
X1309Y521D01*
X1Y520D02*
X8Y520D01*
X656Y520D02*
X684Y520D01*
X1302Y520D02*
X1309Y520D01*
X1Y519D02*
X8Y519D01*
X655Y519D02*
X685Y519D01*
X1302Y519D02*
X1309Y519D01*
X1Y518D02*
X8Y518D01*
X654Y518D02*
X686Y518D01*
X1302Y518D02*
X1309Y518D01*
X1Y517D02*
X8Y517D01*
X654Y517D02*
X686Y517D01*
X1302Y517D02*
X1309Y517D01*
X1Y516D02*
X8Y516D01*
X653Y516D02*
X687Y516D01*
X1302Y516D02*
X1309Y516D01*
X1Y515D02*
X8Y515D01*
X652Y515D02*
X660Y515D01*
X666Y515D02*
X672Y515D01*
X680Y515D02*
X688Y515D01*
X1302Y515D02*
X1309Y515D01*
X1Y514D02*
X8Y514D01*
X652Y514D02*
X659Y514D01*
X666Y514D02*
X672Y514D01*
X681Y514D02*
X688Y514D01*
X1176Y514D02*
X1177Y514D01*
X1210Y514D02*
X1231Y514D01*
X1302Y514D02*
X1309Y514D01*
X1Y513D02*
X8Y513D01*
X651Y513D02*
X658Y513D01*
X666Y513D02*
X672Y513D01*
X682Y513D02*
X689Y513D01*
X1175Y513D02*
X1179Y513D01*
X1208Y513D02*
X1232Y513D01*
X1302Y513D02*
X1309Y513D01*
X1Y512D02*
X8Y512D01*
X651Y512D02*
X658Y512D01*
X666Y512D02*
X672Y512D01*
X683Y512D02*
X689Y512D01*
X1174Y512D02*
X1179Y512D01*
X1207Y512D02*
X1233Y512D01*
X1302Y512D02*
X1309Y512D01*
X1Y511D02*
X8Y511D01*
X651Y511D02*
X657Y511D01*
X666Y511D02*
X672Y511D01*
X683Y511D02*
X689Y511D01*
X1174Y511D02*
X1180Y511D01*
X1207Y511D02*
X1234Y511D01*
X1302Y511D02*
X1309Y511D01*
X1Y510D02*
X8Y510D01*
X651Y510D02*
X657Y510D01*
X666Y510D02*
X672Y510D01*
X683Y510D02*
X689Y510D01*
X1174Y510D02*
X1180Y510D01*
X1206Y510D02*
X1235Y510D01*
X1302Y510D02*
X1309Y510D01*
X1Y509D02*
X8Y509D01*
X651Y509D02*
X657Y509D01*
X666Y509D02*
X672Y509D01*
X683Y509D02*
X689Y509D01*
X1173Y509D02*
X1180Y509D01*
X1206Y509D02*
X1235Y509D01*
X1302Y509D02*
X1309Y509D01*
X1Y508D02*
X8Y508D01*
X651Y508D02*
X657Y508D01*
X666Y508D02*
X672Y508D01*
X683Y508D02*
X689Y508D01*
X1173Y508D02*
X1180Y508D01*
X1206Y508D02*
X1211Y508D01*
X1230Y508D02*
X1235Y508D01*
X1302Y508D02*
X1309Y508D01*
X1Y507D02*
X8Y507D01*
X651Y507D02*
X657Y507D01*
X666Y507D02*
X672Y507D01*
X683Y507D02*
X689Y507D01*
X1173Y507D02*
X1181Y507D01*
X1206Y507D02*
X1211Y507D01*
X1230Y507D02*
X1235Y507D01*
X1302Y507D02*
X1309Y507D01*
X1Y506D02*
X8Y506D01*
X651Y506D02*
X657Y506D01*
X666Y506D02*
X672Y506D01*
X683Y506D02*
X689Y506D01*
X1173Y506D02*
X1181Y506D01*
X1206Y506D02*
X1211Y506D01*
X1230Y506D02*
X1235Y506D01*
X1302Y506D02*
X1309Y506D01*
X1Y505D02*
X8Y505D01*
X651Y505D02*
X657Y505D01*
X666Y505D02*
X672Y505D01*
X683Y505D02*
X689Y505D01*
X1172Y505D02*
X1181Y505D01*
X1206Y505D02*
X1211Y505D01*
X1230Y505D02*
X1235Y505D01*
X1302Y505D02*
X1309Y505D01*
X1Y504D02*
X8Y504D01*
X651Y504D02*
X657Y504D01*
X666Y504D02*
X672Y504D01*
X683Y504D02*
X689Y504D01*
X1172Y504D02*
X1182Y504D01*
X1206Y504D02*
X1211Y504D01*
X1230Y504D02*
X1235Y504D01*
X1302Y504D02*
X1309Y504D01*
X1Y503D02*
X8Y503D01*
X651Y503D02*
X657Y503D01*
X666Y503D02*
X672Y503D01*
X683Y503D02*
X689Y503D01*
X1172Y503D02*
X1182Y503D01*
X1206Y503D02*
X1211Y503D01*
X1230Y503D02*
X1235Y503D01*
X1302Y503D02*
X1309Y503D01*
X1Y502D02*
X8Y502D01*
X651Y502D02*
X657Y502D01*
X666Y502D02*
X672Y502D01*
X683Y502D02*
X689Y502D01*
X1171Y502D02*
X1182Y502D01*
X1206Y502D02*
X1211Y502D01*
X1230Y502D02*
X1235Y502D01*
X1302Y502D02*
X1309Y502D01*
X1Y501D02*
X8Y501D01*
X651Y501D02*
X657Y501D01*
X666Y501D02*
X672Y501D01*
X683Y501D02*
X689Y501D01*
X1171Y501D02*
X1182Y501D01*
X1206Y501D02*
X1211Y501D01*
X1230Y501D02*
X1235Y501D01*
X1302Y501D02*
X1309Y501D01*
X1Y500D02*
X8Y500D01*
X651Y500D02*
X657Y500D01*
X666Y500D02*
X672Y500D01*
X683Y500D02*
X689Y500D01*
X1171Y500D02*
X1183Y500D01*
X1206Y500D02*
X1211Y500D01*
X1230Y500D02*
X1235Y500D01*
X1302Y500D02*
X1309Y500D01*
X1Y499D02*
X8Y499D01*
X651Y499D02*
X657Y499D01*
X666Y499D02*
X672Y499D01*
X683Y499D02*
X689Y499D01*
X1171Y499D02*
X1176Y499D01*
X1178Y499D02*
X1183Y499D01*
X1206Y499D02*
X1211Y499D01*
X1230Y499D02*
X1235Y499D01*
X1302Y499D02*
X1309Y499D01*
X1Y498D02*
X8Y498D01*
X651Y498D02*
X657Y498D01*
X666Y498D02*
X672Y498D01*
X682Y498D02*
X689Y498D01*
X1170Y498D02*
X1176Y498D01*
X1178Y498D02*
X1183Y498D01*
X1206Y498D02*
X1211Y498D01*
X1230Y498D02*
X1235Y498D01*
X1302Y498D02*
X1309Y498D01*
X1Y497D02*
X8Y497D01*
X651Y497D02*
X657Y497D01*
X666Y497D02*
X672Y497D01*
X681Y497D02*
X688Y497D01*
X1170Y497D02*
X1175Y497D01*
X1178Y497D02*
X1184Y497D01*
X1206Y497D02*
X1211Y497D01*
X1230Y497D02*
X1235Y497D01*
X1302Y497D02*
X1309Y497D01*
X1Y496D02*
X8Y496D01*
X651Y496D02*
X657Y496D01*
X666Y496D02*
X672Y496D01*
X680Y496D02*
X688Y496D01*
X1170Y496D02*
X1175Y496D01*
X1179Y496D02*
X1184Y496D01*
X1206Y496D02*
X1211Y496D01*
X1230Y496D02*
X1235Y496D01*
X1302Y496D02*
X1309Y496D01*
X1Y495D02*
X8Y495D01*
X651Y495D02*
X657Y495D01*
X666Y495D02*
X687Y495D01*
X1169Y495D02*
X1175Y495D01*
X1179Y495D02*
X1184Y495D01*
X1206Y495D02*
X1211Y495D01*
X1230Y495D02*
X1235Y495D01*
X1302Y495D02*
X1309Y495D01*
X1Y494D02*
X8Y494D01*
X651Y494D02*
X657Y494D01*
X666Y494D02*
X686Y494D01*
X1169Y494D02*
X1174Y494D01*
X1179Y494D02*
X1184Y494D01*
X1206Y494D02*
X1211Y494D01*
X1230Y494D02*
X1235Y494D01*
X1302Y494D02*
X1309Y494D01*
X1Y493D02*
X8Y493D01*
X651Y493D02*
X657Y493D01*
X666Y493D02*
X686Y493D01*
X1169Y493D02*
X1174Y493D01*
X1179Y493D02*
X1185Y493D01*
X1206Y493D02*
X1211Y493D01*
X1230Y493D02*
X1235Y493D01*
X1302Y493D02*
X1309Y493D01*
X1Y492D02*
X8Y492D01*
X651Y492D02*
X657Y492D01*
X666Y492D02*
X685Y492D01*
X1168Y492D02*
X1174Y492D01*
X1180Y492D02*
X1185Y492D01*
X1206Y492D02*
X1211Y492D01*
X1230Y492D02*
X1235Y492D01*
X1302Y492D02*
X1309Y492D01*
X1Y491D02*
X8Y491D01*
X651Y491D02*
X657Y491D01*
X666Y491D02*
X684Y491D01*
X1168Y491D02*
X1174Y491D01*
X1180Y491D02*
X1185Y491D01*
X1206Y491D02*
X1211Y491D01*
X1230Y491D02*
X1235Y491D01*
X1302Y491D02*
X1309Y491D01*
X1Y490D02*
X8Y490D01*
X651Y490D02*
X656Y490D01*
X666Y490D02*
X683Y490D01*
X1168Y490D02*
X1173Y490D01*
X1180Y490D02*
X1186Y490D01*
X1206Y490D02*
X1211Y490D01*
X1230Y490D02*
X1235Y490D01*
X1302Y490D02*
X1309Y490D01*
X1Y489D02*
X8Y489D01*
X652Y489D02*
X655Y489D01*
X667Y489D02*
X681Y489D01*
X1168Y489D02*
X1173Y489D01*
X1181Y489D02*
X1186Y489D01*
X1206Y489D02*
X1211Y489D01*
X1230Y489D02*
X1235Y489D01*
X1302Y489D02*
X1309Y489D01*
X1Y488D02*
X8Y488D01*
X1167Y488D02*
X1173Y488D01*
X1181Y488D02*
X1186Y488D01*
X1206Y488D02*
X1211Y488D01*
X1230Y488D02*
X1235Y488D01*
X1302Y488D02*
X1309Y488D01*
X1Y487D02*
X8Y487D01*
X1167Y487D02*
X1172Y487D01*
X1181Y487D02*
X1187Y487D01*
X1206Y487D02*
X1211Y487D01*
X1230Y487D02*
X1235Y487D01*
X1302Y487D02*
X1309Y487D01*
X1Y486D02*
X8Y486D01*
X1167Y486D02*
X1172Y486D01*
X1181Y486D02*
X1187Y486D01*
X1206Y486D02*
X1211Y486D01*
X1230Y486D02*
X1235Y486D01*
X1302Y486D02*
X1309Y486D01*
X1Y485D02*
X8Y485D01*
X1166Y485D02*
X1172Y485D01*
X1182Y485D02*
X1187Y485D01*
X1206Y485D02*
X1211Y485D01*
X1230Y485D02*
X1235Y485D01*
X1302Y485D02*
X1309Y485D01*
X1Y484D02*
X8Y484D01*
X1166Y484D02*
X1172Y484D01*
X1182Y484D02*
X1187Y484D01*
X1206Y484D02*
X1211Y484D01*
X1230Y484D02*
X1235Y484D01*
X1302Y484D02*
X1309Y484D01*
X1Y483D02*
X8Y483D01*
X601Y483D02*
X610Y483D01*
X800Y483D02*
X809Y483D01*
X1166Y483D02*
X1188Y483D01*
X1206Y483D02*
X1211Y483D01*
X1230Y483D02*
X1235Y483D01*
X1302Y483D02*
X1309Y483D01*
X1Y482D02*
X8Y482D01*
X601Y482D02*
X610Y482D01*
X800Y482D02*
X809Y482D01*
X1166Y482D02*
X1188Y482D01*
X1206Y482D02*
X1211Y482D01*
X1230Y482D02*
X1235Y482D01*
X1302Y482D02*
X1309Y482D01*
X1Y481D02*
X8Y481D01*
X601Y481D02*
X610Y481D01*
X800Y481D02*
X809Y481D01*
X1165Y481D02*
X1188Y481D01*
X1206Y481D02*
X1211Y481D01*
X1230Y481D02*
X1235Y481D01*
X1302Y481D02*
X1309Y481D01*
X1Y480D02*
X8Y480D01*
X601Y480D02*
X610Y480D01*
X800Y480D02*
X809Y480D01*
X1165Y480D02*
X1189Y480D01*
X1206Y480D02*
X1211Y480D01*
X1230Y480D02*
X1235Y480D01*
X1302Y480D02*
X1309Y480D01*
X1Y479D02*
X8Y479D01*
X601Y479D02*
X610Y479D01*
X800Y479D02*
X809Y479D01*
X1165Y479D02*
X1189Y479D01*
X1206Y479D02*
X1211Y479D01*
X1230Y479D02*
X1235Y479D01*
X1302Y479D02*
X1309Y479D01*
X1Y478D02*
X8Y478D01*
X601Y478D02*
X610Y478D01*
X800Y478D02*
X809Y478D01*
X1164Y478D02*
X1189Y478D01*
X1206Y478D02*
X1211Y478D01*
X1230Y478D02*
X1235Y478D01*
X1302Y478D02*
X1309Y478D01*
X1Y477D02*
X8Y477D01*
X601Y477D02*
X610Y477D01*
X800Y477D02*
X809Y477D01*
X1164Y477D02*
X1170Y477D01*
X1184Y477D02*
X1189Y477D01*
X1206Y477D02*
X1211Y477D01*
X1230Y477D02*
X1235Y477D01*
X1302Y477D02*
X1309Y477D01*
X1Y476D02*
X8Y476D01*
X601Y476D02*
X610Y476D01*
X800Y476D02*
X809Y476D01*
X1164Y476D02*
X1169Y476D01*
X1184Y476D02*
X1190Y476D01*
X1206Y476D02*
X1211Y476D01*
X1230Y476D02*
X1235Y476D01*
X1302Y476D02*
X1309Y476D01*
X1Y475D02*
X8Y475D01*
X601Y475D02*
X610Y475D01*
X800Y475D02*
X809Y475D01*
X1163Y475D02*
X1169Y475D01*
X1185Y475D02*
X1190Y475D01*
X1206Y475D02*
X1211Y475D01*
X1230Y475D02*
X1235Y475D01*
X1302Y475D02*
X1309Y475D01*
X1Y474D02*
X8Y474D01*
X601Y474D02*
X610Y474D01*
X800Y474D02*
X809Y474D01*
X1163Y474D02*
X1169Y474D01*
X1185Y474D02*
X1190Y474D01*
X1206Y474D02*
X1211Y474D01*
X1230Y474D02*
X1235Y474D01*
X1302Y474D02*
X1309Y474D01*
X1Y473D02*
X8Y473D01*
X601Y473D02*
X610Y473D01*
X800Y473D02*
X809Y473D01*
X1163Y473D02*
X1168Y473D01*
X1185Y473D02*
X1191Y473D01*
X1206Y473D02*
X1235Y473D01*
X1302Y473D02*
X1309Y473D01*
X1Y472D02*
X8Y472D01*
X601Y472D02*
X610Y472D01*
X652Y472D02*
X688Y472D01*
X800Y472D02*
X809Y472D01*
X1163Y472D02*
X1168Y472D01*
X1186Y472D02*
X1191Y472D01*
X1206Y472D02*
X1235Y472D01*
X1302Y472D02*
X1309Y472D01*
X1Y471D02*
X8Y471D01*
X601Y471D02*
X610Y471D01*
X651Y471D02*
X689Y471D01*
X800Y471D02*
X809Y471D01*
X1162Y471D02*
X1168Y471D01*
X1186Y471D02*
X1191Y471D01*
X1206Y471D02*
X1235Y471D01*
X1302Y471D02*
X1309Y471D01*
X1Y470D02*
X8Y470D01*
X601Y470D02*
X610Y470D01*
X651Y470D02*
X689Y470D01*
X800Y470D02*
X809Y470D01*
X1162Y470D02*
X1167Y470D01*
X1186Y470D02*
X1191Y470D01*
X1207Y470D02*
X1234Y470D01*
X1302Y470D02*
X1309Y470D01*
X1Y469D02*
X8Y469D01*
X601Y469D02*
X610Y469D01*
X651Y469D02*
X689Y469D01*
X800Y469D02*
X809Y469D01*
X1162Y469D02*
X1167Y469D01*
X1186Y469D02*
X1191Y469D01*
X1208Y469D02*
X1233Y469D01*
X1302Y469D02*
X1309Y469D01*
X1Y468D02*
X8Y468D01*
X601Y468D02*
X610Y468D01*
X651Y468D02*
X689Y468D01*
X800Y468D02*
X809Y468D01*
X1163Y468D02*
X1166Y468D01*
X1187Y468D02*
X1190Y468D01*
X1209Y468D02*
X1232Y468D01*
X1302Y468D02*
X1309Y468D01*
X1Y467D02*
X8Y467D01*
X601Y467D02*
X610Y467D01*
X652Y467D02*
X688Y467D01*
X800Y467D02*
X809Y467D01*
X1302Y467D02*
X1309Y467D01*
X1Y466D02*
X8Y466D01*
X601Y466D02*
X610Y466D01*
X653Y466D02*
X687Y466D01*
X800Y466D02*
X809Y466D01*
X1302Y466D02*
X1309Y466D01*
X1Y465D02*
X8Y465D01*
X601Y465D02*
X610Y465D01*
X676Y465D02*
X684Y465D01*
X800Y465D02*
X809Y465D01*
X1302Y465D02*
X1309Y465D01*
X1Y464D02*
X8Y464D01*
X601Y464D02*
X610Y464D01*
X677Y464D02*
X684Y464D01*
X800Y464D02*
X809Y464D01*
X1302Y464D02*
X1309Y464D01*
X1Y463D02*
X8Y463D01*
X601Y463D02*
X610Y463D01*
X678Y463D02*
X685Y463D01*
X800Y463D02*
X809Y463D01*
X1302Y463D02*
X1309Y463D01*
X1Y462D02*
X8Y462D01*
X601Y462D02*
X610Y462D01*
X678Y462D02*
X686Y462D01*
X800Y462D02*
X809Y462D01*
X1302Y462D02*
X1309Y462D01*
X1Y461D02*
X8Y461D01*
X601Y461D02*
X610Y461D01*
X679Y461D02*
X686Y461D01*
X800Y461D02*
X809Y461D01*
X1302Y461D02*
X1309Y461D01*
X1Y460D02*
X8Y460D01*
X601Y460D02*
X610Y460D01*
X680Y460D02*
X687Y460D01*
X800Y460D02*
X809Y460D01*
X1302Y460D02*
X1309Y460D01*
X1Y459D02*
X8Y459D01*
X601Y459D02*
X610Y459D01*
X680Y459D02*
X688Y459D01*
X800Y459D02*
X809Y459D01*
X1302Y459D02*
X1309Y459D01*
X1Y458D02*
X8Y458D01*
X601Y458D02*
X610Y458D01*
X681Y458D02*
X688Y458D01*
X800Y458D02*
X809Y458D01*
X1302Y458D02*
X1309Y458D01*
X1Y457D02*
X8Y457D01*
X601Y457D02*
X610Y457D01*
X682Y457D02*
X689Y457D01*
X800Y457D02*
X809Y457D01*
X1302Y457D02*
X1309Y457D01*
X1Y456D02*
X8Y456D01*
X601Y456D02*
X610Y456D01*
X682Y456D02*
X689Y456D01*
X800Y456D02*
X809Y456D01*
X1302Y456D02*
X1309Y456D01*
X1Y455D02*
X8Y455D01*
X601Y455D02*
X610Y455D01*
X683Y455D02*
X689Y455D01*
X800Y455D02*
X809Y455D01*
X1302Y455D02*
X1309Y455D01*
X1Y454D02*
X8Y454D01*
X601Y454D02*
X610Y454D01*
X683Y454D02*
X689Y454D01*
X800Y454D02*
X809Y454D01*
X1302Y454D02*
X1309Y454D01*
X1Y453D02*
X8Y453D01*
X601Y453D02*
X610Y453D01*
X683Y453D02*
X689Y453D01*
X800Y453D02*
X809Y453D01*
X1302Y453D02*
X1309Y453D01*
X1Y452D02*
X8Y452D01*
X601Y452D02*
X610Y452D01*
X683Y452D02*
X689Y452D01*
X800Y452D02*
X809Y452D01*
X1302Y452D02*
X1309Y452D01*
X1Y451D02*
X8Y451D01*
X601Y451D02*
X610Y451D01*
X683Y451D02*
X689Y451D01*
X800Y451D02*
X809Y451D01*
X900Y451D02*
X900Y451D01*
X1302Y451D02*
X1309Y451D01*
X1Y450D02*
X8Y450D01*
X601Y450D02*
X610Y450D01*
X683Y450D02*
X689Y450D01*
X800Y450D02*
X809Y450D01*
X900Y450D02*
X909Y450D01*
X1302Y450D02*
X1309Y450D01*
X1Y449D02*
X8Y449D01*
X601Y449D02*
X610Y449D01*
X683Y449D02*
X689Y449D01*
X800Y449D02*
X809Y449D01*
X900Y449D02*
X909Y449D01*
X1302Y449D02*
X1309Y449D01*
X1Y448D02*
X8Y448D01*
X601Y448D02*
X610Y448D01*
X683Y448D02*
X689Y448D01*
X800Y448D02*
X809Y448D01*
X900Y448D02*
X909Y448D01*
X1302Y448D02*
X1309Y448D01*
X1Y447D02*
X8Y447D01*
X601Y447D02*
X610Y447D01*
X682Y447D02*
X689Y447D01*
X800Y447D02*
X809Y447D01*
X900Y447D02*
X909Y447D01*
X1302Y447D02*
X1309Y447D01*
X1Y446D02*
X8Y446D01*
X601Y446D02*
X610Y446D01*
X676Y446D02*
X689Y446D01*
X800Y446D02*
X809Y446D01*
X900Y446D02*
X909Y446D01*
X1302Y446D02*
X1309Y446D01*
X1Y445D02*
X8Y445D01*
X601Y445D02*
X610Y445D01*
X653Y445D02*
X688Y445D01*
X800Y445D02*
X809Y445D01*
X900Y445D02*
X909Y445D01*
X1302Y445D02*
X1309Y445D01*
X1Y444D02*
X8Y444D01*
X601Y444D02*
X610Y444D01*
X652Y444D02*
X688Y444D01*
X800Y444D02*
X809Y444D01*
X900Y444D02*
X909Y444D01*
X1302Y444D02*
X1309Y444D01*
X1Y443D02*
X8Y443D01*
X601Y443D02*
X610Y443D01*
X651Y443D02*
X687Y443D01*
X800Y443D02*
X809Y443D01*
X900Y443D02*
X909Y443D01*
X1302Y443D02*
X1309Y443D01*
X1Y442D02*
X8Y442D01*
X601Y442D02*
X610Y442D01*
X651Y442D02*
X686Y442D01*
X800Y442D02*
X809Y442D01*
X900Y442D02*
X909Y442D01*
X1302Y442D02*
X1309Y442D01*
X1Y441D02*
X8Y441D01*
X601Y441D02*
X610Y441D01*
X651Y441D02*
X685Y441D01*
X800Y441D02*
X809Y441D01*
X900Y441D02*
X909Y441D01*
X1302Y441D02*
X1309Y441D01*
X1Y440D02*
X8Y440D01*
X601Y440D02*
X610Y440D01*
X651Y440D02*
X683Y440D01*
X800Y440D02*
X809Y440D01*
X900Y440D02*
X909Y440D01*
X1302Y440D02*
X1309Y440D01*
X1Y439D02*
X8Y439D01*
X601Y439D02*
X610Y439D01*
X652Y439D02*
X676Y439D01*
X800Y439D02*
X809Y439D01*
X900Y439D02*
X909Y439D01*
X1302Y439D02*
X1309Y439D01*
X1Y438D02*
X8Y438D01*
X601Y438D02*
X610Y438D01*
X800Y438D02*
X809Y438D01*
X900Y438D02*
X909Y438D01*
X1302Y438D02*
X1309Y438D01*
X1Y437D02*
X8Y437D01*
X601Y437D02*
X610Y437D01*
X800Y437D02*
X809Y437D01*
X900Y437D02*
X909Y437D01*
X1302Y437D02*
X1309Y437D01*
X1Y436D02*
X8Y436D01*
X601Y436D02*
X610Y436D01*
X800Y436D02*
X809Y436D01*
X900Y436D02*
X909Y436D01*
X1302Y436D02*
X1309Y436D01*
X1Y435D02*
X8Y435D01*
X900Y435D02*
X909Y435D01*
X1302Y435D02*
X1309Y435D01*
X1Y434D02*
X8Y434D01*
X900Y434D02*
X909Y434D01*
X1302Y434D02*
X1309Y434D01*
X1Y433D02*
X8Y433D01*
X900Y433D02*
X909Y433D01*
X1302Y433D02*
X1309Y433D01*
X1Y432D02*
X8Y432D01*
X900Y432D02*
X909Y432D01*
X1302Y432D02*
X1309Y432D01*
X1Y431D02*
X8Y431D01*
X900Y431D02*
X909Y431D01*
X1302Y431D02*
X1309Y431D01*
X1Y430D02*
X8Y430D01*
X900Y430D02*
X909Y430D01*
X1302Y430D02*
X1309Y430D01*
X1Y429D02*
X8Y429D01*
X900Y429D02*
X909Y429D01*
X1302Y429D02*
X1309Y429D01*
X1Y428D02*
X8Y428D01*
X900Y428D02*
X909Y428D01*
X1302Y428D02*
X1309Y428D01*
X1Y427D02*
X8Y427D01*
X900Y427D02*
X909Y427D01*
X1302Y427D02*
X1309Y427D01*
X1Y426D02*
X8Y426D01*
X900Y426D02*
X909Y426D01*
X1302Y426D02*
X1309Y426D01*
X1Y425D02*
X8Y425D01*
X900Y425D02*
X909Y425D01*
X1302Y425D02*
X1309Y425D01*
X1Y424D02*
X8Y424D01*
X900Y424D02*
X909Y424D01*
X1302Y424D02*
X1309Y424D01*
X1Y423D02*
X8Y423D01*
X900Y423D02*
X909Y423D01*
X1302Y423D02*
X1309Y423D01*
X1Y422D02*
X8Y422D01*
X900Y422D02*
X909Y422D01*
X1302Y422D02*
X1309Y422D01*
X1Y421D02*
X8Y421D01*
X900Y421D02*
X909Y421D01*
X1302Y421D02*
X1309Y421D01*
X1Y420D02*
X8Y420D01*
X900Y420D02*
X909Y420D01*
X1302Y420D02*
X1309Y420D01*
X1Y419D02*
X8Y419D01*
X900Y419D02*
X909Y419D01*
X1302Y419D02*
X1309Y419D01*
X1Y418D02*
X8Y418D01*
X900Y418D02*
X909Y418D01*
X1302Y418D02*
X1309Y418D01*
X1Y417D02*
X8Y417D01*
X900Y417D02*
X909Y417D01*
X1302Y417D02*
X1309Y417D01*
X1Y416D02*
X8Y416D01*
X900Y416D02*
X909Y416D01*
X1182Y416D02*
X1193Y416D01*
X1210Y416D02*
X1217Y416D01*
X1236Y416D02*
X1237Y416D01*
X1255Y416D02*
X1268Y416D01*
X1302Y416D02*
X1309Y416D01*
X1Y415D02*
X8Y415D01*
X900Y415D02*
X909Y415D01*
X1179Y415D02*
X1195Y415D01*
X1210Y415D02*
X1217Y415D01*
X1234Y415D02*
X1238Y415D01*
X1254Y415D02*
X1271Y415D01*
X1302Y415D02*
X1309Y415D01*
X1Y414D02*
X8Y414D01*
X900Y414D02*
X909Y414D01*
X1178Y414D02*
X1195Y414D01*
X1210Y414D02*
X1218Y414D01*
X1234Y414D02*
X1239Y414D01*
X1253Y414D02*
X1272Y414D01*
X1302Y414D02*
X1309Y414D01*
X1Y413D02*
X8Y413D01*
X900Y413D02*
X909Y413D01*
X1177Y413D02*
X1195Y413D01*
X1210Y413D02*
X1218Y413D01*
X1234Y413D02*
X1239Y413D01*
X1253Y413D02*
X1273Y413D01*
X1302Y413D02*
X1309Y413D01*
X1Y412D02*
X8Y412D01*
X900Y412D02*
X909Y412D01*
X1176Y412D02*
X1195Y412D01*
X1210Y412D02*
X1219Y412D01*
X1234Y412D02*
X1239Y412D01*
X1254Y412D02*
X1274Y412D01*
X1302Y412D02*
X1309Y412D01*
X1Y411D02*
X8Y411D01*
X900Y411D02*
X909Y411D01*
X1175Y411D02*
X1194Y411D01*
X1210Y411D02*
X1219Y411D01*
X1234Y411D02*
X1239Y411D01*
X1254Y411D02*
X1275Y411D01*
X1302Y411D02*
X1309Y411D01*
X1Y410D02*
X8Y410D01*
X900Y410D02*
X909Y410D01*
X1175Y410D02*
X1183Y410D01*
X1210Y410D02*
X1219Y410D01*
X1234Y410D02*
X1239Y410D01*
X1259Y410D02*
X1265Y410D01*
X1268Y410D02*
X1275Y410D01*
X1302Y410D02*
X1309Y410D01*
X1Y409D02*
X8Y409D01*
X900Y409D02*
X909Y409D01*
X1174Y409D02*
X1181Y409D01*
X1210Y409D02*
X1220Y409D01*
X1234Y409D02*
X1239Y409D01*
X1259Y409D02*
X1264Y409D01*
X1270Y409D02*
X1276Y409D01*
X1302Y409D02*
X1309Y409D01*
X1Y408D02*
X8Y408D01*
X900Y408D02*
X909Y408D01*
X1173Y408D02*
X1180Y408D01*
X1210Y408D02*
X1220Y408D01*
X1234Y408D02*
X1239Y408D01*
X1259Y408D02*
X1264Y408D01*
X1270Y408D02*
X1276Y408D01*
X1302Y408D02*
X1309Y408D01*
X1Y407D02*
X8Y407D01*
X900Y407D02*
X909Y407D01*
X1172Y407D02*
X1179Y407D01*
X1210Y407D02*
X1221Y407D01*
X1234Y407D02*
X1239Y407D01*
X1259Y407D02*
X1264Y407D01*
X1271Y407D02*
X1277Y407D01*
X1302Y407D02*
X1309Y407D01*
X1Y406D02*
X8Y406D01*
X900Y406D02*
X909Y406D01*
X1172Y406D02*
X1178Y406D01*
X1210Y406D02*
X1221Y406D01*
X1234Y406D02*
X1239Y406D01*
X1259Y406D02*
X1264Y406D01*
X1271Y406D02*
X1277Y406D01*
X1302Y406D02*
X1309Y406D01*
X1Y405D02*
X8Y405D01*
X900Y405D02*
X909Y405D01*
X1171Y405D02*
X1178Y405D01*
X1210Y405D02*
X1222Y405D01*
X1234Y405D02*
X1239Y405D01*
X1259Y405D02*
X1264Y405D01*
X1272Y405D02*
X1278Y405D01*
X1302Y405D02*
X1309Y405D01*
X1Y404D02*
X8Y404D01*
X900Y404D02*
X909Y404D01*
X1170Y404D02*
X1177Y404D01*
X1210Y404D02*
X1222Y404D01*
X1234Y404D02*
X1239Y404D01*
X1259Y404D02*
X1264Y404D01*
X1272Y404D02*
X1278Y404D01*
X1302Y404D02*
X1309Y404D01*
X1Y403D02*
X8Y403D01*
X900Y403D02*
X909Y403D01*
X1169Y403D02*
X1176Y403D01*
X1210Y403D02*
X1215Y403D01*
X1217Y403D02*
X1222Y403D01*
X1234Y403D02*
X1239Y403D01*
X1259Y403D02*
X1264Y403D01*
X1273Y403D02*
X1279Y403D01*
X1302Y403D02*
X1309Y403D01*
X1Y402D02*
X8Y402D01*
X1169Y402D02*
X1175Y402D01*
X1210Y402D02*
X1215Y402D01*
X1217Y402D02*
X1223Y402D01*
X1234Y402D02*
X1239Y402D01*
X1259Y402D02*
X1264Y402D01*
X1273Y402D02*
X1279Y402D01*
X1302Y402D02*
X1309Y402D01*
X1Y401D02*
X8Y401D01*
X1168Y401D02*
X1174Y401D01*
X1210Y401D02*
X1215Y401D01*
X1218Y401D02*
X1223Y401D01*
X1234Y401D02*
X1239Y401D01*
X1259Y401D02*
X1264Y401D01*
X1274Y401D02*
X1280Y401D01*
X1302Y401D02*
X1309Y401D01*
X1Y400D02*
X8Y400D01*
X1167Y400D02*
X1174Y400D01*
X1210Y400D02*
X1215Y400D01*
X1218Y400D02*
X1224Y400D01*
X1234Y400D02*
X1239Y400D01*
X1259Y400D02*
X1264Y400D01*
X1274Y400D02*
X1280Y400D01*
X1302Y400D02*
X1309Y400D01*
X1Y399D02*
X8Y399D01*
X1167Y399D02*
X1173Y399D01*
X1210Y399D02*
X1215Y399D01*
X1219Y399D02*
X1224Y399D01*
X1234Y399D02*
X1239Y399D01*
X1259Y399D02*
X1264Y399D01*
X1275Y399D02*
X1281Y399D01*
X1302Y399D02*
X1309Y399D01*
X1Y398D02*
X8Y398D01*
X1167Y398D02*
X1172Y398D01*
X1210Y398D02*
X1215Y398D01*
X1219Y398D02*
X1225Y398D01*
X1234Y398D02*
X1239Y398D01*
X1259Y398D02*
X1264Y398D01*
X1275Y398D02*
X1281Y398D01*
X1302Y398D02*
X1309Y398D01*
X1Y397D02*
X8Y397D01*
X1166Y397D02*
X1172Y397D01*
X1210Y397D02*
X1215Y397D01*
X1219Y397D02*
X1225Y397D01*
X1234Y397D02*
X1239Y397D01*
X1259Y397D02*
X1264Y397D01*
X1276Y397D02*
X1282Y397D01*
X1302Y397D02*
X1309Y397D01*
X1Y396D02*
X8Y396D01*
X1166Y396D02*
X1171Y396D01*
X1210Y396D02*
X1215Y396D01*
X1220Y396D02*
X1226Y396D01*
X1234Y396D02*
X1239Y396D01*
X1259Y396D02*
X1264Y396D01*
X1276Y396D02*
X1282Y396D01*
X1302Y396D02*
X1309Y396D01*
X1Y395D02*
X8Y395D01*
X1166Y395D02*
X1171Y395D01*
X1210Y395D02*
X1215Y395D01*
X1220Y395D02*
X1226Y395D01*
X1234Y395D02*
X1239Y395D01*
X1259Y395D02*
X1264Y395D01*
X1277Y395D02*
X1282Y395D01*
X1302Y395D02*
X1309Y395D01*
X1Y394D02*
X8Y394D01*
X1166Y394D02*
X1171Y394D01*
X1210Y394D02*
X1215Y394D01*
X1221Y394D02*
X1226Y394D01*
X1234Y394D02*
X1239Y394D01*
X1259Y394D02*
X1264Y394D01*
X1277Y394D02*
X1282Y394D01*
X1302Y394D02*
X1309Y394D01*
X1Y393D02*
X8Y393D01*
X1166Y393D02*
X1171Y393D01*
X1210Y393D02*
X1215Y393D01*
X1221Y393D02*
X1227Y393D01*
X1234Y393D02*
X1239Y393D01*
X1259Y393D02*
X1264Y393D01*
X1277Y393D02*
X1282Y393D01*
X1302Y393D02*
X1309Y393D01*
X1Y392D02*
X8Y392D01*
X1166Y392D02*
X1171Y392D01*
X1210Y392D02*
X1215Y392D01*
X1222Y392D02*
X1227Y392D01*
X1234Y392D02*
X1239Y392D01*
X1259Y392D02*
X1264Y392D01*
X1277Y392D02*
X1282Y392D01*
X1302Y392D02*
X1309Y392D01*
X1Y391D02*
X8Y391D01*
X1166Y391D02*
X1171Y391D01*
X1210Y391D02*
X1215Y391D01*
X1222Y391D02*
X1228Y391D01*
X1234Y391D02*
X1239Y391D01*
X1259Y391D02*
X1264Y391D01*
X1277Y391D02*
X1282Y391D01*
X1302Y391D02*
X1309Y391D01*
X1Y390D02*
X8Y390D01*
X1166Y390D02*
X1171Y390D01*
X1182Y390D02*
X1195Y390D01*
X1210Y390D02*
X1215Y390D01*
X1222Y390D02*
X1228Y390D01*
X1234Y390D02*
X1239Y390D01*
X1259Y390D02*
X1264Y390D01*
X1277Y390D02*
X1282Y390D01*
X1302Y390D02*
X1309Y390D01*
X1Y389D02*
X8Y389D01*
X1166Y389D02*
X1171Y389D01*
X1182Y389D02*
X1195Y389D01*
X1210Y389D02*
X1215Y389D01*
X1223Y389D02*
X1229Y389D01*
X1234Y389D02*
X1239Y389D01*
X1259Y389D02*
X1264Y389D01*
X1276Y389D02*
X1282Y389D01*
X1302Y389D02*
X1309Y389D01*
X1Y388D02*
X8Y388D01*
X1166Y388D02*
X1171Y388D01*
X1181Y388D02*
X1195Y388D01*
X1210Y388D02*
X1215Y388D01*
X1223Y388D02*
X1229Y388D01*
X1234Y388D02*
X1239Y388D01*
X1259Y388D02*
X1264Y388D01*
X1276Y388D02*
X1281Y388D01*
X1302Y388D02*
X1309Y388D01*
X1Y387D02*
X8Y387D01*
X1166Y387D02*
X1171Y387D01*
X1181Y387D02*
X1195Y387D01*
X1210Y387D02*
X1215Y387D01*
X1224Y387D02*
X1230Y387D01*
X1234Y387D02*
X1239Y387D01*
X1259Y387D02*
X1264Y387D01*
X1275Y387D02*
X1281Y387D01*
X1302Y387D02*
X1309Y387D01*
X1Y386D02*
X8Y386D01*
X1166Y386D02*
X1171Y386D01*
X1181Y386D02*
X1195Y386D01*
X1210Y386D02*
X1215Y386D01*
X1224Y386D02*
X1230Y386D01*
X1234Y386D02*
X1239Y386D01*
X1259Y386D02*
X1264Y386D01*
X1275Y386D02*
X1281Y386D01*
X1302Y386D02*
X1309Y386D01*
X1Y385D02*
X8Y385D01*
X1166Y385D02*
X1171Y385D01*
X1182Y385D02*
X1195Y385D01*
X1210Y385D02*
X1215Y385D01*
X1225Y385D02*
X1230Y385D01*
X1234Y385D02*
X1239Y385D01*
X1259Y385D02*
X1264Y385D01*
X1274Y385D02*
X1280Y385D01*
X1302Y385D02*
X1309Y385D01*
X1Y384D02*
X8Y384D01*
X1166Y384D02*
X1171Y384D01*
X1190Y384D02*
X1195Y384D01*
X1210Y384D02*
X1215Y384D01*
X1225Y384D02*
X1231Y384D01*
X1234Y384D02*
X1239Y384D01*
X1259Y384D02*
X1264Y384D01*
X1274Y384D02*
X1280Y384D01*
X1302Y384D02*
X1309Y384D01*
X1Y383D02*
X8Y383D01*
X1166Y383D02*
X1171Y383D01*
X1190Y383D02*
X1195Y383D01*
X1210Y383D02*
X1215Y383D01*
X1226Y383D02*
X1231Y383D01*
X1234Y383D02*
X1239Y383D01*
X1259Y383D02*
X1264Y383D01*
X1273Y383D02*
X1279Y383D01*
X1302Y383D02*
X1309Y383D01*
X1Y382D02*
X8Y382D01*
X1166Y382D02*
X1171Y382D01*
X1190Y382D02*
X1195Y382D01*
X1210Y382D02*
X1215Y382D01*
X1226Y382D02*
X1232Y382D01*
X1234Y382D02*
X1239Y382D01*
X1259Y382D02*
X1264Y382D01*
X1273Y382D02*
X1279Y382D01*
X1302Y382D02*
X1309Y382D01*
X1Y381D02*
X8Y381D01*
X1166Y381D02*
X1171Y381D01*
X1190Y381D02*
X1195Y381D01*
X1210Y381D02*
X1215Y381D01*
X1226Y381D02*
X1232Y381D01*
X1234Y381D02*
X1239Y381D01*
X1259Y381D02*
X1264Y381D01*
X1272Y381D02*
X1278Y381D01*
X1302Y381D02*
X1309Y381D01*
X1Y380D02*
X8Y380D01*
X1166Y380D02*
X1171Y380D01*
X1190Y380D02*
X1195Y380D01*
X1210Y380D02*
X1215Y380D01*
X1227Y380D02*
X1239Y380D01*
X1259Y380D02*
X1264Y380D01*
X1272Y380D02*
X1278Y380D01*
X1302Y380D02*
X1309Y380D01*
X1Y379D02*
X8Y379D01*
X1166Y379D02*
X1171Y379D01*
X1190Y379D02*
X1195Y379D01*
X1210Y379D02*
X1215Y379D01*
X1227Y379D02*
X1239Y379D01*
X1259Y379D02*
X1264Y379D01*
X1271Y379D02*
X1277Y379D01*
X1302Y379D02*
X1309Y379D01*
X1Y378D02*
X28Y378D01*
X1166Y378D02*
X1171Y378D01*
X1190Y378D02*
X1195Y378D01*
X1210Y378D02*
X1215Y378D01*
X1228Y378D02*
X1239Y378D01*
X1259Y378D02*
X1264Y378D01*
X1271Y378D02*
X1277Y378D01*
X1302Y378D02*
X1309Y378D01*
X1Y377D02*
X28Y377D01*
X1166Y377D02*
X1171Y377D01*
X1190Y377D02*
X1195Y377D01*
X1210Y377D02*
X1215Y377D01*
X1228Y377D02*
X1239Y377D01*
X1259Y377D02*
X1264Y377D01*
X1270Y377D02*
X1276Y377D01*
X1302Y377D02*
X1309Y377D01*
X1Y376D02*
X28Y376D01*
X1166Y376D02*
X1172Y376D01*
X1189Y376D02*
X1195Y376D01*
X1210Y376D02*
X1215Y376D01*
X1229Y376D02*
X1239Y376D01*
X1259Y376D02*
X1264Y376D01*
X1269Y376D02*
X1276Y376D01*
X1302Y376D02*
X1309Y376D01*
X1Y375D02*
X28Y375D01*
X1167Y375D02*
X1195Y375D01*
X1210Y375D02*
X1215Y375D01*
X1229Y375D02*
X1239Y375D01*
X1256Y375D02*
X1275Y375D01*
X1302Y375D02*
X1309Y375D01*
X1Y374D02*
X28Y374D01*
X1167Y374D02*
X1194Y374D01*
X1210Y374D02*
X1215Y374D01*
X1229Y374D02*
X1239Y374D01*
X1254Y374D02*
X1275Y374D01*
X1302Y374D02*
X1309Y374D01*
X1Y373D02*
X28Y373D01*
X1168Y373D02*
X1194Y373D01*
X1210Y373D02*
X1215Y373D01*
X1230Y373D02*
X1239Y373D01*
X1253Y373D02*
X1274Y373D01*
X1302Y373D02*
X1309Y373D01*
X1Y372D02*
X28Y372D01*
X1168Y372D02*
X1193Y372D01*
X1210Y372D02*
X1215Y372D01*
X1230Y372D02*
X1239Y372D01*
X1253Y372D02*
X1273Y372D01*
X1302Y372D02*
X1309Y372D01*
X1Y371D02*
X8Y371D01*
X1170Y371D02*
X1192Y371D01*
X1210Y371D02*
X1214Y371D01*
X1231Y371D02*
X1239Y371D01*
X1253Y371D02*
X1272Y371D01*
X1302Y371D02*
X1309Y371D01*
X1Y370D02*
X8Y370D01*
X1171Y370D02*
X1190Y370D01*
X1211Y370D02*
X1214Y370D01*
X1231Y370D02*
X1239Y370D01*
X1254Y370D02*
X1271Y370D01*
X1302Y370D02*
X1309Y370D01*
X1Y369D02*
X8Y369D01*
X1302Y369D02*
X1309Y369D01*
X1Y368D02*
X8Y368D01*
X1302Y368D02*
X1309Y368D01*
X1Y367D02*
X8Y367D01*
X1302Y367D02*
X1309Y367D01*
X1Y366D02*
X8Y366D01*
X1302Y366D02*
X1309Y366D01*
X1Y365D02*
X8Y365D01*
X1302Y365D02*
X1309Y365D01*
X1Y364D02*
X8Y364D01*
X1302Y364D02*
X1309Y364D01*
X1Y363D02*
X8Y363D01*
X1302Y363D02*
X1309Y363D01*
X1Y362D02*
X8Y362D01*
X1302Y362D02*
X1309Y362D01*
X1Y361D02*
X8Y361D01*
X1302Y361D02*
X1309Y361D01*
X1Y360D02*
X8Y360D01*
X1302Y360D02*
X1309Y360D01*
X1Y359D02*
X8Y359D01*
X1302Y359D02*
X1309Y359D01*
X1Y358D02*
X8Y358D01*
X1302Y358D02*
X1309Y358D01*
X1Y357D02*
X8Y357D01*
X1302Y357D02*
X1309Y357D01*
X1Y356D02*
X8Y356D01*
X1302Y356D02*
X1309Y356D01*
X1Y355D02*
X8Y355D01*
X1302Y355D02*
X1309Y355D01*
X1Y354D02*
X8Y354D01*
X1302Y354D02*
X1309Y354D01*
X1Y353D02*
X8Y353D01*
X1302Y353D02*
X1309Y353D01*
X1Y352D02*
X8Y352D01*
X1302Y352D02*
X1309Y352D01*
X1Y351D02*
X8Y351D01*
X1302Y351D02*
X1309Y351D01*
X1Y350D02*
X8Y350D01*
X1302Y350D02*
X1309Y350D01*
X1Y349D02*
X8Y349D01*
X1302Y349D02*
X1309Y349D01*
X1Y348D02*
X8Y348D01*
X1302Y348D02*
X1309Y348D01*
X1Y347D02*
X8Y347D01*
X1302Y347D02*
X1309Y347D01*
X1Y346D02*
X8Y346D01*
X1302Y346D02*
X1309Y346D01*
X1Y345D02*
X8Y345D01*
X1302Y345D02*
X1309Y345D01*
X1Y344D02*
X8Y344D01*
X1302Y344D02*
X1309Y344D01*
X1Y343D02*
X8Y343D01*
X1302Y343D02*
X1309Y343D01*
X1Y342D02*
X8Y342D01*
X1302Y342D02*
X1309Y342D01*
X1Y341D02*
X8Y341D01*
X1302Y341D02*
X1309Y341D01*
X1Y340D02*
X8Y340D01*
X1302Y340D02*
X1309Y340D01*
X1Y339D02*
X8Y339D01*
X1302Y339D02*
X1309Y339D01*
X1Y338D02*
X8Y338D01*
X1302Y338D02*
X1309Y338D01*
X1Y337D02*
X8Y337D01*
X1302Y337D02*
X1309Y337D01*
X1Y336D02*
X8Y336D01*
X1302Y336D02*
X1309Y336D01*
X1Y335D02*
X8Y335D01*
X1302Y335D02*
X1309Y335D01*
X1Y334D02*
X8Y334D01*
X1302Y334D02*
X1309Y334D01*
X1Y333D02*
X8Y333D01*
X1302Y333D02*
X1309Y333D01*
X1Y332D02*
X8Y332D01*
X1302Y332D02*
X1309Y332D01*
X1Y331D02*
X8Y331D01*
X1302Y331D02*
X1309Y331D01*
X1Y330D02*
X8Y330D01*
X1302Y330D02*
X1309Y330D01*
X1Y329D02*
X8Y329D01*
X1302Y329D02*
X1309Y329D01*
X1Y328D02*
X8Y328D01*
X1302Y328D02*
X1309Y328D01*
X1Y327D02*
X8Y327D01*
X1302Y327D02*
X1309Y327D01*
X1Y326D02*
X8Y326D01*
X1302Y326D02*
X1309Y326D01*
X1Y325D02*
X8Y325D01*
X1302Y325D02*
X1309Y325D01*
X1Y324D02*
X8Y324D01*
X1302Y324D02*
X1309Y324D01*
X1Y323D02*
X8Y323D01*
X1302Y323D02*
X1309Y323D01*
X1Y322D02*
X8Y322D01*
X1302Y322D02*
X1309Y322D01*
X1Y321D02*
X8Y321D01*
X1302Y321D02*
X1309Y321D01*
X1Y320D02*
X8Y320D01*
X1302Y320D02*
X1309Y320D01*
X1Y319D02*
X8Y319D01*
X1302Y319D02*
X1309Y319D01*
X1Y318D02*
X8Y318D01*
X1302Y318D02*
X1309Y318D01*
X1Y317D02*
X8Y317D01*
X762Y317D02*
X789Y317D01*
X813Y317D02*
X841Y317D01*
X1302Y317D02*
X1309Y317D01*
X1Y316D02*
X8Y316D01*
X762Y316D02*
X791Y316D01*
X812Y316D02*
X843Y316D01*
X1302Y316D02*
X1309Y316D01*
X1Y315D02*
X8Y315D01*
X762Y315D02*
X792Y315D01*
X812Y315D02*
X844Y315D01*
X1302Y315D02*
X1309Y315D01*
X1Y314D02*
X8Y314D01*
X762Y314D02*
X793Y314D01*
X812Y314D02*
X844Y314D01*
X1302Y314D02*
X1309Y314D01*
X1Y313D02*
X8Y313D01*
X762Y313D02*
X793Y313D01*
X812Y313D02*
X845Y313D01*
X1302Y313D02*
X1309Y313D01*
X1Y312D02*
X8Y312D01*
X762Y312D02*
X794Y312D01*
X813Y312D02*
X845Y312D01*
X1302Y312D02*
X1309Y312D01*
X1Y311D02*
X8Y311D01*
X762Y311D02*
X794Y311D01*
X815Y311D02*
X845Y311D01*
X1302Y311D02*
X1309Y311D01*
X1Y310D02*
X8Y310D01*
X762Y310D02*
X768Y310D01*
X788Y310D02*
X795Y310D01*
X839Y310D02*
X845Y310D01*
X1302Y310D02*
X1309Y310D01*
X1Y309D02*
X8Y309D01*
X762Y309D02*
X768Y309D01*
X789Y309D02*
X795Y309D01*
X839Y309D02*
X845Y309D01*
X1302Y309D02*
X1309Y309D01*
X1Y308D02*
X8Y308D01*
X762Y308D02*
X768Y308D01*
X789Y308D02*
X795Y308D01*
X839Y308D02*
X845Y308D01*
X1302Y308D02*
X1309Y308D01*
X1Y307D02*
X8Y307D01*
X762Y307D02*
X768Y307D01*
X789Y307D02*
X795Y307D01*
X839Y307D02*
X845Y307D01*
X1302Y307D02*
X1309Y307D01*
X1Y306D02*
X8Y306D01*
X762Y306D02*
X768Y306D01*
X789Y306D02*
X795Y306D01*
X839Y306D02*
X845Y306D01*
X1302Y306D02*
X1309Y306D01*
X1Y305D02*
X8Y305D01*
X762Y305D02*
X768Y305D01*
X789Y305D02*
X795Y305D01*
X839Y305D02*
X845Y305D01*
X1302Y305D02*
X1309Y305D01*
X1Y304D02*
X8Y304D01*
X762Y304D02*
X768Y304D01*
X789Y304D02*
X795Y304D01*
X839Y304D02*
X845Y304D01*
X1302Y304D02*
X1309Y304D01*
X1Y303D02*
X8Y303D01*
X762Y303D02*
X768Y303D01*
X789Y303D02*
X795Y303D01*
X839Y303D02*
X845Y303D01*
X1302Y303D02*
X1309Y303D01*
X1Y302D02*
X8Y302D01*
X762Y302D02*
X768Y302D01*
X788Y302D02*
X795Y302D01*
X839Y302D02*
X845Y302D01*
X1302Y302D02*
X1309Y302D01*
X1Y301D02*
X8Y301D01*
X762Y301D02*
X768Y301D01*
X787Y301D02*
X795Y301D01*
X839Y301D02*
X845Y301D01*
X1302Y301D02*
X1309Y301D01*
X1Y300D02*
X8Y300D01*
X762Y300D02*
X794Y300D01*
X839Y300D02*
X845Y300D01*
X1302Y300D02*
X1309Y300D01*
X1Y299D02*
X8Y299D01*
X762Y299D02*
X794Y299D01*
X839Y299D02*
X845Y299D01*
X1302Y299D02*
X1309Y299D01*
X1Y298D02*
X8Y298D01*
X762Y298D02*
X793Y298D01*
X839Y298D02*
X845Y298D01*
X1302Y298D02*
X1309Y298D01*
X1Y297D02*
X8Y297D01*
X762Y297D02*
X792Y297D01*
X839Y297D02*
X845Y297D01*
X1302Y297D02*
X1309Y297D01*
X1Y296D02*
X8Y296D01*
X762Y296D02*
X791Y296D01*
X839Y296D02*
X845Y296D01*
X1302Y296D02*
X1309Y296D01*
X1Y295D02*
X8Y295D01*
X762Y295D02*
X790Y295D01*
X839Y295D02*
X845Y295D01*
X1302Y295D02*
X1309Y295D01*
X1Y294D02*
X8Y294D01*
X762Y294D02*
X788Y294D01*
X816Y294D02*
X845Y294D01*
X1302Y294D02*
X1309Y294D01*
X1Y293D02*
X8Y293D01*
X762Y293D02*
X768Y293D01*
X773Y293D02*
X781Y293D01*
X814Y293D02*
X845Y293D01*
X1302Y293D02*
X1309Y293D01*
X1Y292D02*
X8Y292D01*
X762Y292D02*
X768Y292D01*
X774Y292D02*
X781Y292D01*
X813Y292D02*
X845Y292D01*
X1302Y292D02*
X1309Y292D01*
X1Y291D02*
X8Y291D01*
X762Y291D02*
X768Y291D01*
X775Y291D02*
X782Y291D01*
X813Y291D02*
X844Y291D01*
X1302Y291D02*
X1309Y291D01*
X1Y290D02*
X8Y290D01*
X762Y290D02*
X768Y290D01*
X775Y290D02*
X782Y290D01*
X812Y290D02*
X843Y290D01*
X1302Y290D02*
X1309Y290D01*
X1Y289D02*
X8Y289D01*
X762Y289D02*
X768Y289D01*
X776Y289D02*
X783Y289D01*
X812Y289D02*
X842Y289D01*
X1302Y289D02*
X1309Y289D01*
X1Y288D02*
X8Y288D01*
X762Y288D02*
X768Y288D01*
X776Y288D02*
X784Y288D01*
X812Y288D02*
X841Y288D01*
X1302Y288D02*
X1309Y288D01*
X1Y287D02*
X8Y287D01*
X762Y287D02*
X768Y287D01*
X777Y287D02*
X784Y287D01*
X811Y287D02*
X818Y287D01*
X1302Y287D02*
X1309Y287D01*
X1Y286D02*
X8Y286D01*
X762Y286D02*
X768Y286D01*
X778Y286D02*
X785Y286D01*
X811Y286D02*
X818Y286D01*
X1302Y286D02*
X1309Y286D01*
X1Y285D02*
X8Y285D01*
X762Y285D02*
X768Y285D01*
X778Y285D02*
X785Y285D01*
X811Y285D02*
X818Y285D01*
X1302Y285D02*
X1309Y285D01*
X1Y284D02*
X8Y284D01*
X762Y284D02*
X768Y284D01*
X779Y284D02*
X786Y284D01*
X811Y284D02*
X818Y284D01*
X1302Y284D02*
X1309Y284D01*
X1Y283D02*
X8Y283D01*
X762Y283D02*
X768Y283D01*
X779Y283D02*
X786Y283D01*
X811Y283D02*
X818Y283D01*
X1302Y283D02*
X1309Y283D01*
X1Y282D02*
X8Y282D01*
X762Y282D02*
X768Y282D01*
X780Y282D02*
X787Y282D01*
X811Y282D02*
X818Y282D01*
X1302Y282D02*
X1309Y282D01*
X1Y281D02*
X8Y281D01*
X762Y281D02*
X768Y281D01*
X780Y281D02*
X788Y281D01*
X811Y281D02*
X818Y281D01*
X1302Y281D02*
X1309Y281D01*
X1Y280D02*
X8Y280D01*
X762Y280D02*
X768Y280D01*
X781Y280D02*
X788Y280D01*
X811Y280D02*
X818Y280D01*
X1302Y280D02*
X1309Y280D01*
X1Y279D02*
X8Y279D01*
X762Y279D02*
X768Y279D01*
X782Y279D02*
X789Y279D01*
X811Y279D02*
X818Y279D01*
X1302Y279D02*
X1309Y279D01*
X1Y278D02*
X8Y278D01*
X762Y278D02*
X768Y278D01*
X782Y278D02*
X789Y278D01*
X811Y278D02*
X818Y278D01*
X1302Y278D02*
X1309Y278D01*
X1Y277D02*
X8Y277D01*
X762Y277D02*
X768Y277D01*
X783Y277D02*
X790Y277D01*
X811Y277D02*
X818Y277D01*
X1302Y277D02*
X1309Y277D01*
X1Y276D02*
X8Y276D01*
X762Y276D02*
X768Y276D01*
X783Y276D02*
X791Y276D01*
X811Y276D02*
X818Y276D01*
X1302Y276D02*
X1309Y276D01*
X1Y275D02*
X8Y275D01*
X762Y275D02*
X768Y275D01*
X784Y275D02*
X791Y275D01*
X811Y275D02*
X818Y275D01*
X1302Y275D02*
X1309Y275D01*
X1Y274D02*
X8Y274D01*
X762Y274D02*
X768Y274D01*
X785Y274D02*
X792Y274D01*
X811Y274D02*
X818Y274D01*
X1302Y274D02*
X1309Y274D01*
X1Y273D02*
X8Y273D01*
X762Y273D02*
X768Y273D01*
X785Y273D02*
X792Y273D01*
X811Y273D02*
X818Y273D01*
X1302Y273D02*
X1309Y273D01*
X1Y272D02*
X8Y272D01*
X762Y272D02*
X768Y272D01*
X786Y272D02*
X793Y272D01*
X811Y272D02*
X818Y272D01*
X1302Y272D02*
X1309Y272D01*
X1Y271D02*
X8Y271D01*
X762Y271D02*
X768Y271D01*
X786Y271D02*
X793Y271D01*
X811Y271D02*
X818Y271D01*
X1302Y271D02*
X1309Y271D01*
X1Y270D02*
X8Y270D01*
X762Y270D02*
X768Y270D01*
X787Y270D02*
X794Y270D01*
X811Y270D02*
X844Y270D01*
X1302Y270D02*
X1309Y270D01*
X1Y269D02*
X8Y269D01*
X762Y269D02*
X768Y269D01*
X787Y269D02*
X795Y269D01*
X811Y269D02*
X845Y269D01*
X1302Y269D02*
X1309Y269D01*
X1Y268D02*
X8Y268D01*
X762Y268D02*
X768Y268D01*
X788Y268D02*
X795Y268D01*
X811Y268D02*
X845Y268D01*
X1302Y268D02*
X1309Y268D01*
X1Y267D02*
X8Y267D01*
X762Y267D02*
X767Y267D01*
X789Y267D02*
X795Y267D01*
X811Y267D02*
X845Y267D01*
X1302Y267D02*
X1309Y267D01*
X1Y266D02*
X8Y266D01*
X762Y266D02*
X767Y266D01*
X789Y266D02*
X795Y266D01*
X811Y266D02*
X845Y266D01*
X1302Y266D02*
X1309Y266D01*
X1Y265D02*
X8Y265D01*
X762Y265D02*
X767Y265D01*
X790Y265D02*
X794Y265D01*
X811Y265D02*
X844Y265D01*
X1302Y265D02*
X1309Y265D01*
X1Y264D02*
X8Y264D01*
X764Y264D02*
X765Y264D01*
X791Y264D02*
X792Y264D01*
X812Y264D02*
X842Y264D01*
X1302Y264D02*
X1309Y264D01*
X1Y263D02*
X8Y263D01*
X1302Y263D02*
X1309Y263D01*
X1Y262D02*
X8Y262D01*
X1302Y262D02*
X1309Y262D01*
X1Y261D02*
X8Y261D01*
X1302Y261D02*
X1309Y261D01*
X1Y260D02*
X8Y260D01*
X1302Y260D02*
X1309Y260D01*
X1Y259D02*
X8Y259D01*
X1302Y259D02*
X1309Y259D01*
X1Y258D02*
X8Y258D01*
X1302Y258D02*
X1309Y258D01*
X1Y257D02*
X8Y257D01*
X1302Y257D02*
X1309Y257D01*
X1Y256D02*
X8Y256D01*
X1302Y256D02*
X1309Y256D01*
X1Y255D02*
X8Y255D01*
X1302Y255D02*
X1309Y255D01*
X1Y254D02*
X8Y254D01*
X742Y254D02*
X757Y254D01*
X789Y254D02*
X808Y254D01*
X830Y254D02*
X830Y254D01*
X1302Y254D02*
X1309Y254D01*
X1Y253D02*
X8Y253D01*
X741Y253D02*
X757Y253D01*
X786Y253D02*
X810Y253D01*
X828Y253D02*
X832Y253D01*
X1302Y253D02*
X1309Y253D01*
X1Y252D02*
X8Y252D01*
X740Y252D02*
X757Y252D01*
X785Y252D02*
X811Y252D01*
X827Y252D02*
X832Y252D01*
X1302Y252D02*
X1309Y252D01*
X1Y251D02*
X8Y251D01*
X740Y251D02*
X757Y251D01*
X785Y251D02*
X812Y251D01*
X827Y251D02*
X832Y251D01*
X1302Y251D02*
X1309Y251D01*
X1Y250D02*
X8Y250D01*
X740Y250D02*
X757Y250D01*
X784Y250D02*
X812Y250D01*
X827Y250D02*
X832Y250D01*
X1302Y250D02*
X1309Y250D01*
X1Y249D02*
X8Y249D01*
X741Y249D02*
X757Y249D01*
X784Y249D02*
X813Y249D01*
X827Y249D02*
X832Y249D01*
X1302Y249D02*
X1309Y249D01*
X1Y248D02*
X8Y248D01*
X82Y248D02*
X97Y248D01*
X116Y248D02*
X149Y248D01*
X168Y248D02*
X186Y248D01*
X752Y248D02*
X757Y248D01*
X784Y248D02*
X789Y248D01*
X807Y248D02*
X813Y248D01*
X827Y248D02*
X832Y248D01*
X1302Y248D02*
X1309Y248D01*
X1Y247D02*
X8Y247D01*
X79Y247D02*
X99Y247D01*
X116Y247D02*
X150Y247D01*
X167Y247D02*
X186Y247D01*
X752Y247D02*
X757Y247D01*
X784Y247D02*
X789Y247D01*
X808Y247D02*
X813Y247D01*
X827Y247D02*
X832Y247D01*
X1302Y247D02*
X1309Y247D01*
X1Y246D02*
X8Y246D01*
X78Y246D02*
X99Y246D01*
X116Y246D02*
X150Y246D01*
X166Y246D02*
X186Y246D01*
X752Y246D02*
X757Y246D01*
X784Y246D02*
X789Y246D01*
X808Y246D02*
X813Y246D01*
X827Y246D02*
X832Y246D01*
X1302Y246D02*
X1309Y246D01*
X1Y245D02*
X8Y245D01*
X76Y245D02*
X100Y245D01*
X116Y245D02*
X150Y245D01*
X166Y245D02*
X186Y245D01*
X752Y245D02*
X757Y245D01*
X784Y245D02*
X789Y245D01*
X808Y245D02*
X813Y245D01*
X827Y245D02*
X832Y245D01*
X1302Y245D02*
X1309Y245D01*
X1Y244D02*
X8Y244D01*
X76Y244D02*
X99Y244D01*
X116Y244D02*
X150Y244D01*
X166Y244D02*
X186Y244D01*
X752Y244D02*
X757Y244D01*
X784Y244D02*
X789Y244D01*
X808Y244D02*
X813Y244D01*
X827Y244D02*
X832Y244D01*
X1302Y244D02*
X1309Y244D01*
X1Y243D02*
X8Y243D01*
X75Y243D02*
X99Y243D01*
X116Y243D02*
X150Y243D01*
X167Y243D02*
X186Y243D01*
X752Y243D02*
X757Y243D01*
X784Y243D02*
X789Y243D01*
X808Y243D02*
X813Y243D01*
X827Y243D02*
X832Y243D01*
X1302Y243D02*
X1309Y243D01*
X1Y242D02*
X8Y242D01*
X74Y242D02*
X98Y242D01*
X116Y242D02*
X150Y242D01*
X167Y242D02*
X186Y242D01*
X752Y242D02*
X757Y242D01*
X784Y242D02*
X789Y242D01*
X808Y242D02*
X813Y242D01*
X827Y242D02*
X832Y242D01*
X1302Y242D02*
X1309Y242D01*
X1Y241D02*
X8Y241D01*
X74Y241D02*
X82Y241D01*
X116Y241D02*
X122Y241D01*
X130Y241D02*
X136Y241D01*
X143Y241D02*
X150Y241D01*
X180Y241D02*
X186Y241D01*
X752Y241D02*
X757Y241D01*
X784Y241D02*
X789Y241D01*
X808Y241D02*
X813Y241D01*
X827Y241D02*
X832Y241D01*
X850Y241D02*
X852Y241D01*
X1302Y241D02*
X1309Y241D01*
X1Y240D02*
X8Y240D01*
X73Y240D02*
X81Y240D01*
X116Y240D02*
X122Y240D01*
X130Y240D02*
X136Y240D01*
X144Y240D02*
X150Y240D01*
X180Y240D02*
X186Y240D01*
X752Y240D02*
X757Y240D01*
X784Y240D02*
X789Y240D01*
X808Y240D02*
X813Y240D01*
X827Y240D02*
X832Y240D01*
X849Y240D02*
X853Y240D01*
X1302Y240D02*
X1309Y240D01*
X1Y239D02*
X8Y239D01*
X73Y239D02*
X80Y239D01*
X116Y239D02*
X122Y239D01*
X130Y239D02*
X136Y239D01*
X144Y239D02*
X150Y239D01*
X180Y239D02*
X186Y239D01*
X752Y239D02*
X757Y239D01*
X784Y239D02*
X789Y239D01*
X808Y239D02*
X813Y239D01*
X827Y239D02*
X832Y239D01*
X847Y239D02*
X853Y239D01*
X1302Y239D02*
X1309Y239D01*
X1Y238D02*
X8Y238D01*
X72Y238D02*
X79Y238D01*
X116Y238D02*
X122Y238D01*
X130Y238D02*
X136Y238D01*
X144Y238D02*
X149Y238D01*
X180Y238D02*
X186Y238D01*
X752Y238D02*
X757Y238D01*
X784Y238D02*
X789Y238D01*
X808Y238D02*
X813Y238D01*
X827Y238D02*
X832Y238D01*
X846Y238D02*
X853Y238D01*
X1302Y238D02*
X1309Y238D01*
X1Y237D02*
X8Y237D01*
X72Y237D02*
X79Y237D01*
X117Y237D02*
X121Y237D01*
X130Y237D02*
X136Y237D01*
X144Y237D02*
X149Y237D01*
X180Y237D02*
X186Y237D01*
X752Y237D02*
X757Y237D01*
X784Y237D02*
X789Y237D01*
X808Y237D02*
X813Y237D01*
X827Y237D02*
X832Y237D01*
X845Y237D02*
X853Y237D01*
X1302Y237D02*
X1309Y237D01*
X1Y236D02*
X8Y236D01*
X71Y236D02*
X78Y236D01*
X118Y236D02*
X120Y236D01*
X130Y236D02*
X136Y236D01*
X145Y236D02*
X148Y236D01*
X180Y236D02*
X186Y236D01*
X752Y236D02*
X757Y236D01*
X784Y236D02*
X789Y236D01*
X808Y236D02*
X813Y236D01*
X827Y236D02*
X832Y236D01*
X844Y236D02*
X852Y236D01*
X1302Y236D02*
X1309Y236D01*
X1Y235D02*
X8Y235D01*
X71Y235D02*
X78Y235D01*
X130Y235D02*
X136Y235D01*
X180Y235D02*
X186Y235D01*
X752Y235D02*
X757Y235D01*
X784Y235D02*
X789Y235D01*
X808Y235D02*
X813Y235D01*
X827Y235D02*
X832Y235D01*
X843Y235D02*
X851Y235D01*
X1302Y235D02*
X1309Y235D01*
X1Y234D02*
X8Y234D01*
X70Y234D02*
X77Y234D01*
X130Y234D02*
X136Y234D01*
X180Y234D02*
X186Y234D01*
X752Y234D02*
X757Y234D01*
X784Y234D02*
X789Y234D01*
X808Y234D02*
X813Y234D01*
X827Y234D02*
X832Y234D01*
X842Y234D02*
X850Y234D01*
X1302Y234D02*
X1309Y234D01*
X1Y233D02*
X8Y233D01*
X70Y233D02*
X77Y233D01*
X130Y233D02*
X136Y233D01*
X180Y233D02*
X186Y233D01*
X752Y233D02*
X757Y233D01*
X784Y233D02*
X789Y233D01*
X808Y233D02*
X813Y233D01*
X827Y233D02*
X832Y233D01*
X840Y233D02*
X849Y233D01*
X1302Y233D02*
X1309Y233D01*
X1Y232D02*
X8Y232D01*
X69Y232D02*
X76Y232D01*
X130Y232D02*
X136Y232D01*
X180Y232D02*
X186Y232D01*
X752Y232D02*
X757Y232D01*
X784Y232D02*
X789Y232D01*
X808Y232D02*
X813Y232D01*
X827Y232D02*
X832Y232D01*
X839Y232D02*
X848Y232D01*
X1302Y232D02*
X1309Y232D01*
X1Y231D02*
X8Y231D01*
X69Y231D02*
X76Y231D01*
X130Y231D02*
X136Y231D01*
X180Y231D02*
X186Y231D01*
X752Y231D02*
X757Y231D01*
X784Y231D02*
X789Y231D01*
X808Y231D02*
X813Y231D01*
X827Y231D02*
X832Y231D01*
X838Y231D02*
X847Y231D01*
X1302Y231D02*
X1309Y231D01*
X1Y230D02*
X8Y230D01*
X69Y230D02*
X75Y230D01*
X130Y230D02*
X136Y230D01*
X180Y230D02*
X186Y230D01*
X752Y230D02*
X757Y230D01*
X784Y230D02*
X789Y230D01*
X808Y230D02*
X813Y230D01*
X827Y230D02*
X832Y230D01*
X837Y230D02*
X845Y230D01*
X1302Y230D02*
X1309Y230D01*
X1Y229D02*
X8Y229D01*
X68Y229D02*
X75Y229D01*
X130Y229D02*
X136Y229D01*
X180Y229D02*
X186Y229D01*
X752Y229D02*
X757Y229D01*
X784Y229D02*
X789Y229D01*
X808Y229D02*
X813Y229D01*
X827Y229D02*
X832Y229D01*
X836Y229D02*
X844Y229D01*
X1302Y229D02*
X1309Y229D01*
X1Y228D02*
X8Y228D01*
X68Y228D02*
X74Y228D01*
X130Y228D02*
X136Y228D01*
X180Y228D02*
X186Y228D01*
X752Y228D02*
X757Y228D01*
X766Y228D02*
X768Y228D01*
X784Y228D02*
X789Y228D01*
X808Y228D02*
X813Y228D01*
X827Y228D02*
X832Y228D01*
X835Y228D02*
X843Y228D01*
X1302Y228D02*
X1309Y228D01*
X1Y227D02*
X8Y227D01*
X67Y227D02*
X74Y227D01*
X130Y227D02*
X136Y227D01*
X180Y227D02*
X186Y227D01*
X752Y227D02*
X757Y227D01*
X765Y227D02*
X769Y227D01*
X784Y227D02*
X789Y227D01*
X808Y227D02*
X813Y227D01*
X827Y227D02*
X842Y227D01*
X1302Y227D02*
X1309Y227D01*
X1Y226D02*
X8Y226D01*
X67Y226D02*
X73Y226D01*
X130Y226D02*
X136Y226D01*
X180Y226D02*
X186Y226D01*
X752Y226D02*
X757Y226D01*
X764Y226D02*
X769Y226D01*
X784Y226D02*
X789Y226D01*
X808Y226D02*
X813Y226D01*
X827Y226D02*
X841Y226D01*
X1302Y226D02*
X1309Y226D01*
X1Y225D02*
X8Y225D01*
X67Y225D02*
X73Y225D01*
X130Y225D02*
X136Y225D01*
X180Y225D02*
X186Y225D01*
X752Y225D02*
X757Y225D01*
X764Y225D02*
X769Y225D01*
X784Y225D02*
X789Y225D01*
X808Y225D02*
X813Y225D01*
X827Y225D02*
X840Y225D01*
X1302Y225D02*
X1309Y225D01*
X1Y224D02*
X8Y224D01*
X66Y224D02*
X73Y224D01*
X130Y224D02*
X136Y224D01*
X180Y224D02*
X186Y224D01*
X752Y224D02*
X757Y224D01*
X764Y224D02*
X769Y224D01*
X784Y224D02*
X789Y224D01*
X808Y224D02*
X813Y224D01*
X827Y224D02*
X842Y224D01*
X1302Y224D02*
X1309Y224D01*
X1Y223D02*
X8Y223D01*
X66Y223D02*
X72Y223D01*
X130Y223D02*
X136Y223D01*
X180Y223D02*
X186Y223D01*
X752Y223D02*
X757Y223D01*
X764Y223D02*
X769Y223D01*
X784Y223D02*
X789Y223D01*
X808Y223D02*
X813Y223D01*
X827Y223D02*
X843Y223D01*
X1302Y223D02*
X1309Y223D01*
X1Y222D02*
X8Y222D01*
X66Y222D02*
X72Y222D01*
X130Y222D02*
X136Y222D01*
X180Y222D02*
X186Y222D01*
X752Y222D02*
X757Y222D01*
X764Y222D02*
X769Y222D01*
X784Y222D02*
X789Y222D01*
X808Y222D02*
X813Y222D01*
X827Y222D02*
X844Y222D01*
X1302Y222D02*
X1309Y222D01*
X1Y221D02*
X8Y221D01*
X66Y221D02*
X72Y221D01*
X130Y221D02*
X136Y221D01*
X180Y221D02*
X186Y221D01*
X752Y221D02*
X757Y221D01*
X764Y221D02*
X769Y221D01*
X784Y221D02*
X789Y221D01*
X808Y221D02*
X813Y221D01*
X827Y221D02*
X835Y221D01*
X837Y221D02*
X845Y221D01*
X1302Y221D02*
X1309Y221D01*
X1Y220D02*
X8Y220D01*
X66Y220D02*
X72Y220D01*
X130Y220D02*
X136Y220D01*
X180Y220D02*
X186Y220D01*
X752Y220D02*
X757Y220D01*
X764Y220D02*
X769Y220D01*
X784Y220D02*
X789Y220D01*
X808Y220D02*
X813Y220D01*
X827Y220D02*
X834Y220D01*
X838Y220D02*
X846Y220D01*
X1302Y220D02*
X1309Y220D01*
X1Y219D02*
X8Y219D01*
X66Y219D02*
X72Y219D01*
X130Y219D02*
X136Y219D01*
X180Y219D02*
X186Y219D01*
X752Y219D02*
X757Y219D01*
X764Y219D02*
X769Y219D01*
X784Y219D02*
X789Y219D01*
X808Y219D02*
X813Y219D01*
X827Y219D02*
X833Y219D01*
X839Y219D02*
X847Y219D01*
X1302Y219D02*
X1309Y219D01*
X1Y218D02*
X8Y218D01*
X66Y218D02*
X73Y218D01*
X130Y218D02*
X136Y218D01*
X180Y218D02*
X186Y218D01*
X195Y218D02*
X198Y218D01*
X752Y218D02*
X757Y218D01*
X764Y218D02*
X769Y218D01*
X784Y218D02*
X789Y218D01*
X808Y218D02*
X813Y218D01*
X827Y218D02*
X832Y218D01*
X840Y218D02*
X849Y218D01*
X1302Y218D02*
X1309Y218D01*
X1Y217D02*
X8Y217D01*
X67Y217D02*
X73Y217D01*
X130Y217D02*
X136Y217D01*
X180Y217D02*
X186Y217D01*
X194Y217D02*
X199Y217D01*
X752Y217D02*
X757Y217D01*
X764Y217D02*
X769Y217D01*
X784Y217D02*
X789Y217D01*
X808Y217D02*
X813Y217D01*
X827Y217D02*
X832Y217D01*
X841Y217D02*
X850Y217D01*
X1302Y217D02*
X1309Y217D01*
X1Y216D02*
X8Y216D01*
X67Y216D02*
X74Y216D01*
X130Y216D02*
X136Y216D01*
X180Y216D02*
X186Y216D01*
X194Y216D02*
X199Y216D01*
X752Y216D02*
X757Y216D01*
X764Y216D02*
X769Y216D01*
X784Y216D02*
X789Y216D01*
X808Y216D02*
X813Y216D01*
X827Y216D02*
X832Y216D01*
X843Y216D02*
X851Y216D01*
X1302Y216D02*
X1309Y216D01*
X1Y215D02*
X8Y215D01*
X67Y215D02*
X74Y215D01*
X130Y215D02*
X136Y215D01*
X180Y215D02*
X186Y215D01*
X194Y215D02*
X200Y215D01*
X752Y215D02*
X757Y215D01*
X764Y215D02*
X769Y215D01*
X784Y215D02*
X789Y215D01*
X808Y215D02*
X813Y215D01*
X827Y215D02*
X832Y215D01*
X844Y215D02*
X852Y215D01*
X1302Y215D02*
X1309Y215D01*
X1Y214D02*
X8Y214D01*
X68Y214D02*
X75Y214D01*
X130Y214D02*
X136Y214D01*
X180Y214D02*
X186Y214D01*
X194Y214D02*
X200Y214D01*
X752Y214D02*
X757Y214D01*
X764Y214D02*
X769Y214D01*
X784Y214D02*
X789Y214D01*
X808Y214D02*
X813Y214D01*
X827Y214D02*
X832Y214D01*
X845Y214D02*
X853Y214D01*
X1302Y214D02*
X1309Y214D01*
X1Y213D02*
X8Y213D01*
X68Y213D02*
X75Y213D01*
X130Y213D02*
X136Y213D01*
X180Y213D02*
X186Y213D01*
X194Y213D02*
X200Y213D01*
X743Y213D02*
X769Y213D01*
X784Y213D02*
X813Y213D01*
X827Y213D02*
X832Y213D01*
X846Y213D02*
X854Y213D01*
X1302Y213D02*
X1309Y213D01*
X1Y212D02*
X8Y212D01*
X69Y212D02*
X76Y212D01*
X130Y212D02*
X136Y212D01*
X180Y212D02*
X186Y212D01*
X194Y212D02*
X200Y212D01*
X741Y212D02*
X769Y212D01*
X784Y212D02*
X813Y212D01*
X827Y212D02*
X832Y212D01*
X847Y212D02*
X856Y212D01*
X1302Y212D02*
X1309Y212D01*
X1Y211D02*
X8Y211D01*
X69Y211D02*
X76Y211D01*
X130Y211D02*
X136Y211D01*
X180Y211D02*
X186Y211D01*
X194Y211D02*
X200Y211D01*
X740Y211D02*
X769Y211D01*
X784Y211D02*
X812Y211D01*
X827Y211D02*
X832Y211D01*
X848Y211D02*
X856Y211D01*
X1302Y211D02*
X1309Y211D01*
X1Y210D02*
X8Y210D01*
X70Y210D02*
X77Y210D01*
X130Y210D02*
X136Y210D01*
X180Y210D02*
X186Y210D01*
X194Y210D02*
X200Y210D01*
X740Y210D02*
X769Y210D01*
X785Y210D02*
X812Y210D01*
X827Y210D02*
X832Y210D01*
X850Y210D02*
X856Y210D01*
X1302Y210D02*
X1309Y210D01*
X1Y209D02*
X8Y209D01*
X70Y209D02*
X77Y209D01*
X130Y209D02*
X136Y209D01*
X180Y209D02*
X186Y209D01*
X194Y209D02*
X200Y209D01*
X740Y209D02*
X769Y209D01*
X785Y209D02*
X811Y209D01*
X827Y209D02*
X832Y209D01*
X851Y209D02*
X856Y209D01*
X1302Y209D02*
X1309Y209D01*
X1Y208D02*
X8Y208D01*
X71Y208D02*
X78Y208D01*
X130Y208D02*
X136Y208D01*
X180Y208D02*
X186Y208D01*
X194Y208D02*
X200Y208D01*
X741Y208D02*
X768Y208D01*
X787Y208D02*
X810Y208D01*
X828Y208D02*
X832Y208D01*
X852Y208D02*
X856Y208D01*
X1302Y208D02*
X1309Y208D01*
X1Y207D02*
X8Y207D01*
X71Y207D02*
X78Y207D01*
X130Y207D02*
X136Y207D01*
X180Y207D02*
X186Y207D01*
X194Y207D02*
X200Y207D01*
X743Y207D02*
X767Y207D01*
X789Y207D02*
X808Y207D01*
X830Y207D02*
X830Y207D01*
X854Y207D02*
X854Y207D01*
X1302Y207D02*
X1309Y207D01*
X1Y206D02*
X8Y206D01*
X72Y206D02*
X79Y206D01*
X130Y206D02*
X136Y206D01*
X180Y206D02*
X186Y206D01*
X194Y206D02*
X200Y206D01*
X1302Y206D02*
X1309Y206D01*
X1Y205D02*
X8Y205D01*
X72Y205D02*
X79Y205D01*
X130Y205D02*
X136Y205D01*
X180Y205D02*
X186Y205D01*
X194Y205D02*
X200Y205D01*
X1302Y205D02*
X1309Y205D01*
X1Y204D02*
X8Y204D01*
X73Y204D02*
X80Y204D01*
X130Y204D02*
X136Y204D01*
X180Y204D02*
X186Y204D01*
X194Y204D02*
X200Y204D01*
X1302Y204D02*
X1309Y204D01*
X1Y203D02*
X8Y203D01*
X73Y203D02*
X80Y203D01*
X130Y203D02*
X136Y203D01*
X180Y203D02*
X186Y203D01*
X194Y203D02*
X200Y203D01*
X1302Y203D02*
X1309Y203D01*
X1Y202D02*
X8Y202D01*
X74Y202D02*
X81Y202D01*
X130Y202D02*
X136Y202D01*
X180Y202D02*
X186Y202D01*
X194Y202D02*
X200Y202D01*
X900Y202D02*
X909Y202D01*
X1302Y202D02*
X1309Y202D01*
X1Y201D02*
X8Y201D01*
X74Y201D02*
X97Y201D01*
X130Y201D02*
X136Y201D01*
X169Y201D02*
X200Y201D01*
X900Y201D02*
X909Y201D01*
X1302Y201D02*
X1309Y201D01*
X1Y200D02*
X8Y200D01*
X75Y200D02*
X99Y200D01*
X130Y200D02*
X136Y200D01*
X167Y200D02*
X200Y200D01*
X900Y200D02*
X909Y200D01*
X1302Y200D02*
X1309Y200D01*
X1Y199D02*
X8Y199D01*
X75Y199D02*
X99Y199D01*
X130Y199D02*
X136Y199D01*
X166Y199D02*
X200Y199D01*
X900Y199D02*
X909Y199D01*
X1302Y199D02*
X1309Y199D01*
X1Y198D02*
X8Y198D01*
X76Y198D02*
X100Y198D01*
X130Y198D02*
X136Y198D01*
X166Y198D02*
X200Y198D01*
X554Y198D02*
X556Y198D01*
X654Y198D02*
X656Y198D01*
X900Y198D02*
X909Y198D01*
X1302Y198D02*
X1309Y198D01*
X1Y197D02*
X8Y197D01*
X77Y197D02*
X99Y197D01*
X130Y197D02*
X136Y197D01*
X166Y197D02*
X199Y197D01*
X553Y197D02*
X557Y197D01*
X653Y197D02*
X657Y197D01*
X900Y197D02*
X909Y197D01*
X1302Y197D02*
X1309Y197D01*
X1Y196D02*
X8Y196D01*
X78Y196D02*
X99Y196D01*
X130Y196D02*
X135Y196D01*
X166Y196D02*
X199Y196D01*
X453Y196D02*
X470Y196D01*
X490Y196D02*
X508Y196D01*
X552Y196D02*
X558Y196D01*
X652Y196D02*
X658Y196D01*
X900Y196D02*
X909Y196D01*
X1302Y196D02*
X1309Y196D01*
X1Y195D02*
X8Y195D01*
X80Y195D02*
X98Y195D01*
X131Y195D02*
X134Y195D01*
X167Y195D02*
X198Y195D01*
X450Y195D02*
X471Y195D01*
X489Y195D02*
X508Y195D01*
X551Y195D02*
X558Y195D01*
X652Y195D02*
X659Y195D01*
X900Y195D02*
X909Y195D01*
X1302Y195D02*
X1309Y195D01*
X1Y194D02*
X8Y194D01*
X449Y194D02*
X471Y194D01*
X488Y194D02*
X508Y194D01*
X550Y194D02*
X558Y194D01*
X652Y194D02*
X660Y194D01*
X900Y194D02*
X909Y194D01*
X1302Y194D02*
X1309Y194D01*
X1Y193D02*
X8Y193D01*
X448Y193D02*
X472Y193D01*
X488Y193D02*
X508Y193D01*
X549Y193D02*
X558Y193D01*
X652Y193D02*
X661Y193D01*
X900Y193D02*
X909Y193D01*
X1302Y193D02*
X1309Y193D01*
X1Y192D02*
X8Y192D01*
X447Y192D02*
X471Y192D01*
X488Y192D02*
X508Y192D01*
X548Y192D02*
X558Y192D01*
X652Y192D02*
X662Y192D01*
X900Y192D02*
X909Y192D01*
X1302Y192D02*
X1309Y192D01*
X1Y191D02*
X8Y191D01*
X447Y191D02*
X471Y191D01*
X489Y191D02*
X508Y191D01*
X548Y191D02*
X557Y191D01*
X653Y191D02*
X662Y191D01*
X900Y191D02*
X909Y191D01*
X1302Y191D02*
X1309Y191D01*
X1Y190D02*
X8Y190D01*
X446Y190D02*
X469Y190D01*
X490Y190D02*
X508Y190D01*
X547Y190D02*
X556Y190D01*
X654Y190D02*
X663Y190D01*
X900Y190D02*
X909Y190D01*
X1302Y190D02*
X1309Y190D01*
X1Y189D02*
X8Y189D01*
X446Y189D02*
X453Y189D01*
X502Y189D02*
X508Y189D01*
X546Y189D02*
X555Y189D01*
X655Y189D02*
X664Y189D01*
X900Y189D02*
X909Y189D01*
X1302Y189D02*
X1309Y189D01*
X1Y188D02*
X8Y188D01*
X445Y188D02*
X452Y188D01*
X502Y188D02*
X508Y188D01*
X546Y188D02*
X554Y188D01*
X656Y188D02*
X664Y188D01*
X900Y188D02*
X909Y188D01*
X1302Y188D02*
X1309Y188D01*
X1Y187D02*
X8Y187D01*
X445Y187D02*
X452Y187D01*
X502Y187D02*
X508Y187D01*
X545Y187D02*
X554Y187D01*
X656Y187D02*
X665Y187D01*
X900Y187D02*
X909Y187D01*
X1302Y187D02*
X1309Y187D01*
X1Y186D02*
X8Y186D01*
X444Y186D02*
X451Y186D01*
X502Y186D02*
X508Y186D01*
X544Y186D02*
X553Y186D01*
X657Y186D02*
X666Y186D01*
X900Y186D02*
X909Y186D01*
X1302Y186D02*
X1309Y186D01*
X1Y185D02*
X8Y185D01*
X444Y185D02*
X451Y185D01*
X502Y185D02*
X508Y185D01*
X544Y185D02*
X552Y185D01*
X658Y185D02*
X667Y185D01*
X900Y185D02*
X909Y185D01*
X1302Y185D02*
X1309Y185D01*
X1Y184D02*
X8Y184D01*
X443Y184D02*
X450Y184D01*
X502Y184D02*
X508Y184D01*
X543Y184D02*
X551Y184D01*
X659Y184D02*
X667Y184D01*
X900Y184D02*
X909Y184D01*
X1302Y184D02*
X1309Y184D01*
X1Y183D02*
X8Y183D01*
X443Y183D02*
X450Y183D01*
X502Y183D02*
X508Y183D01*
X542Y183D02*
X551Y183D01*
X659Y183D02*
X668Y183D01*
X900Y183D02*
X909Y183D01*
X1302Y183D02*
X1309Y183D01*
X1Y182D02*
X8Y182D01*
X442Y182D02*
X449Y182D01*
X502Y182D02*
X508Y182D01*
X542Y182D02*
X550Y182D01*
X660Y182D02*
X668Y182D01*
X900Y182D02*
X909Y182D01*
X1302Y182D02*
X1309Y182D01*
X1Y181D02*
X8Y181D01*
X442Y181D02*
X449Y181D01*
X502Y181D02*
X508Y181D01*
X541Y181D02*
X549Y181D01*
X661Y181D02*
X669Y181D01*
X900Y181D02*
X909Y181D01*
X1302Y181D02*
X1309Y181D01*
X1Y180D02*
X8Y180D01*
X441Y180D02*
X448Y180D01*
X502Y180D02*
X508Y180D01*
X541Y180D02*
X549Y180D01*
X661Y180D02*
X669Y180D01*
X900Y180D02*
X909Y180D01*
X1302Y180D02*
X1309Y180D01*
X1Y179D02*
X8Y179D01*
X441Y179D02*
X448Y179D01*
X502Y179D02*
X508Y179D01*
X540Y179D02*
X548Y179D01*
X662Y179D02*
X670Y179D01*
X900Y179D02*
X909Y179D01*
X1302Y179D02*
X1309Y179D01*
X1Y178D02*
X8Y178D01*
X440Y178D02*
X447Y178D01*
X502Y178D02*
X508Y178D01*
X540Y178D02*
X548Y178D01*
X662Y178D02*
X670Y178D01*
X900Y178D02*
X909Y178D01*
X1302Y178D02*
X1309Y178D01*
X1Y177D02*
X8Y177D01*
X440Y177D02*
X447Y177D01*
X502Y177D02*
X508Y177D01*
X539Y177D02*
X547Y177D01*
X663Y177D02*
X671Y177D01*
X900Y177D02*
X909Y177D01*
X1302Y177D02*
X1309Y177D01*
X1Y176D02*
X8Y176D01*
X439Y176D02*
X446Y176D01*
X502Y176D02*
X508Y176D01*
X539Y176D02*
X547Y176D01*
X664Y176D02*
X671Y176D01*
X900Y176D02*
X909Y176D01*
X1302Y176D02*
X1309Y176D01*
X1Y175D02*
X8Y175D01*
X439Y175D02*
X446Y175D01*
X502Y175D02*
X508Y175D01*
X538Y175D02*
X546Y175D01*
X664Y175D02*
X672Y175D01*
X900Y175D02*
X909Y175D01*
X1302Y175D02*
X1309Y175D01*
X1Y174D02*
X8Y174D01*
X439Y174D02*
X445Y174D01*
X502Y174D02*
X508Y174D01*
X538Y174D02*
X546Y174D01*
X665Y174D02*
X672Y174D01*
X900Y174D02*
X909Y174D01*
X1302Y174D02*
X1309Y174D01*
X1Y173D02*
X8Y173D01*
X438Y173D02*
X445Y173D01*
X502Y173D02*
X508Y173D01*
X537Y173D02*
X545Y173D01*
X665Y173D02*
X673Y173D01*
X900Y173D02*
X909Y173D01*
X1302Y173D02*
X1309Y173D01*
X1Y172D02*
X8Y172D01*
X438Y172D02*
X444Y172D01*
X502Y172D02*
X508Y172D01*
X537Y172D02*
X566Y172D01*
X644Y172D02*
X673Y172D01*
X900Y172D02*
X909Y172D01*
X1302Y172D02*
X1309Y172D01*
X1Y171D02*
X8Y171D01*
X438Y171D02*
X444Y171D01*
X502Y171D02*
X508Y171D01*
X537Y171D02*
X567Y171D01*
X643Y171D02*
X673Y171D01*
X900Y171D02*
X909Y171D01*
X1302Y171D02*
X1309Y171D01*
X1Y170D02*
X8Y170D01*
X438Y170D02*
X444Y170D01*
X502Y170D02*
X508Y170D01*
X536Y170D02*
X568Y170D01*
X642Y170D02*
X674Y170D01*
X900Y170D02*
X909Y170D01*
X1302Y170D02*
X1309Y170D01*
X1Y169D02*
X8Y169D01*
X438Y169D02*
X444Y169D01*
X502Y169D02*
X508Y169D01*
X536Y169D02*
X568Y169D01*
X642Y169D02*
X674Y169D01*
X900Y169D02*
X909Y169D01*
X1302Y169D02*
X1309Y169D01*
X1Y168D02*
X8Y168D01*
X438Y168D02*
X444Y168D01*
X502Y168D02*
X508Y168D01*
X536Y168D02*
X568Y168D01*
X642Y168D02*
X674Y168D01*
X900Y168D02*
X909Y168D01*
X1302Y168D02*
X1309Y168D01*
X1Y167D02*
X8Y167D01*
X438Y167D02*
X444Y167D01*
X502Y167D02*
X508Y167D01*
X518Y167D02*
X519Y167D01*
X535Y167D02*
X568Y167D01*
X642Y167D02*
X675Y167D01*
X900Y167D02*
X909Y167D01*
X1302Y167D02*
X1309Y167D01*
X1Y166D02*
X8Y166D01*
X438Y166D02*
X445Y166D01*
X502Y166D02*
X508Y166D01*
X516Y166D02*
X521Y166D01*
X535Y166D02*
X568Y166D01*
X642Y166D02*
X675Y166D01*
X900Y166D02*
X909Y166D01*
X1302Y166D02*
X1309Y166D01*
X1Y165D02*
X8Y165D01*
X439Y165D02*
X445Y165D01*
X502Y165D02*
X508Y165D01*
X516Y165D02*
X521Y165D01*
X535Y165D02*
X567Y165D01*
X643Y165D02*
X675Y165D01*
X900Y165D02*
X909Y165D01*
X1302Y165D02*
X1309Y165D01*
X1Y164D02*
X8Y164D01*
X439Y164D02*
X446Y164D01*
X502Y164D02*
X508Y164D01*
X516Y164D02*
X521Y164D01*
X534Y164D02*
X542Y164D01*
X668Y164D02*
X676Y164D01*
X900Y164D02*
X909Y164D01*
X1302Y164D02*
X1309Y164D01*
X1Y163D02*
X8Y163D01*
X439Y163D02*
X446Y163D01*
X502Y163D02*
X508Y163D01*
X516Y163D02*
X522Y163D01*
X534Y163D02*
X541Y163D01*
X669Y163D02*
X676Y163D01*
X900Y163D02*
X909Y163D01*
X1302Y163D02*
X1309Y163D01*
X1Y162D02*
X8Y162D01*
X440Y162D02*
X447Y162D01*
X502Y162D02*
X508Y162D01*
X516Y162D02*
X522Y162D01*
X534Y162D02*
X541Y162D01*
X669Y162D02*
X676Y162D01*
X900Y162D02*
X909Y162D01*
X1302Y162D02*
X1309Y162D01*
X1Y161D02*
X8Y161D01*
X440Y161D02*
X447Y161D01*
X502Y161D02*
X508Y161D01*
X516Y161D02*
X522Y161D01*
X534Y161D02*
X541Y161D01*
X669Y161D02*
X676Y161D01*
X900Y161D02*
X909Y161D01*
X1302Y161D02*
X1309Y161D01*
X1Y160D02*
X8Y160D01*
X441Y160D02*
X448Y160D01*
X502Y160D02*
X508Y160D01*
X516Y160D02*
X522Y160D01*
X533Y160D02*
X541Y160D01*
X669Y160D02*
X677Y160D01*
X900Y160D02*
X909Y160D01*
X1302Y160D02*
X1309Y160D01*
X1Y159D02*
X8Y159D01*
X441Y159D02*
X448Y159D01*
X502Y159D02*
X508Y159D01*
X516Y159D02*
X522Y159D01*
X533Y159D02*
X540Y159D01*
X670Y159D02*
X677Y159D01*
X900Y159D02*
X909Y159D01*
X1302Y159D02*
X1309Y159D01*
X1Y158D02*
X8Y158D01*
X442Y158D02*
X449Y158D01*
X502Y158D02*
X508Y158D01*
X516Y158D02*
X522Y158D01*
X533Y158D02*
X540Y158D01*
X670Y158D02*
X677Y158D01*
X900Y158D02*
X909Y158D01*
X1302Y158D02*
X1309Y158D01*
X1Y157D02*
X8Y157D01*
X442Y157D02*
X449Y157D01*
X502Y157D02*
X508Y157D01*
X516Y157D02*
X522Y157D01*
X533Y157D02*
X540Y157D01*
X670Y157D02*
X677Y157D01*
X900Y157D02*
X909Y157D01*
X1302Y157D02*
X1309Y157D01*
X1Y156D02*
X8Y156D01*
X443Y156D02*
X450Y156D01*
X502Y156D02*
X508Y156D01*
X516Y156D02*
X522Y156D01*
X533Y156D02*
X540Y156D01*
X670Y156D02*
X677Y156D01*
X900Y156D02*
X909Y156D01*
X1302Y156D02*
X1309Y156D01*
X1Y155D02*
X8Y155D01*
X443Y155D02*
X450Y155D01*
X502Y155D02*
X508Y155D01*
X516Y155D02*
X522Y155D01*
X533Y155D02*
X540Y155D01*
X670Y155D02*
X677Y155D01*
X900Y155D02*
X909Y155D01*
X1302Y155D02*
X1309Y155D01*
X1Y154D02*
X8Y154D01*
X444Y154D02*
X451Y154D01*
X502Y154D02*
X508Y154D01*
X516Y154D02*
X522Y154D01*
X532Y154D02*
X539Y154D01*
X671Y154D02*
X678Y154D01*
X900Y154D02*
X909Y154D01*
X1302Y154D02*
X1309Y154D01*
X1Y153D02*
X8Y153D01*
X444Y153D02*
X451Y153D01*
X502Y153D02*
X508Y153D01*
X516Y153D02*
X522Y153D01*
X532Y153D02*
X539Y153D01*
X671Y153D02*
X678Y153D01*
X900Y153D02*
X909Y153D01*
X1302Y153D02*
X1309Y153D01*
X1Y152D02*
X8Y152D01*
X445Y152D02*
X452Y152D01*
X502Y152D02*
X508Y152D01*
X516Y152D02*
X522Y152D01*
X532Y152D02*
X539Y152D01*
X671Y152D02*
X678Y152D01*
X900Y152D02*
X909Y152D01*
X1302Y152D02*
X1309Y152D01*
X1Y151D02*
X8Y151D01*
X445Y151D02*
X452Y151D01*
X502Y151D02*
X508Y151D01*
X516Y151D02*
X522Y151D01*
X532Y151D02*
X539Y151D01*
X671Y151D02*
X678Y151D01*
X900Y151D02*
X909Y151D01*
X1302Y151D02*
X1309Y151D01*
X1Y150D02*
X8Y150D01*
X446Y150D02*
X453Y150D01*
X502Y150D02*
X508Y150D01*
X516Y150D02*
X522Y150D01*
X532Y150D02*
X539Y150D01*
X671Y150D02*
X678Y150D01*
X900Y150D02*
X909Y150D01*
X1302Y150D02*
X1309Y150D01*
X1Y149D02*
X8Y149D01*
X446Y149D02*
X470Y149D01*
X490Y149D02*
X522Y149D01*
X532Y149D02*
X539Y149D01*
X671Y149D02*
X678Y149D01*
X900Y149D02*
X909Y149D01*
X1302Y149D02*
X1309Y149D01*
X1Y148D02*
X8Y148D01*
X447Y148D02*
X471Y148D01*
X489Y148D02*
X522Y148D01*
X532Y148D02*
X539Y148D01*
X671Y148D02*
X678Y148D01*
X900Y148D02*
X909Y148D01*
X1302Y148D02*
X1309Y148D01*
X1Y147D02*
X8Y147D01*
X448Y147D02*
X471Y147D01*
X488Y147D02*
X522Y147D01*
X532Y147D02*
X539Y147D01*
X671Y147D02*
X678Y147D01*
X900Y147D02*
X909Y147D01*
X1302Y147D02*
X1309Y147D01*
X1Y146D02*
X8Y146D01*
X448Y146D02*
X472Y146D01*
X488Y146D02*
X522Y146D01*
X532Y146D02*
X539Y146D01*
X671Y146D02*
X678Y146D01*
X900Y146D02*
X909Y146D01*
X1302Y146D02*
X1309Y146D01*
X1Y145D02*
X8Y145D01*
X450Y145D02*
X471Y145D01*
X488Y145D02*
X521Y145D01*
X532Y145D02*
X539Y145D01*
X671Y145D02*
X678Y145D01*
X900Y145D02*
X909Y145D01*
X1302Y145D02*
X1309Y145D01*
X1Y144D02*
X8Y144D01*
X451Y144D02*
X471Y144D01*
X489Y144D02*
X521Y144D01*
X532Y144D02*
X539Y144D01*
X671Y144D02*
X678Y144D01*
X900Y144D02*
X909Y144D01*
X1302Y144D02*
X1309Y144D01*
X1Y143D02*
X8Y143D01*
X453Y143D02*
X470Y143D01*
X490Y143D02*
X520Y143D01*
X532Y143D02*
X539Y143D01*
X671Y143D02*
X678Y143D01*
X900Y143D02*
X909Y143D01*
X1302Y143D02*
X1309Y143D01*
X1Y142D02*
X8Y142D01*
X532Y142D02*
X539Y142D01*
X671Y142D02*
X678Y142D01*
X900Y142D02*
X909Y142D01*
X1302Y142D02*
X1309Y142D01*
X1Y141D02*
X8Y141D01*
X532Y141D02*
X539Y141D01*
X671Y141D02*
X678Y141D01*
X900Y141D02*
X909Y141D01*
X1302Y141D02*
X1309Y141D01*
X1Y140D02*
X8Y140D01*
X532Y140D02*
X539Y140D01*
X671Y140D02*
X678Y140D01*
X900Y140D02*
X909Y140D01*
X1302Y140D02*
X1309Y140D01*
X1Y139D02*
X8Y139D01*
X360Y139D02*
X374Y139D01*
X406Y139D02*
X425Y139D01*
X489Y139D02*
X515Y139D01*
X532Y139D02*
X539Y139D01*
X671Y139D02*
X678Y139D01*
X900Y139D02*
X909Y139D01*
X1302Y139D02*
X1309Y139D01*
X1Y138D02*
X8Y138D01*
X358Y138D02*
X375Y138D01*
X404Y138D02*
X427Y138D01*
X488Y138D02*
X517Y138D01*
X532Y138D02*
X539Y138D01*
X671Y138D02*
X678Y138D01*
X900Y138D02*
X909Y138D01*
X1302Y138D02*
X1309Y138D01*
X1Y137D02*
X8Y137D01*
X358Y137D02*
X375Y137D01*
X403Y137D02*
X429Y137D01*
X488Y137D02*
X517Y137D01*
X532Y137D02*
X539Y137D01*
X671Y137D02*
X678Y137D01*
X900Y137D02*
X909Y137D01*
X1302Y137D02*
X1309Y137D01*
X1Y136D02*
X8Y136D01*
X358Y136D02*
X375Y136D01*
X402Y136D02*
X429Y136D01*
X488Y136D02*
X517Y136D01*
X532Y136D02*
X539Y136D01*
X671Y136D02*
X678Y136D01*
X900Y136D02*
X909Y136D01*
X1302Y136D02*
X1309Y136D01*
X1Y135D02*
X8Y135D01*
X358Y135D02*
X375Y135D01*
X402Y135D02*
X430Y135D01*
X488Y135D02*
X517Y135D01*
X532Y135D02*
X539Y135D01*
X671Y135D02*
X678Y135D01*
X1302Y135D02*
X1309Y135D01*
X1Y134D02*
X8Y134D01*
X358Y134D02*
X375Y134D01*
X401Y134D02*
X430Y134D01*
X488Y134D02*
X517Y134D01*
X532Y134D02*
X539Y134D01*
X671Y134D02*
X678Y134D01*
X1302Y134D02*
X1309Y134D01*
X1Y133D02*
X8Y133D01*
X360Y133D02*
X375Y133D01*
X401Y133D02*
X430Y133D01*
X488Y133D02*
X515Y133D01*
X532Y133D02*
X539Y133D01*
X671Y133D02*
X678Y133D01*
X1302Y133D02*
X1309Y133D01*
X1Y132D02*
X8Y132D01*
X370Y132D02*
X375Y132D01*
X401Y132D02*
X406Y132D01*
X425Y132D02*
X430Y132D01*
X488Y132D02*
X493Y132D01*
X532Y132D02*
X539Y132D01*
X671Y132D02*
X678Y132D01*
X1302Y132D02*
X1309Y132D01*
X1Y131D02*
X8Y131D01*
X370Y131D02*
X375Y131D01*
X401Y131D02*
X406Y131D01*
X425Y131D02*
X430Y131D01*
X488Y131D02*
X493Y131D01*
X533Y131D02*
X540Y131D01*
X670Y131D02*
X677Y131D01*
X1302Y131D02*
X1309Y131D01*
X1Y130D02*
X8Y130D01*
X370Y130D02*
X375Y130D01*
X401Y130D02*
X406Y130D01*
X425Y130D02*
X430Y130D01*
X488Y130D02*
X493Y130D01*
X533Y130D02*
X540Y130D01*
X670Y130D02*
X677Y130D01*
X1302Y130D02*
X1309Y130D01*
X1Y129D02*
X8Y129D01*
X370Y129D02*
X375Y129D01*
X401Y129D02*
X406Y129D01*
X425Y129D02*
X430Y129D01*
X488Y129D02*
X493Y129D01*
X533Y129D02*
X540Y129D01*
X670Y129D02*
X677Y129D01*
X1302Y129D02*
X1309Y129D01*
X1Y128D02*
X8Y128D01*
X370Y128D02*
X375Y128D01*
X401Y128D02*
X406Y128D01*
X425Y128D02*
X430Y128D01*
X488Y128D02*
X493Y128D01*
X533Y128D02*
X540Y128D01*
X670Y128D02*
X677Y128D01*
X1302Y128D02*
X1309Y128D01*
X1Y127D02*
X8Y127D01*
X370Y127D02*
X375Y127D01*
X401Y127D02*
X406Y127D01*
X425Y127D02*
X430Y127D01*
X488Y127D02*
X493Y127D01*
X533Y127D02*
X540Y127D01*
X670Y127D02*
X677Y127D01*
X1302Y127D02*
X1309Y127D01*
X1Y126D02*
X8Y126D01*
X370Y126D02*
X375Y126D01*
X401Y126D02*
X406Y126D01*
X425Y126D02*
X430Y126D01*
X447Y126D02*
X448Y126D01*
X471Y126D02*
X472Y126D01*
X488Y126D02*
X493Y126D01*
X534Y126D02*
X541Y126D01*
X669Y126D02*
X676Y126D01*
X1302Y126D02*
X1309Y126D01*
X1Y125D02*
X8Y125D01*
X370Y125D02*
X375Y125D01*
X401Y125D02*
X406Y125D01*
X425Y125D02*
X430Y125D01*
X445Y125D02*
X449Y125D01*
X469Y125D02*
X473Y125D01*
X488Y125D02*
X493Y125D01*
X534Y125D02*
X541Y125D01*
X669Y125D02*
X676Y125D01*
X1302Y125D02*
X1309Y125D01*
X1Y124D02*
X8Y124D01*
X370Y124D02*
X375Y124D01*
X401Y124D02*
X406Y124D01*
X425Y124D02*
X430Y124D01*
X445Y124D02*
X450Y124D01*
X469Y124D02*
X474Y124D01*
X488Y124D02*
X493Y124D01*
X534Y124D02*
X541Y124D01*
X669Y124D02*
X676Y124D01*
X1302Y124D02*
X1309Y124D01*
X1Y123D02*
X8Y123D01*
X370Y123D02*
X375Y123D01*
X401Y123D02*
X406Y123D01*
X425Y123D02*
X430Y123D01*
X445Y123D02*
X450Y123D01*
X469Y123D02*
X474Y123D01*
X488Y123D02*
X510Y123D01*
X534Y123D02*
X541Y123D01*
X669Y123D02*
X676Y123D01*
X1302Y123D02*
X1309Y123D01*
X1Y122D02*
X8Y122D01*
X370Y122D02*
X375Y122D01*
X401Y122D02*
X406Y122D01*
X425Y122D02*
X430Y122D01*
X445Y122D02*
X450Y122D01*
X469Y122D02*
X474Y122D01*
X488Y122D02*
X511Y122D01*
X535Y122D02*
X542Y122D01*
X668Y122D02*
X675Y122D01*
X1302Y122D02*
X1309Y122D01*
X1Y121D02*
X8Y121D01*
X370Y121D02*
X375Y121D01*
X401Y121D02*
X406Y121D01*
X425Y121D02*
X430Y121D01*
X445Y121D02*
X450Y121D01*
X469Y121D02*
X474Y121D01*
X488Y121D02*
X511Y121D01*
X535Y121D02*
X542Y121D01*
X668Y121D02*
X675Y121D01*
X1302Y121D02*
X1309Y121D01*
X1Y120D02*
X8Y120D01*
X370Y120D02*
X375Y120D01*
X401Y120D02*
X406Y120D01*
X425Y120D02*
X430Y120D01*
X445Y120D02*
X450Y120D01*
X469Y120D02*
X474Y120D01*
X488Y120D02*
X511Y120D01*
X535Y120D02*
X542Y120D01*
X668Y120D02*
X675Y120D01*
X1302Y120D02*
X1309Y120D01*
X1Y119D02*
X8Y119D01*
X370Y119D02*
X375Y119D01*
X401Y119D02*
X406Y119D01*
X425Y119D02*
X430Y119D01*
X445Y119D02*
X450Y119D01*
X469Y119D02*
X474Y119D01*
X488Y119D02*
X511Y119D01*
X536Y119D02*
X543Y119D01*
X667Y119D02*
X675Y119D01*
X1302Y119D02*
X1309Y119D01*
X1Y118D02*
X8Y118D01*
X370Y118D02*
X375Y118D01*
X401Y118D02*
X406Y118D01*
X425Y118D02*
X430Y118D01*
X445Y118D02*
X450Y118D01*
X469Y118D02*
X474Y118D01*
X488Y118D02*
X510Y118D01*
X536Y118D02*
X543Y118D01*
X667Y118D02*
X674Y118D01*
X1302Y118D02*
X1309Y118D01*
X1Y117D02*
X8Y117D01*
X370Y117D02*
X375Y117D01*
X401Y117D02*
X406Y117D01*
X425Y117D02*
X430Y117D01*
X445Y117D02*
X450Y117D01*
X469Y117D02*
X474Y117D01*
X488Y117D02*
X493Y117D01*
X536Y117D02*
X544Y117D01*
X666Y117D02*
X674Y117D01*
X1302Y117D02*
X1309Y117D01*
X1Y116D02*
X8Y116D01*
X370Y116D02*
X375Y116D01*
X401Y116D02*
X406Y116D01*
X425Y116D02*
X430Y116D01*
X445Y116D02*
X450Y116D01*
X469Y116D02*
X474Y116D01*
X488Y116D02*
X493Y116D01*
X537Y116D02*
X544Y116D01*
X666Y116D02*
X674Y116D01*
X1302Y116D02*
X1309Y116D01*
X1Y115D02*
X8Y115D01*
X370Y115D02*
X375Y115D01*
X401Y115D02*
X406Y115D01*
X425Y115D02*
X430Y115D01*
X445Y115D02*
X450Y115D01*
X469Y115D02*
X474Y115D01*
X488Y115D02*
X493Y115D01*
X537Y115D02*
X544Y115D01*
X666Y115D02*
X673Y115D01*
X1302Y115D02*
X1309Y115D01*
X1Y114D02*
X8Y114D01*
X370Y114D02*
X375Y114D01*
X401Y114D02*
X406Y114D01*
X425Y114D02*
X430Y114D01*
X445Y114D02*
X450Y114D01*
X469Y114D02*
X474Y114D01*
X488Y114D02*
X493Y114D01*
X537Y114D02*
X545Y114D01*
X665Y114D02*
X673Y114D01*
X1302Y114D02*
X1309Y114D01*
X1Y113D02*
X8Y113D01*
X370Y113D02*
X375Y113D01*
X383Y113D02*
X385Y113D01*
X401Y113D02*
X406Y113D01*
X425Y113D02*
X430Y113D01*
X445Y113D02*
X450Y113D01*
X469Y113D02*
X474Y113D01*
X488Y113D02*
X493Y113D01*
X538Y113D02*
X545Y113D01*
X665Y113D02*
X672Y113D01*
X1302Y113D02*
X1309Y113D01*
X1Y112D02*
X8Y112D01*
X370Y112D02*
X375Y112D01*
X382Y112D02*
X386Y112D01*
X401Y112D02*
X406Y112D01*
X425Y112D02*
X430Y112D01*
X445Y112D02*
X450Y112D01*
X469Y112D02*
X474Y112D01*
X488Y112D02*
X493Y112D01*
X538Y112D02*
X546Y112D01*
X664Y112D02*
X672Y112D01*
X1302Y112D02*
X1309Y112D01*
X1Y111D02*
X8Y111D01*
X370Y111D02*
X375Y111D01*
X382Y111D02*
X387Y111D01*
X401Y111D02*
X406Y111D01*
X425Y111D02*
X430Y111D01*
X445Y111D02*
X450Y111D01*
X469Y111D02*
X474Y111D01*
X488Y111D02*
X493Y111D01*
X539Y111D02*
X546Y111D01*
X664Y111D02*
X671Y111D01*
X1302Y111D02*
X1309Y111D01*
X1Y110D02*
X8Y110D01*
X370Y110D02*
X375Y110D01*
X382Y110D02*
X387Y110D01*
X401Y110D02*
X406Y110D01*
X425Y110D02*
X430Y110D01*
X445Y110D02*
X450Y110D01*
X469Y110D02*
X474Y110D01*
X488Y110D02*
X493Y110D01*
X539Y110D02*
X547Y110D01*
X663Y110D02*
X671Y110D01*
X1302Y110D02*
X1309Y110D01*
X1Y109D02*
X8Y109D01*
X370Y109D02*
X375Y109D01*
X382Y109D02*
X387Y109D01*
X401Y109D02*
X406Y109D01*
X425Y109D02*
X430Y109D01*
X445Y109D02*
X450Y109D01*
X469Y109D02*
X474Y109D01*
X488Y109D02*
X493Y109D01*
X539Y109D02*
X547Y109D01*
X663Y109D02*
X671Y109D01*
X1302Y109D02*
X1309Y109D01*
X1Y108D02*
X8Y108D01*
X370Y108D02*
X375Y108D01*
X382Y108D02*
X387Y108D01*
X401Y108D02*
X406Y108D01*
X425Y108D02*
X430Y108D01*
X445Y108D02*
X450Y108D01*
X469Y108D02*
X474Y108D01*
X488Y108D02*
X493Y108D01*
X540Y108D02*
X548Y108D01*
X662Y108D02*
X670Y108D01*
X1302Y108D02*
X1309Y108D01*
X1Y107D02*
X8Y107D01*
X370Y107D02*
X375Y107D01*
X382Y107D02*
X387Y107D01*
X401Y107D02*
X406Y107D01*
X425Y107D02*
X430Y107D01*
X445Y107D02*
X450Y107D01*
X469Y107D02*
X474Y107D01*
X488Y107D02*
X493Y107D01*
X540Y107D02*
X549Y107D01*
X662Y107D02*
X670Y107D01*
X1302Y107D02*
X1309Y107D01*
X1Y106D02*
X8Y106D01*
X370Y106D02*
X375Y106D01*
X382Y106D02*
X387Y106D01*
X401Y106D02*
X406Y106D01*
X425Y106D02*
X430Y106D01*
X445Y106D02*
X450Y106D01*
X469Y106D02*
X474Y106D01*
X488Y106D02*
X493Y106D01*
X541Y106D02*
X549Y106D01*
X661Y106D02*
X669Y106D01*
X1302Y106D02*
X1309Y106D01*
X1Y105D02*
X8Y105D01*
X370Y105D02*
X375Y105D01*
X382Y105D02*
X387Y105D01*
X401Y105D02*
X406Y105D01*
X425Y105D02*
X430Y105D01*
X445Y105D02*
X450Y105D01*
X469Y105D02*
X474Y105D01*
X488Y105D02*
X493Y105D01*
X542Y105D02*
X550Y105D01*
X660Y105D02*
X668Y105D01*
X1302Y105D02*
X1309Y105D01*
X1Y104D02*
X8Y104D01*
X370Y104D02*
X375Y104D01*
X382Y104D02*
X387Y104D01*
X401Y104D02*
X406Y104D01*
X425Y104D02*
X430Y104D01*
X445Y104D02*
X450Y104D01*
X468Y104D02*
X474Y104D01*
X488Y104D02*
X493Y104D01*
X542Y104D02*
X550Y104D01*
X660Y104D02*
X668Y104D01*
X1302Y104D02*
X1309Y104D01*
X1Y103D02*
X8Y103D01*
X370Y103D02*
X375Y103D01*
X382Y103D02*
X387Y103D01*
X401Y103D02*
X406Y103D01*
X425Y103D02*
X430Y103D01*
X445Y103D02*
X450Y103D01*
X467Y103D02*
X474Y103D01*
X488Y103D02*
X493Y103D01*
X543Y103D02*
X551Y103D01*
X659Y103D02*
X667Y103D01*
X1302Y103D02*
X1309Y103D01*
X1Y102D02*
X8Y102D01*
X370Y102D02*
X375Y102D01*
X382Y102D02*
X387Y102D01*
X401Y102D02*
X406Y102D01*
X425Y102D02*
X430Y102D01*
X445Y102D02*
X451Y102D01*
X465Y102D02*
X474Y102D01*
X488Y102D02*
X493Y102D01*
X543Y102D02*
X552Y102D01*
X658Y102D02*
X667Y102D01*
X1302Y102D02*
X1309Y102D01*
X1Y101D02*
X8Y101D01*
X370Y101D02*
X375Y101D01*
X382Y101D02*
X387Y101D01*
X401Y101D02*
X406Y101D01*
X425Y101D02*
X430Y101D01*
X445Y101D02*
X451Y101D01*
X464Y101D02*
X474Y101D01*
X488Y101D02*
X493Y101D01*
X544Y101D02*
X553Y101D01*
X657Y101D02*
X666Y101D01*
X1302Y101D02*
X1309Y101D01*
X1Y100D02*
X8Y100D01*
X370Y100D02*
X375Y100D01*
X382Y100D02*
X387Y100D01*
X401Y100D02*
X406Y100D01*
X425Y100D02*
X430Y100D01*
X446Y100D02*
X451Y100D01*
X462Y100D02*
X474Y100D01*
X488Y100D02*
X493Y100D01*
X545Y100D02*
X553Y100D01*
X657Y100D02*
X665Y100D01*
X1302Y100D02*
X1309Y100D01*
X1Y99D02*
X8Y99D01*
X370Y99D02*
X375Y99D01*
X382Y99D02*
X387Y99D01*
X401Y99D02*
X406Y99D01*
X425Y99D02*
X430Y99D01*
X446Y99D02*
X451Y99D01*
X460Y99D02*
X474Y99D01*
X488Y99D02*
X493Y99D01*
X545Y99D02*
X554Y99D01*
X656Y99D02*
X665Y99D01*
X1302Y99D02*
X1309Y99D01*
X1Y98D02*
X8Y98D01*
X369Y98D02*
X375Y98D01*
X381Y98D02*
X387Y98D01*
X401Y98D02*
X407Y98D01*
X425Y98D02*
X430Y98D01*
X446Y98D02*
X453Y98D01*
X459Y98D02*
X474Y98D01*
X488Y98D02*
X493Y98D01*
X546Y98D02*
X555Y98D01*
X655Y98D02*
X664Y98D01*
X1302Y98D02*
X1309Y98D01*
X1Y97D02*
X8Y97D01*
X358Y97D02*
X387Y97D01*
X401Y97D02*
X430Y97D01*
X446Y97D02*
X474Y97D01*
X488Y97D02*
X493Y97D01*
X547Y97D02*
X556Y97D01*
X654Y97D02*
X663Y97D01*
X1302Y97D02*
X1309Y97D01*
X1Y96D02*
X8Y96D01*
X358Y96D02*
X387Y96D01*
X401Y96D02*
X430Y96D01*
X447Y96D02*
X466Y96D01*
X469Y96D02*
X474Y96D01*
X488Y96D02*
X493Y96D01*
X547Y96D02*
X557Y96D01*
X653Y96D02*
X663Y96D01*
X1302Y96D02*
X1309Y96D01*
X1Y95D02*
X8Y95D01*
X358Y95D02*
X387Y95D01*
X402Y95D02*
X429Y95D01*
X448Y95D02*
X465Y95D01*
X469Y95D02*
X474Y95D01*
X488Y95D02*
X493Y95D01*
X548Y95D02*
X557Y95D01*
X653Y95D02*
X662Y95D01*
X1302Y95D02*
X1309Y95D01*
X1Y94D02*
X8Y94D01*
X358Y94D02*
X387Y94D01*
X403Y94D02*
X429Y94D01*
X449Y94D02*
X463Y94D01*
X469Y94D02*
X474Y94D01*
X488Y94D02*
X493Y94D01*
X549Y94D02*
X558Y94D01*
X652Y94D02*
X661Y94D01*
X1302Y94D02*
X1309Y94D01*
X1Y93D02*
X8Y93D01*
X358Y93D02*
X386Y93D01*
X404Y93D02*
X427Y93D01*
X450Y93D02*
X461Y93D01*
X469Y93D02*
X473Y93D01*
X489Y93D02*
X493Y93D01*
X550Y93D02*
X558Y93D01*
X652Y93D02*
X660Y93D01*
X1302Y93D02*
X1309Y93D01*
X1Y92D02*
X8Y92D01*
X360Y92D02*
X384Y92D01*
X406Y92D02*
X425Y92D01*
X453Y92D02*
X458Y92D01*
X471Y92D02*
X472Y92D01*
X491Y92D02*
X491Y92D01*
X551Y92D02*
X558Y92D01*
X652Y92D02*
X659Y92D01*
X1302Y92D02*
X1309Y92D01*
X1Y91D02*
X8Y91D01*
X551Y91D02*
X558Y91D01*
X652Y91D02*
X659Y91D01*
X1302Y91D02*
X1309Y91D01*
X1Y90D02*
X8Y90D01*
X552Y90D02*
X558Y90D01*
X652Y90D02*
X658Y90D01*
X1302Y90D02*
X1309Y90D01*
X1Y89D02*
X8Y89D01*
X553Y89D02*
X557Y89D01*
X653Y89D02*
X657Y89D01*
X1302Y89D02*
X1309Y89D01*
X1Y88D02*
X8Y88D01*
X1302Y88D02*
X1309Y88D01*
X1Y87D02*
X8Y87D01*
X1302Y87D02*
X1309Y87D01*
X1Y86D02*
X8Y86D01*
X1302Y86D02*
X1309Y86D01*
X1Y85D02*
X8Y85D01*
X1302Y85D02*
X1309Y85D01*
X1Y84D02*
X8Y84D01*
X1302Y84D02*
X1309Y84D01*
X1Y83D02*
X8Y83D01*
X1302Y83D02*
X1309Y83D01*
X1Y82D02*
X8Y82D01*
X1302Y82D02*
X1309Y82D01*
X1Y81D02*
X8Y81D01*
X1302Y81D02*
X1309Y81D01*
X1Y80D02*
X8Y80D01*
X1302Y80D02*
X1309Y80D01*
X1Y79D02*
X8Y79D01*
X1302Y79D02*
X1309Y79D01*
X1Y78D02*
X8Y78D01*
X1302Y78D02*
X1309Y78D01*
X1Y77D02*
X8Y77D01*
X1302Y77D02*
X1309Y77D01*
X1Y76D02*
X8Y76D01*
X1302Y76D02*
X1309Y76D01*
X1Y75D02*
X8Y75D01*
X1302Y75D02*
X1309Y75D01*
X1Y74D02*
X8Y74D01*
X1302Y74D02*
X1309Y74D01*
X1Y73D02*
X8Y73D01*
X1302Y73D02*
X1309Y73D01*
X1Y72D02*
X8Y72D01*
X1302Y72D02*
X1309Y72D01*
X1Y71D02*
X8Y71D01*
X1302Y71D02*
X1309Y71D01*
X1Y70D02*
X8Y70D01*
X1302Y70D02*
X1309Y70D01*
X1Y69D02*
X8Y69D01*
X1302Y69D02*
X1309Y69D01*
X1Y68D02*
X8Y68D01*
X1302Y68D02*
X1309Y68D01*
X1Y67D02*
X8Y67D01*
X1302Y67D02*
X1309Y67D01*
X1Y66D02*
X8Y66D01*
X1302Y66D02*
X1309Y66D01*
X1Y65D02*
X8Y65D01*
X1302Y65D02*
X1309Y65D01*
X1Y64D02*
X8Y64D01*
X1302Y64D02*
X1309Y64D01*
X1Y63D02*
X8Y63D01*
X1302Y63D02*
X1309Y63D01*
X1Y62D02*
X8Y62D01*
X1302Y62D02*
X1309Y62D01*
X1Y61D02*
X8Y61D01*
X1302Y61D02*
X1309Y61D01*
X1Y60D02*
X8Y60D01*
X1302Y60D02*
X1309Y60D01*
X1Y59D02*
X8Y59D01*
X1302Y59D02*
X1309Y59D01*
X1Y58D02*
X8Y58D01*
X1302Y58D02*
X1309Y58D01*
X1Y57D02*
X8Y57D01*
X1302Y57D02*
X1309Y57D01*
X1Y56D02*
X8Y56D01*
X1302Y56D02*
X1309Y56D01*
X1Y55D02*
X8Y55D01*
X1302Y55D02*
X1309Y55D01*
X1Y54D02*
X8Y54D01*
X1302Y54D02*
X1309Y54D01*
X1Y53D02*
X8Y53D01*
X1302Y53D02*
X1309Y53D01*
X1Y52D02*
X8Y52D01*
X1302Y52D02*
X1309Y52D01*
X1Y51D02*
X8Y51D01*
X1302Y51D02*
X1309Y51D01*
X1Y50D02*
X8Y50D01*
X1302Y50D02*
X1309Y50D01*
X1Y49D02*
X8Y49D01*
X1302Y49D02*
X1309Y49D01*
X1Y48D02*
X8Y48D01*
X1302Y48D02*
X1309Y48D01*
X1Y47D02*
X8Y47D01*
X1302Y47D02*
X1309Y47D01*
X1Y46D02*
X8Y46D01*
X1302Y46D02*
X1309Y46D01*
X1Y45D02*
X8Y45D01*
X1302Y45D02*
X1309Y45D01*
X1Y44D02*
X8Y44D01*
X1302Y44D02*
X1309Y44D01*
X1Y43D02*
X8Y43D01*
X1302Y43D02*
X1309Y43D01*
X1Y42D02*
X8Y42D01*
X1302Y42D02*
X1309Y42D01*
X1Y41D02*
X8Y41D01*
X1302Y41D02*
X1309Y41D01*
X1Y40D02*
X8Y40D01*
X1302Y40D02*
X1309Y40D01*
X1Y39D02*
X8Y39D01*
X1302Y39D02*
X1309Y39D01*
X1Y38D02*
X8Y38D01*
X1302Y38D02*
X1309Y38D01*
X1Y37D02*
X8Y37D01*
X1302Y37D02*
X1309Y37D01*
X1Y36D02*
X8Y36D01*
X1302Y36D02*
X1309Y36D01*
X1Y35D02*
X8Y35D01*
X1302Y35D02*
X1309Y35D01*
X1Y34D02*
X8Y34D01*
X1302Y34D02*
X1309Y34D01*
X1Y33D02*
X8Y33D01*
X1302Y33D02*
X1309Y33D01*
X1Y32D02*
X8Y32D01*
X1302Y32D02*
X1309Y32D01*
X1Y31D02*
X8Y31D01*
X1302Y31D02*
X1309Y31D01*
X1Y30D02*
X8Y30D01*
X1302Y30D02*
X1309Y30D01*
X1Y29D02*
X8Y29D01*
X1302Y29D02*
X1309Y29D01*
X1Y28D02*
X8Y28D01*
X1302Y28D02*
X1309Y28D01*
X1Y27D02*
X8Y27D01*
X1302Y27D02*
X1309Y27D01*
X1Y26D02*
X8Y26D01*
X1302Y26D02*
X1309Y26D01*
X1Y25D02*
X8Y25D01*
X1302Y25D02*
X1309Y25D01*
X1Y24D02*
X8Y24D01*
X1302Y24D02*
X1309Y24D01*
X1Y23D02*
X8Y23D01*
X1302Y23D02*
X1309Y23D01*
X1Y22D02*
X8Y22D01*
X1302Y22D02*
X1309Y22D01*
X1Y21D02*
X8Y21D01*
X1302Y21D02*
X1309Y21D01*
X1Y20D02*
X8Y20D01*
X1302Y20D02*
X1309Y20D01*
X1Y19D02*
X8Y19D01*
X1302Y19D02*
X1309Y19D01*
X1Y18D02*
X8Y18D01*
X1302Y18D02*
X1309Y18D01*
X1Y17D02*
X8Y17D01*
X1302Y17D02*
X1309Y17D01*
X1Y16D02*
X8Y16D01*
X1302Y16D02*
X1309Y16D01*
X1Y15D02*
X8Y15D01*
X1302Y15D02*
X1309Y15D01*
X1Y14D02*
X8Y14D01*
X1302Y14D02*
X1309Y14D01*
X1Y13D02*
X8Y13D01*
X1302Y13D02*
X1309Y13D01*
X1Y12D02*
X8Y12D01*
X1302Y12D02*
X1309Y12D01*
X1Y11D02*
X8Y11D01*
X1302Y11D02*
X1309Y11D01*
X1Y10D02*
X8Y10D01*
X1302Y10D02*
X1309Y10D01*
X1Y9D02*
X8Y9D01*
X1302Y9D02*
X1309Y9D01*
X1Y8D02*
X1309Y8D01*
X1Y7D02*
X1309Y7D01*
X1Y6D02*
X1309Y6D01*
X1Y5D02*
X1309Y5D01*
X1Y4D02*
X1309Y4D01*
X1Y3D02*
X1309Y3D01*
X1Y2D02*
X1309Y2D01*
X1Y1D02*
X1309Y1D01*
D02*
G04 End of Silk1*
M02*