; NON-PLATED HOLES START AT T1
; THROUGH (PLATED) HOLES START AT T100
M48
INCH
T1C0.044000
T2C0.125984
T100C0.030000
T101C0.035000
T102C0.027559
T103C0.052972
T104C0.053000
%
T1
X001064Y006896
X002048Y006896
X004016Y004928
X002048Y002960
X001064Y002960
T2
X001048Y008928
X012048Y000928
X001048Y000928
X012048Y008928
T100
X006048Y000928
X006048Y001928
T101
X009048Y000928
X008048Y003928
X009048Y004928
X008048Y007928
X006048Y007928
X006048Y003928
T102
X010998Y004928
X010998Y005928
X010998Y003928
T103
X002048Y004928
X004016Y003944
T104
X004016Y002960
X004016Y005912
X004016Y006895
T00
M30
