; NON-PLATED HOLES START AT T1
; THROUGH (PLATED) HOLES START AT T100
M48
INCH
T1C0.125984
T2C0.044000
T100C0.053000
T101C0.052972
T102C0.035000
T103C0.030000
T104C0.027559
%
T1
X012048Y008928
X001048Y008928
X001048Y000928
X012048Y000928
T2
X002048Y006896
X002048Y002960
X001064Y002960
X004016Y004928
X001064Y006896
T100
X004016Y006895
X004016Y005912
X004016Y002960
T101
X004016Y003944
X002048Y004928
T102
X009048Y000928
X008048Y007928
X008048Y003928
X006048Y003928
X009048Y004928
X006048Y007928
T103
X006048Y000928
X006048Y001928
T104
X011048Y003928
X010948Y004928
X011048Y005928
T00
M30
